<svg width="28" height="28" viewBox="0 0 28 28" fill="none" xmlns="http://www.w3.org/2000/svg">
<g clip-path="url(#clip0_2322_6801)">
<path d="M20.782 14C20.783 15.5958 20.2209 17.1408 19.1945 18.3628C18.1682 19.5848 16.7435 20.4054 15.1715 20.68C13.5995 20.9546 11.981 20.6656 10.6012 19.8639C9.22136 19.0622 8.16871 17.7993 7.6287 16.2977L3.75 19.4006C4.95606 21.6932 6.89551 23.5156 9.25868 24.5769C11.6218 25.6381 14.2724 25.8769 16.7872 25.2551C19.302 24.6334 21.536 23.187 23.1324 21.1469C24.7288 19.1067 25.5957 16.5905 25.5945 14" fill="#00AC47"/>
<path d="M20.7807 14C20.7798 15.0789 20.5212 16.1419 20.0263 17.1006C19.5314 18.0593 18.8146 18.8858 17.9355 19.5114L21.7701 22.579C22.9726 21.4964 23.9342 20.1734 24.5928 18.6955C25.2513 17.2177 25.5922 15.618 25.5932 14" fill="#4285F4"/>
<path d="M7.21875 14.0002C7.22043 13.2163 7.35892 12.4388 7.62799 11.7025L3.74929 8.59961C2.86736 10.2631 2.40625 12.1173 2.40625 14.0002C2.40625 15.883 2.86736 17.7373 3.74929 19.4008L7.62799 16.2979C7.35892 15.5616 7.22043 14.7841 7.21875 14.0002Z" fill="#FFBA00"/>
<path d="M14.0007 7.21876C15.4356 7.21916 16.8329 7.6777 17.989 8.52758L21.5415 5.21195C20.2227 4.07493 18.6642 3.25042 16.9823 2.79994C15.3004 2.34946 13.5384 2.28464 11.8279 2.61031C10.1174 2.93599 8.50254 3.64375 7.10382 4.68079C5.7051 5.71783 4.55864 7.05736 3.75 8.59942L7.6287 11.7023C8.10174 10.391 8.96712 9.25723 10.1072 8.45503C11.2473 7.65284 12.6067 7.22118 14.0007 7.21876Z" fill="#EA4435"/>
<path d="M25.5938 13.125V14L23.625 17.0625H14.4375V12.25H24.7188C24.9508 12.25 25.1734 12.3422 25.3375 12.5063C25.5016 12.6704 25.5938 12.8929 25.5938 13.125Z" fill="#4285F4"/>
</g>
<defs>
<clipPath id="clip0_2322_6801">
<rect width="28" height="28" fill="white"/>
</clipPath>
</defs>
</svg>
