<svg width="234" height="183" viewBox="0 0 234 183" fill="none" xmlns="http://www.w3.org/2000/svg">
<path d="M229.966 10.9673L208.999 0.721669C206.535 -0.483106 203.597 -0.159133 201.444 1.54173L134.752 54.4405C131.1 57.336 131.12 62.9043 134.782 65.7796L152.288 79.5181C154.883 81.5631 158.535 81.553 161.121 79.4978L186.544 59.3406C191.242 55.6149 198.134 58.9862 198.134 65V118.192C198.134 124.196 191.262 127.567 186.564 123.872L32.1739 2.39216C30.0209 0.701421 27.0933 0.387572 24.6284 1.59235L4.02425 11.676C1.5594 12.8808 0 15.4017 0 18.1555V165.563C0 168.327 1.56946 170.838 4.03431 172.043L25.0107 182.278C27.4756 183.483 30.4133 183.159 32.5662 181.458L98.7349 128.975C102.387 126.079 102.367 120.511 98.7048 117.636L81.1993 103.897C78.6036 101.852 74.9516 101.862 72.3661 103.917L47.466 123.67C42.7677 127.395 35.8762 124.024 35.8762 118.01V65.5366C35.8762 59.533 42.7476 56.1616 47.4459 59.8671L201.746 181.377C203.899 183.078 206.826 183.382 209.291 182.177L229.976 172.053C232.441 170.848 234 168.327 234 165.573V17.4468C234 14.6829 232.431 12.1721 229.966 10.9673Z" fill="#5D95FF"/>
</svg>
