<svg width="121" height="42" viewBox="0 0 121 42" fill="none" xmlns="http://www.w3.org/2000/svg">
<g clip-path="url(#clip0_2322_6220)">
<mask id="mask0_2322_6220" style="mask-type:luminance" maskUnits="userSpaceOnUse" x="0" y="0" width="121" height="42">
<path d="M120 1.10772e-05L0 0.131775L0.0450193 41.1318L120.045 41L120 1.10772e-05Z" fill="white"/>
</mask>
<g mask="url(#mask0_2322_6220)">
<path d="M38.1138 12.4104C38.1108 9.70093 40.2685 7.47474 43.2092 7.47151C44.9529 7.4696 46.0204 7.92852 47.0363 8.77093L45.6848 10.3572C44.9294 9.74456 44.2784 9.38742 43.1333 9.38868C41.5718 9.39039 40.3501 10.7465 40.3519 12.3824C40.3538 14.1205 41.5784 15.3972 43.296 15.3954C44.0768 15.3945 44.7792 15.2148 45.2993 14.8308L45.2978 13.4761L43.1378 13.4785L43.1358 11.6636L47.3778 11.659L47.3823 15.7999C46.3943 16.6445 45.0158 17.3106 43.22 17.3125C40.2012 17.3414 38.1169 15.2477 38.1138 12.4104Z" fill="#002345"/>
</g>
<mask id="mask1_2322_6220" style="mask-type:luminance" maskUnits="userSpaceOnUse" x="0" y="0" width="121" height="42">
<path d="M120 1.10772e-05L0 0.131775L0.0450193 41.1318L120.045 41L120 1.10772e-05Z" fill="white"/>
</mask>
<g mask="url(#mask1_2322_6220)">
<path d="M49.5854 7.61786L54.0357 7.61297C55.2849 7.6116 56.2221 7.94287 56.8734 8.58118C57.4205 9.11736 57.7076 9.85832 57.7086 10.7785C57.7103 12.3122 56.8526 13.2844 55.6299 13.7459L58.0019 17.1429L55.5035 17.1457L53.3922 14.0806L51.7526 14.0824L51.756 17.1498L49.6219 17.1521L49.6115 7.61783L49.5854 7.61786ZM53.9106 12.2397C54.9516 12.2385 55.5496 11.7011 55.5487 10.8576C55.5477 9.96293 54.8966 9.50355 53.8556 9.50469L51.7216 9.50704L51.7246 12.2421L53.9106 12.2397Z" fill="#002345"/>
</g>
<mask id="mask2_2322_6220" style="mask-type:luminance" maskUnits="userSpaceOnUse" x="0" y="0" width="121" height="42">
<path d="M120 1.10772e-05L0 0.131775L0.0450193 41.1318L120.045 41L120 1.10772e-05Z" fill="white"/>
</mask>
<g mask="url(#mask2_2322_6220)">
<path d="M64.3671 7.52497L66.345 7.5228L70.5195 17.1292L68.2813 17.1316L67.3941 14.9855L63.2822 14.99L62.3998 17.1381L60.2137 17.1405L64.3671 7.52497ZM66.6374 13.1459L65.3328 10.0545L64.0349 13.1488L66.6374 13.1459Z" fill="#002345"/>
</g>
<mask id="mask3_2322_6220" style="mask-type:luminance" maskUnits="userSpaceOnUse" x="0" y="0" width="121" height="42">
<path d="M120 1.10772e-05L0 0.131775L0.0450193 41.1318L120.045 41L120 1.10772e-05Z" fill="white"/>
</mask>
<g mask="url(#mask3_2322_6220)">
<path d="M74.5691 7.59043L72.4351 7.59277L72.4456 17.1526L74.5796 17.1503L74.5691 7.59043Z" fill="#002345"/>
</g>
<mask id="mask4_2322_6220" style="mask-type:luminance" maskUnits="userSpaceOnUse" x="0" y="0" width="121" height="42">
<path d="M120 1.10772e-05L0 0.131775L0.0450193 41.1318L120.045 41L120 1.10772e-05Z" fill="white"/>
</mask>
<g mask="url(#mask4_2322_6220)">
<path d="M76.8071 7.58795L78.759 7.58581L83.3198 13.4599L83.3133 7.58081L85.4473 7.57846L85.4578 17.1383L83.6361 17.1403L78.9189 11.0619L78.9256 17.1455L76.8176 17.1478L76.8071 7.58795Z" fill="#002345"/>
</g>
<mask id="mask5_2322_6220" style="mask-type:luminance" maskUnits="userSpaceOnUse" x="0" y="0" width="121" height="42">
<path d="M120 1.10772e-05L0 0.131775L0.0450193 41.1318L120.045 41L120 1.10772e-05Z" fill="white"/>
</mask>
<g mask="url(#mask5_2322_6220)">
<path d="M87.3003 12.3564C87.2974 9.64691 89.3769 7.42081 92.3697 7.41752C94.1915 7.41552 95.2332 8.10453 96.145 8.97261L94.8714 10.431C94.116 9.76723 93.4909 9.35894 92.3719 9.36017C90.7323 9.36197 89.5627 10.6924 89.5645 12.3539C89.5663 13.9898 90.7129 15.3433 92.3784 15.3415C93.4975 15.3402 94.1737 14.9049 94.9276 14.214L96.2825 15.6439C95.2947 16.693 94.1763 17.2566 92.3025 17.2586C89.4138 17.2874 87.3034 15.117 87.3003 12.3564Z" fill="#002345"/>
</g>
<mask id="mask6_2322_6220" style="mask-type:luminance" maskUnits="userSpaceOnUse" x="0" y="0" width="121" height="42">
<path d="M120 1.10772e-05L0 0.131775L0.0450193 41.1318L120.045 41L120 1.10772e-05Z" fill="white"/>
</mask>
<g mask="url(#mask6_2322_6220)">
<path d="M97.9444 12.3447C97.9414 9.63519 100.125 7.40898 103.118 7.40569C106.111 7.4024 108.273 9.59829 108.276 12.3333C108.279 15.0428 106.096 17.269 103.103 17.2723C100.084 17.2756 97.9474 15.0797 97.9444 12.3447ZM106.038 12.3358C106.036 10.6999 104.812 9.34648 103.094 9.34836C101.376 9.35025 100.181 10.6807 100.183 12.3422C100.184 13.9781 101.409 15.3315 103.127 15.3296C104.844 15.3277 106.04 13.9972 106.038 12.3358Z" fill="#002345"/>
</g>
<mask id="mask7_2322_6220" style="mask-type:luminance" maskUnits="userSpaceOnUse" x="0" y="0" width="121" height="42">
<path d="M120 1.10772e-05L0 0.131775L0.0450193 41.1318L120.045 41L120 1.10772e-05Z" fill="white"/>
</mask>
<g mask="url(#mask7_2322_6220)">
<path d="M110.275 7.55121L112.591 7.54867L115.146 11.5845L117.692 7.54306L120.008 7.54052L120.019 17.1004L117.885 17.1027L117.878 10.8658L115.15 14.933L115.098 14.9331L112.387 10.8974L112.393 17.1087L110.285 17.1111L110.275 7.55121Z" fill="#002345"/>
</g>
<mask id="mask8_2322_6220" style="mask-type:luminance" maskUnits="userSpaceOnUse" x="0" y="0" width="121" height="42">
<path d="M120 1.10772e-05L0 0.131775L0.0450193 41.1318L120.045 41L120 1.10772e-05Z" fill="white"/>
</mask>
<g mask="url(#mask8_2322_6220)">
<path d="M37.9012 32.1438L39.1748 30.6598C40.0604 31.3746 40.9717 31.8081 42.0908 31.8069C42.9756 31.8059 43.4958 31.4731 43.4951 30.8852C43.4945 30.3484 43.1559 30.0931 41.5419 29.6859C39.5896 29.2024 38.3138 28.667 38.3117 26.7499C38.3097 25.0118 39.7138 23.86 41.7177 23.8578C43.1231 23.8563 44.3467 24.2895 45.3365 25.0552L44.2192 26.6412C43.3597 26.0543 42.5005 25.6973 41.6937 25.6982C40.887 25.6991 40.4449 26.0575 40.4455 26.5687C40.4462 27.2077 40.8628 27.4117 42.5549 27.8189C44.5333 28.3279 45.6271 29.0169 45.6289 30.7039C45.631 32.5954 44.1488 33.6706 42.0668 33.6729C40.5574 33.6745 39.0474 33.165 37.9012 32.1438Z" fill="#002345"/>
</g>
<mask id="mask9_2322_6220" style="mask-type:luminance" maskUnits="userSpaceOnUse" x="0" y="0" width="121" height="42">
<path d="M120 1.10772e-05L0 0.131775L0.0450193 41.1318L120.045 41L120 1.10772e-05Z" fill="white"/>
</mask>
<g mask="url(#mask9_2322_6220)">
<path d="M47.7554 23.979L49.8894 23.9767L49.8936 27.7597L53.8493 27.7554L53.8452 23.9723L55.9792 23.97L55.9897 33.5298L53.8557 33.5322L53.8514 29.698L49.8957 29.7023L49.8999 33.5365L47.7659 33.5388L47.7554 23.979Z" fill="#002345"/>
</g>
<mask id="mask10_2322_6220" style="mask-type:luminance" maskUnits="userSpaceOnUse" x="0" y="0" width="121" height="42">
<path d="M120 1.10772e-05L0 0.131775L0.0450193 41.1318L120.045 41L120 1.10772e-05Z" fill="white"/>
</mask>
<g mask="url(#mask10_2322_6220)">
<path d="M60.7161 23.9648L58.582 23.9671L58.5925 33.5269L60.7266 33.5246L60.7161 23.9648Z" fill="#002345"/>
</g>
<mask id="mask11_2322_6220" style="mask-type:luminance" maskUnits="userSpaceOnUse" x="0" y="0" width="121" height="42">
<path d="M120 1.10772e-05L0 0.131775L0.0450193 41.1318L120.045 41L120 1.10772e-05Z" fill="white"/>
</mask>
<g mask="url(#mask11_2322_6220)">
<path d="M63.3184 23.9619L67.3001 23.9575C69.6163 23.955 71.0232 25.3082 71.0253 27.2764C71.0277 29.4746 69.2853 30.6268 67.0993 30.6292L65.4857 30.631L65.4889 33.4938L63.3549 33.4962L63.3444 23.9619L63.3184 23.9619ZM67.1493 28.7888C68.2163 28.7876 68.8402 28.1479 68.8393 27.3044C68.8382 26.3586 68.161 25.8481 67.094 25.8493L65.4545 25.8511L65.4577 28.7651L67.1493 28.7632L67.1493 28.7888Z" fill="#002345"/>
</g>
<mask id="mask12_2322_6220" style="mask-type:luminance" maskUnits="userSpaceOnUse" x="0" y="0" width="121" height="42">
<path d="M120 1.10772e-05L0 0.131775L0.0450193 41.1318L120.045 41L120 1.10772e-05Z" fill="white"/>
</mask>
<g mask="url(#mask12_2322_6220)">
<path d="M72.9214 23.9514L76.9032 23.947C79.2194 23.9444 80.6262 25.2976 80.6283 27.2658C80.6308 29.4641 78.8884 30.6163 76.7023 30.6187L75.0888 30.6204L75.0919 33.4833L72.9579 33.4856L72.9474 23.9513L72.9214 23.9514ZM76.7783 28.7782C77.8454 28.777 78.4692 28.1373 78.4683 27.2938C78.4673 26.348 77.7901 25.8375 76.7231 25.8387L75.0575 25.8405L75.0607 28.7545L76.7783 28.7526L76.7783 28.7782Z" fill="#002345"/>
</g>
<mask id="mask13_2322_6220" style="mask-type:luminance" maskUnits="userSpaceOnUse" x="0" y="0" width="121" height="42">
<path d="M120 1.10772e-05L0 0.131775L0.0450193 41.1318L120.045 41L120 1.10772e-05Z" fill="white"/>
</mask>
<g mask="url(#mask13_2322_6220)">
<path d="M84.6584 23.9385L82.5244 23.9408L82.5349 33.5006L84.6689 33.4983L84.6584 23.9385Z" fill="#002345"/>
</g>
<mask id="mask14_2322_6220" style="mask-type:luminance" maskUnits="userSpaceOnUse" x="0" y="0" width="121" height="42">
<path d="M120 1.10772e-05L0 0.131775L0.0450193 41.1318L120.045 41L120 1.10772e-05Z" fill="white"/>
</mask>
<g mask="url(#mask14_2322_6220)">
<path d="M87.2612 23.9356L89.2391 23.9334L93.7999 29.8075L93.7934 23.9284L95.9014 23.9261L95.9119 33.486L94.0902 33.488L89.3991 27.4096L89.4057 33.4931L87.2717 33.4955L87.2612 23.9356Z" fill="#002345"/>
</g>
<mask id="mask15_2322_6220" style="mask-type:luminance" maskUnits="userSpaceOnUse" x="0" y="0" width="121" height="42">
<path d="M120 1.10772e-05L0 0.131775L0.0450193 41.1318L120.045 41L120 1.10772e-05Z" fill="white"/>
</mask>
<g mask="url(#mask15_2322_6220)">
<path d="M97.8326 28.7039C97.8296 25.9944 99.9872 23.7683 102.928 23.765C104.672 23.7631 105.739 24.222 106.755 25.0644L105.404 26.6507C104.648 26.0381 103.997 25.6809 102.852 25.6822C101.291 25.6839 100.069 27.04 100.071 28.6759C100.073 30.4141 101.297 31.6908 103.015 31.6889C103.796 31.688 104.498 31.5083 105.018 31.1243L105.017 29.7696L102.857 29.772L102.855 27.9571L107.071 27.9525L107.075 32.0934C106.087 32.938 104.708 33.6041 102.913 33.6061C99.92 33.6349 97.8357 31.5668 97.8326 28.7039Z" fill="#002345"/>
</g>
<mask id="mask16_2322_6220" style="mask-type:luminance" maskUnits="userSpaceOnUse" x="0" y="0" width="121" height="42">
<path d="M120 1.10772e-05L0 0.131775L0.0450193 41.1318L120.045 41L120 1.10772e-05Z" fill="white"/>
</mask>
<g mask="url(#mask16_2322_6220)">
<path d="M30.501 0.0982839L0 0.131775L0.0450193 41.1318L30.546 41.0983L30.501 0.0982839Z" fill="#002345"/>
</g>
<mask id="mask17_2322_6220" style="mask-type:luminance" maskUnits="userSpaceOnUse" x="0" y="0" width="121" height="42">
<path d="M120 1.10772e-05L0 0.131775L0.0450193 41.1318L120.045 41L120 1.10772e-05Z" fill="white"/>
</mask>
<g mask="url(#mask17_2322_6220)">
<path d="M10.5032 14.1533C10.5055 16.2493 12.043 18.0369 14.1253 18.3925L14.3596 18.4433L16.4132 16.3451L18.2369 18.0812L15.4294 20.9727L14.8829 20.9733C11.0572 20.9775 7.95693 17.9136 7.95281 14.1561C7.94868 10.3986 11.0683 7.32787 14.8939 7.32367C18.5634 7.31964 21.5853 10.128 21.8235 13.6808L19.247 13.6836C19.0104 11.5367 17.1348 9.8262 14.8706 9.82868C12.4503 9.83134 10.5006 11.7761 10.5032 14.1533Z" fill="white"/>
</g>
<mask id="mask18_2322_6220" style="mask-type:luminance" maskUnits="userSpaceOnUse" x="0" y="0" width="121" height="42">
<path d="M120 1.10772e-05L0 0.131775L0.0450193 41.1318L120.045 41L120 1.10772e-05Z" fill="white"/>
</mask>
<g mask="url(#mask18_2322_6220)">
<path d="M10.5032 14.1533C10.5055 16.2493 12.043 18.0369 14.1253 18.3925L14.3596 18.4433L16.4132 16.3451L18.2369 18.0812L15.4294 20.9727L14.8829 20.9733C11.0572 20.9775 7.95693 17.9136 7.95281 14.1561C7.94868 10.3986 11.0683 7.32787 14.8939 7.32367C18.5634 7.31964 21.5853 10.128 21.8235 13.6808L19.247 13.6836C19.0104 11.5367 17.1348 9.8262 14.8706 9.82868C12.4503 9.83134 10.5006 11.7761 10.5032 14.1533Z" fill="white"/>
</g>
<mask id="mask19_2322_6220" style="mask-type:luminance" maskUnits="userSpaceOnUse" x="0" y="0" width="121" height="42">
<path d="M120 1.10772e-05L0 0.131775L0.0450193 41.1318L120.045 41L120 1.10772e-05Z" fill="white"/>
</mask>
<g mask="url(#mask19_2322_6220)">
<path d="M23.2168 26.1786C23.2215 30.4473 19.7119 33.9019 15.3658 33.9067C11.0197 33.9115 7.50254 30.4646 7.49786 26.1959C7.49732 25.7102 7.54884 25.2245 7.62638 24.7387L10.1254 25.3495C10.0737 25.6051 10.0479 25.8863 10.0483 26.1675C10.0514 29.0304 12.4222 31.3794 15.363 31.3761C18.2778 31.3729 20.6695 29.0443 20.6663 26.1558C20.6649 24.8778 20.1952 23.7025 19.4135 22.8087L21.2332 21.0174C22.4579 22.3964 23.2146 24.1848 23.2168 26.1786Z" fill="white"/>
</g>
</g>
<defs>
<clipPath id="clip0_2322_6220">
<rect width="120" height="41" fill="white" transform="translate(0 0.131775) rotate(-0.0629126)"/>
</clipPath>
</defs>
</svg>
