<svg width="97" height="23" viewBox="0 0 97 23" fill="none" xmlns="http://www.w3.org/2000/svg">
<path d="M17.8303 21.7525L12.6259 21.7582L6.90737 12.3344C6.17155 11.1309 5.43543 9.65859 4.68854 7.92822C5.02582 9.3042 5.19499 10.476 5.19604 11.4331L5.20739 21.7664L0.023913 21.7721L0.000488281 0.438724L6.04438 0.432088L10.9007 8.24397C11.8677 9.79127 12.6037 11.1561 13.0982 12.3384C12.7709 10.5108 12.6009 8.65071 12.5988 6.73673L12.5919 0.424898L17.7964 0.419184L17.8199 21.7525L17.8303 21.7525Z" fill="#002345"/>
<path d="M35.2903 21.7333L34.1106 17.5303L28.5283 17.5364L27.2843 21.7421L22.0903 21.7478L28.4991 0.40743L35.2564 0.400011L41.8169 21.737L35.2904 21.7441L35.2903 21.7333ZM29.6145 12.8794L32.9827 12.8757L31.2865 6.68395L29.6145 12.8794Z" fill="#002345"/>
<path d="M62.8211 0.36975L56.3809 21.721L49.8648 21.7281L43.084 0.391422L49.8204 0.384025L53.128 12.0148C53.3491 12.7028 53.5491 13.38 53.7282 14.0464L57.5642 0.375522L62.8211 0.36975Z" fill="#002345"/>
<path d="M73.482 0.358038L73.5054 21.7022L67.1152 21.7092L67.0918 0.365055L73.482 0.358038Z" fill="#002345"/>
<path d="M77.3178 15.5152L83.2555 14.4119C83.7506 16.1317 85.0422 16.9905 87.099 16.9882C88.7041 16.9865 89.5113 16.5448 89.5104 15.6738C89.5099 15.2114 89.3207 14.8568 88.953 14.5991C88.5862 14.3415 87.9139 14.1164 86.9591 13.924C83.3067 13.2075 80.9553 12.2746 79.9257 11.1145C78.8857 9.9543 78.37 8.6 78.3683 7.03011C78.3661 5.01935 79.1092 3.34111 80.5978 2.00614C82.0863 0.681924 84.2261 0.012907 87.0168 0.00984262C91.2562 0.00518761 94.0598 1.74405 95.4276 5.23718L90.1411 6.88814C89.5936 5.45863 88.4701 4.7502 86.8023 4.75203C85.4065 4.75356 84.7145 5.19517 84.7155 6.08765C84.7159 6.4855 84.8736 6.78641 85.1887 7.01187C85.5037 7.22658 86.1126 7.44096 87.0252 7.63351C89.5236 8.1684 91.2872 8.65035 92.3366 9.05779C93.3859 9.47594 94.2579 10.1847 94.962 11.1839C95.6661 12.1939 96.0142 13.3763 96.0157 14.7419C96.0181 16.9032 95.1694 18.6569 93.461 19.992C91.7518 21.338 89.507 22.0071 86.7371 22.0102C81.648 22.0158 78.5188 19.8472 77.3178 15.5152Z" fill="#002345"/>
</svg>
