<svg width="121" height="28" viewBox="0 0 121 28" fill="none" xmlns="http://www.w3.org/2000/svg">
<g clip-path="url(#clip0_2322_6323)">
<path d="M21.4698 0.1082L5.56662 0.125663C2.49226 0.129038 0.00275268 2.63869 0.00614828 5.73113L0.0234986 21.5324C0.0268942 24.6248 2.52191 27.129 5.59626 27.1256L21.4994 27.1082C24.5738 27.1048 27.0633 24.5952 27.0599 21.5027L27.0425 5.70145C27.0391 2.60901 24.5441 0.104825 21.4698 0.1082Z" fill="#002345"/>
<path d="M13.6477 23.4353C12.487 23.4366 11.4736 23.3013 10.6074 23.0295C9.74118 22.7578 9.01304 22.3858 8.42294 21.9138C7.83284 21.4235 7.36242 20.8604 7.01167 20.2244C6.75206 19.7134 6.55425 19.1745 6.41824 18.6079C6.35815 18.3576 6.55277 18.1249 6.80877 18.1246L8.5852 18.1226C8.77862 18.1224 8.944 18.2582 9.00129 18.444C9.09462 18.7466 9.22331 19.0392 9.38736 19.3218C9.60881 19.6851 9.90395 20.003 10.2727 20.2754C10.6599 20.5477 11.13 20.7653 11.6829 20.9284C12.2357 21.0732 12.8898 21.1452 13.6452 21.1443C14.419 21.1435 15.1006 21.0701 15.69 20.924C16.2794 20.7596 16.7674 20.541 17.154 20.2678C17.559 19.9946 17.8626 19.6761 18.0649 19.3122C18.2671 18.9484 18.368 18.5483 18.3676 18.1119C18.367 17.5846 18.2744 17.1393 18.0897 16.7759C17.9235 16.4124 17.6284 16.0945 17.2044 15.8223C16.7987 15.55 16.2549 15.3051 15.5731 15.0877C14.9096 14.8703 14.0895 14.653 13.1127 14.4359C12.0439 14.2007 11.1132 13.9472 10.3207 13.6753C9.52823 13.3853 8.87376 13.0314 8.35746 12.6138C7.85953 12.178 7.48128 11.6602 7.22269 11.0605C6.98252 10.4608 6.86196 9.72452 6.86101 8.85186C6.86023 8.14272 7.01611 7.48802 7.32865 6.88768C7.64117 6.26915 8.08275 5.7323 8.65336 5.27712C9.24244 4.82193 9.95139 4.46661 10.7801 4.21116C11.6273 3.9375 12.576 3.80009 13.6261 3.79894C14.6579 3.79781 15.5608 3.93318 16.3349 4.20506C17.109 4.45875 17.7634 4.81258 18.2982 5.26653C18.8514 5.72048 19.2849 6.25637 19.5988 6.8742C19.8396 7.33433 20.0262 7.82663 20.1587 8.3511C20.2221 8.60205 20.027 8.83741 19.7696 8.83769L17.9907 8.83964C17.8005 8.83985 17.6368 8.70829 17.5781 8.52626C17.4929 8.26223 17.3838 8.01242 17.2508 7.77678C17.0661 7.43153 16.8079 7.1409 16.4761 6.9049C16.1625 6.6507 15.7662 6.45114 15.287 6.30621C14.8263 6.16126 14.2735 6.08914 13.6286 6.08985C12.9654 6.09058 12.3759 6.16395 11.8602 6.30998C11.3445 6.45599 10.9026 6.65648 10.5344 6.91143C10.1846 7.14817 9.91778 7.43937 9.7339 7.78503C9.55007 8.11252 9.45833 8.46712 9.45875 8.84901C9.45929 9.33985 9.55189 9.76707 9.73647 10.1305C9.92112 10.4757 10.207 10.7754 10.5942 11.0295C10.9814 11.2837 11.4699 11.5104 12.0597 11.7097C12.6679 11.9091 13.3866 12.0992 14.2158 12.2801C15.4136 12.5334 16.4365 12.8231 17.2843 13.1495C18.1506 13.4758 18.8511 13.8659 19.3859 14.3199C19.9391 14.7557 20.3358 15.2825 20.576 15.9004C20.8346 16.5183 20.9644 17.2545 20.9653 18.1091C20.9661 18.8545 20.801 19.5547 20.4702 20.2096C20.1392 20.8463 19.6609 21.4105 19.035 21.9021C18.4091 22.3755 17.6449 22.7491 16.7425 23.0228C15.84 23.2965 14.8084 23.434 13.6477 23.4353Z" fill="white"/>
<path d="M18.791 10.92C18.8727 11.036 19.0437 11.0367 19.1264 10.9214L20.1532 9.48979C20.2516 9.35254 20.154 9.16087 19.9857 9.16105L17.9512 9.16329C17.7839 9.16347 17.6864 9.35337 17.7832 9.49065L18.791 10.92Z" fill="white"/>
<path d="M7.43075 16.0084C7.51226 15.8923 7.68317 15.8912 7.76612 16.0063L8.79611 17.4357C8.89479 17.5728 8.79766 17.7646 8.62942 17.7648L6.59479 17.767C6.42752 17.7672 6.32967 17.5775 6.42612 17.4401L7.43075 16.0084Z" fill="white"/>
<path d="M33.3303 19.527L33.3191 9.27974L35.3132 9.27755L35.3152 11.0563C35.431 10.7727 35.5791 10.5082 35.7596 10.2631C35.9529 10.018 36.1721 9.81153 36.4171 9.6437C36.6751 9.46299 36.9589 9.32085 37.2685 9.21743C37.5782 9.11394 37.9073 9.06204 38.2557 9.06166C38.6946 9.06117 39.0754 9.11229 39.3982 9.2151C39.7338 9.30494 40.0179 9.43351 40.2505 9.60082C40.4959 9.76811 40.6961 9.96769 40.8513 10.1996C41.0193 10.4313 41.1487 10.6955 41.2394 10.9918C41.5484 10.3986 41.9675 9.92762 42.4963 9.57905C43.0251 9.23041 43.6573 9.05573 44.393 9.05492C45.4643 9.05374 46.2971 9.36865 46.8915 9.99956C47.4859 10.6305 47.7839 11.6098 47.7853 12.9374L47.7925 19.5111L45.6629 19.5134L45.6563 13.4425C45.6553 12.5272 45.4932 11.8766 45.1701 11.4902C44.8599 11.1039 44.3821 10.911 43.7368 10.9117C43.4528 10.912 43.1819 10.9704 42.9238 11.0866C42.6658 11.2029 42.4401 11.3707 42.2468 11.5901C42.0534 11.8094 41.8988 12.0802 41.783 12.4026C41.6672 12.7121 41.6095 13.0602 41.6099 13.4469L41.6166 19.5179L39.487 19.5202L39.4803 13.4492C39.4793 12.534 39.3172 11.8833 38.9941 11.497C38.6839 11.1106 38.2126 10.9178 37.5802 10.9185C37.2962 10.9188 37.0252 10.9771 36.7672 11.0934C36.5093 11.2097 36.2835 11.3775 36.0902 11.5969C35.8968 11.8162 35.7422 12.087 35.6264 12.4094C35.5106 12.7189 35.4529 13.0669 35.4534 13.4537L35.46 19.5246L33.3303 19.527Z" fill="#002345"/>
<path d="M53.4237 19.7175C52.8687 19.7181 52.3717 19.6413 51.9326 19.4871C51.4937 19.32 51.1255 19.0949 50.8284 18.8117C50.5312 18.5155 50.305 18.1742 50.1497 17.7877C49.9943 17.4012 49.9164 16.9759 49.9159 16.5119C49.9154 16.0092 49.9923 15.5708 50.1468 15.1969C50.3013 14.8229 50.5268 14.5133 50.8234 14.2681C51.12 14.0229 51.4941 13.842 51.9457 13.7255C52.3973 13.5962 52.9135 13.5311 53.4943 13.5305L56.6888 13.527L56.6881 12.9276C56.6877 12.528 56.6421 12.1994 56.5515 11.9417C56.4609 11.6711 56.3252 11.4586 56.1443 11.3041C55.9634 11.1367 55.7374 11.021 55.4663 10.9569C55.208 10.8798 54.9047 10.8415 54.5562 10.8418C54.2336 10.8422 53.9496 10.8748 53.7045 10.9394C53.4722 11.0042 53.2787 11.0882 53.1239 11.1914C52.9692 11.2947 52.8531 11.4237 52.7759 11.5785C52.6986 11.7204 52.6471 11.8815 52.6215 12.062L50.4918 12.0643C50.5172 11.639 50.6265 11.2457 50.8197 10.8846C51.0258 10.5106 51.3029 10.188 51.6511 9.91695C52.0122 9.64592 52.4444 9.43278 52.9476 9.27753C53.4508 9.12228 54.0186 9.04431 54.651 9.04362C55.2835 9.04293 55.8514 9.11322 56.3549 9.25441C56.8714 9.39568 57.3105 9.62072 57.6722 9.92971C58.034 10.2258 58.3119 10.6185 58.506 11.1081C58.7131 11.5849 58.817 12.1712 58.8177 12.8673L58.8221 16.8888C58.8227 17.4302 58.8297 17.907 58.8431 18.3195C58.8564 18.7191 58.8891 19.1121 58.9411 19.4988L57.0051 19.5009C56.9661 19.2302 56.94 18.9789 56.9268 18.747C56.9137 18.515 56.9069 18.2443 56.9066 17.9349C56.7649 18.1929 56.5845 18.4315 56.3653 18.6509C56.1461 18.8574 55.8881 19.0446 55.5915 19.2125C55.3077 19.3675 54.9787 19.4903 54.6045 19.5809C54.2432 19.6715 53.8496 19.717 53.4237 19.7175ZM53.9833 17.9961C54.3575 17.9957 54.706 17.9438 55.0285 17.8404C55.364 17.724 55.6543 17.569 55.8993 17.3753C56.1442 17.1688 56.3375 16.9237 56.4793 16.64C56.6209 16.3434 56.6915 16.0082 56.6911 15.6344L56.6904 15.0351L53.8832 15.0381C53.3153 15.0388 52.8766 15.1616 52.5671 15.4069C52.2576 15.6521 52.1031 16.0068 52.1036 16.4708C52.1041 16.9091 52.253 17.2763 52.5501 17.5724C52.8473 17.8556 53.325 17.9969 53.9833 17.9961Z" fill="#002345"/>
<path d="M61.4446 19.4961L61.4333 9.24886L63.4081 9.24669L63.41 11.0061C63.5129 10.7353 63.6482 10.4838 63.8157 10.2517C63.9962 10.0194 64.2025 9.81298 64.4346 9.6323C64.6796 9.45153 64.9505 9.30948 65.2472 9.206C65.5569 9.08972 65.886 9.0313 66.2344 9.03092C66.4797 9.03065 66.6797 9.0433 66.8346 9.06894C66.9896 9.09457 67.1252 9.12659 67.2413 9.16513L67.2434 11.0793C67.1143 11.0149 66.9529 10.97 66.7593 10.9445C66.5786 10.906 66.3397 10.8869 66.0429 10.8872C65.6686 10.8876 65.3266 10.9525 65.017 11.0817C64.7203 11.2109 64.4624 11.3916 64.2432 11.6239C64.037 11.8562 63.8694 12.1334 63.7407 12.4558C63.6249 12.7782 63.5672 13.1263 63.5676 13.5001L63.5742 19.4937L61.4446 19.4961Z" fill="#002345"/>
<path d="M73.3353 19.5796C72.7545 19.5803 72.2576 19.5228 71.8444 19.4073C71.4313 19.2788 71.089 19.0859 70.8177 18.8284C70.5464 18.5709 70.346 18.2424 70.2164 17.843C70.0998 17.4307 70.0412 16.9473 70.0406 16.3931L70.0347 11.0568L68.5827 11.0584L68.5807 9.24099L70.0327 9.2394L70.0302 6.9193L72.1598 6.91697L72.1624 9.23706L74.776 9.23419L74.778 11.0516L72.1643 11.0545L72.1699 16.1008C72.1702 16.3844 72.1963 16.6357 72.2482 16.8547C72.3 17.0609 72.3905 17.2283 72.5197 17.3571C72.649 17.4858 72.8168 17.5824 73.0234 17.6465C73.23 17.6979 73.4947 17.7234 73.8173 17.723C74.0109 17.7228 74.2045 17.7226 74.3981 17.7224C74.5917 17.7093 74.7853 17.6897 74.9789 17.6638L74.9809 19.4812C74.7356 19.5072 74.484 19.5268 74.2259 19.54C73.9806 19.5661 73.6838 19.5793 73.3353 19.5796Z" fill="#002345"/>
<path d="M85.331 19.4698L85.3183 7.94659L80.7883 7.95156L80.7861 5.9408L92.209 5.92825L92.2112 7.93902L87.6804 7.944L87.6931 19.4672L85.331 19.4698Z" fill="#002345"/>
<path d="M92.5462 19.4619L92.5349 9.21468L94.5094 9.21251L94.5113 10.972C94.6144 10.7011 94.7499 10.4496 94.9171 10.2175C95.0976 9.98526 95.3042 9.7788 95.5361 9.59812C95.7807 9.41735 96.0521 9.2753 96.3488 9.17182C96.6582 9.05554 96.9873 8.99713 97.3362 8.99674C97.581 8.99647 97.7815 9.00912 97.9363 9.03476C98.0911 9.06039 98.2269 9.09241 98.343 9.13095L98.3451 11.0451C98.2155 10.9808 98.0544 10.9358 97.861 10.9103C97.6801 10.8718 97.4409 10.8527 97.1441 10.853C96.7699 10.8535 96.4281 10.9183 96.1188 11.0475C95.8221 11.1767 95.5641 11.3575 95.3449 11.5897C95.1383 11.822 94.9712 12.0993 94.8421 12.4217C94.7264 12.744 94.6684 13.0921 94.6688 13.4659L94.6754 19.4595L92.5462 19.4619Z" fill="#002345"/>
<path d="M104.355 19.6616C103.657 19.6624 103 19.56 102.38 19.3545C101.772 19.1489 101.237 18.8272 100.771 18.3895C100.319 17.9517 99.9571 17.4043 99.6856 16.7472C99.4141 16.0902 99.2774 15.3169 99.2765 14.4276L99.276 14.0409C99.2751 13.1902 99.4038 12.4553 99.6613 11.8363C99.9187 11.2045 100.266 10.6756 100.705 10.2498C101.156 9.82392 101.672 9.50761 102.253 9.30074C102.846 9.09386 103.478 8.99001 104.149 8.98927C105.711 8.98756 106.912 9.40514 107.752 10.2421C108.592 11.079 109.012 12.2772 109.014 13.8369L109.015 14.9196L101.426 14.9279C101.44 15.4564 101.53 15.9074 101.699 16.281C101.867 16.6418 102.087 16.938 102.358 17.1697C102.642 17.4014 102.952 17.575 103.287 17.6907C103.636 17.7934 103.991 17.8446 104.353 17.8442C105.062 17.8434 105.611 17.7268 105.998 17.4943C106.385 17.2619 106.655 16.9458 106.81 16.5461L108.824 16.5439C108.721 17.0596 108.54 17.5109 108.283 17.8978C108.025 18.2849 107.703 18.6139 107.316 18.885C106.929 19.1432 106.484 19.337 105.981 19.4664C105.478 19.5959 104.936 19.661 104.355 19.6616ZM101.444 13.3425L106.981 13.3364C106.967 12.8595 106.89 12.46 106.747 12.138C106.605 11.8159 106.411 11.5583 106.165 11.3652C105.92 11.1721 105.63 11.0307 105.294 10.9408C104.958 10.8509 104.609 10.8062 104.249 10.8066C103.887 10.807 103.538 10.8589 103.203 10.9624C102.867 11.053 102.571 11.2016 102.313 11.4081C102.055 11.6146 101.843 11.8791 101.675 12.2015C101.52 12.511 101.443 12.8914 101.444 13.3425Z" fill="#002345"/>
<path d="M110.729 19.442L110.714 5.90796L112.844 5.90562L112.852 13.6587L117.106 9.18775L119.623 9.18498L115.582 13.443L120.022 19.4318L117.428 19.4346L114.093 14.9334L112.855 16.1722L112.858 19.4396L110.729 19.442Z" fill="#002345"/>
</g>
<defs>
<clipPath id="clip0_2322_6323">
<rect width="120" height="27" fill="white" transform="translate(0 0.131775) rotate(-0.0629126)"/>
</clipPath>
</defs>
</svg>
