<svg width="209" height="210" viewBox="0 0 209 210" fill="none" xmlns="http://www.w3.org/2000/svg">
<g clip-path="url(#clip0_1656_12597)">
<path d="M147.735 96.9402C149.608 107.027 147.861 117.45 142.802 126.375C137.743 135.3 129.697 142.153 120.08 145.727C110.464 149.301 99.8954 149.366 90.2356 145.912C80.5758 142.458 72.445 135.705 67.2755 126.844L46.3851 150.994C56.6898 164.077 71.0806 173.329 87.2599 177.274C103.439 181.219 120.474 179.629 135.644 172.759C150.813 165.888 163.244 154.133 170.95 139.37C178.656 124.607 181.193 107.687 178.157 91.313" fill="white"/>
<path d="M147.735 96.9401C148.991 103.761 148.599 110.783 146.591 117.422C144.584 124.061 141.019 130.124 136.194 135.106L164.021 150.014C170.356 141.765 174.887 132.277 177.322 122.165C179.757 112.053 180.041 101.542 178.156 91.3129" fill="white"/>
<path d="M62.0028 112.798C61.0969 107.841 61.0632 102.763 61.9032 97.7947L33.7564 82.7154C30.1266 94.2624 29.3798 106.523 31.5814 118.425C33.783 130.327 38.8659 141.509 46.386 150.993L67.2764 126.843C64.7146 122.504 62.93 117.751 62.0028 112.798Z" fill="white"/>
<path d="M96.94 62.0027C106.011 60.3274 115.38 61.5922 123.682 65.6128L142.261 40.4997C132.595 34.8542 121.78 31.4645 110.621 30.5835C99.4619 29.7025 88.2482 31.353 77.8164 35.4118C67.3846 39.4705 58.0041 45.8328 50.3749 54.0237C42.7457 62.2147 37.0648 72.0229 33.7562 82.7163L61.903 97.7956C63.3599 88.9533 67.5045 80.7742 73.7733 74.3702C80.0421 67.9662 88.1309 63.648 96.94 62.0027Z" fill="white"/>
<path d="M177.133 85.7811L178.156 91.3122L169.292 112.973L111.215 123.716L105.587 93.2947L170.579 81.273C172.046 81.0017 173.56 81.3242 174.789 82.1696C176.019 83.015 176.862 84.3141 177.133 85.7811Z" fill="white"/>
</g>
<defs>
<clipPath id="clip0_1656_12597">
<rect width="180" height="180" fill="white" transform="translate(0 32.7399) rotate(-10.4798)"/>
</clipPath>
</defs>
</svg>
