<svg width="28" height="28" viewBox="0 0 28 28" fill="none" xmlns="http://www.w3.org/2000/svg">
<path d="M27.5173 4.31848L25.0085 3.08676C24.7135 2.94192 24.362 2.98087 24.1044 3.18534L16.1242 9.54476C15.6872 9.89285 15.6896 10.5623 16.1278 10.9079L18.2225 12.5595C18.533 12.8054 18.97 12.8042 19.2794 12.5571L22.3215 10.1338C22.8837 9.68594 23.7083 10.0912 23.7083 10.8142V17.2089C23.7083 17.9307 22.8861 18.336 22.3239 17.8917L3.84986 3.28758C3.59224 3.08432 3.24193 3.04659 2.94699 3.19143L0.481534 4.40367C0.186594 4.54851 0 4.85157 0 5.18263V22.9038C0 23.2361 0.187798 23.5379 0.482738 23.6827L2.99273 24.9132C3.28767 25.0581 3.63919 25.0191 3.89681 24.8147L11.8144 18.5051C12.2514 18.1571 12.249 17.4876 11.8108 17.142L9.71615 15.4904C9.40556 15.2445 8.96857 15.2457 8.65919 15.4928L5.67969 17.8674C5.1175 18.3153 4.29288 17.91 4.29288 17.187V10.8787C4.29288 10.157 5.1151 9.75167 5.67729 10.1971L24.1405 24.8049C24.3981 25.0094 24.7484 25.0459 25.0434 24.9011L27.5185 23.684C27.8134 23.5391 28 23.2361 28 22.905V5.09743C28 4.76516 27.8122 4.46331 27.5173 4.31848Z" fill="#0068FF"/>
</svg>
