<svg width="62" height="20" viewBox="0 0 62 20" fill="none" xmlns="http://www.w3.org/2000/svg">
<path d="M55.4459 5.96374L55.4414 2.98516L55.4369 0.0065918L55.7039 0.262775C55.8509 0.403887 56.5286 1.06465 57.2103 1.73146C57.8919 2.39828 58.4624 2.94729 58.4785 2.95151C58.4943 2.95574 59.179 2.29803 60.0002 1.49011C60.8213 0.68219 61.5033 0.026609 61.5158 0.0332649C61.5282 0.0399208 61.54 1.37534 61.5451 5.95704L59.9065 5.95884L59.9053 4.86745C59.9046 4.26719 59.8925 3.77608 59.8783 3.7761C59.864 3.77611 59.5466 4.08356 58.4946 5.14185L57.0817 3.73369L57.0844 5.96194L55.4459 5.96374Z" fill="#002345"/>
<path fill-rule="evenodd" clip-rule="evenodd" d="M0.0243451 1.47727C0.0367862 1.47726 0.569901 1.99841 2.37099 3.79389L2.37649 8.81124L3.23371 8.79878C3.85606 8.7896 4.14492 8.77382 4.28811 8.74032C4.39641 8.71504 4.60844 8.64841 4.75889 8.59216C4.90903 8.53591 5.15195 8.41468 5.29842 8.32297C5.44488 8.23125 5.65044 8.07399 5.75502 7.97383C5.8599 7.87367 5.99235 7.73467 6.15296 7.53866L6.95248 8.316C7.67848 9.02157 7.75018 9.10031 7.73053 9.16915C7.71874 9.2107 7.55751 9.39611 7.37231 9.58064C7.1468 9.80583 6.92549 9.98979 6.70201 10.138C6.51856 10.2601 6.25929 10.4113 6.12584 10.4745C5.9924 10.5377 5.75338 10.6308 5.59504 10.6816C5.4367 10.7321 5.19098 10.7951 5.049 10.821C4.90702 10.8472 4.64791 10.8827 4.47254 10.9002C4.28807 10.9185 3.28278 10.9327 0.0119729 10.936L0.00677988 6.20664C0.00392375 3.6055 0.011904 1.47728 0.0243451 1.47727L0.0243451 1.47727ZM35.4774 4.75222C35.6864 4.95844 37.9558 7.2036 40.5203 9.74099C43.0847 12.2787 45.1832 14.3691 45.1832 14.3867C45.1833 14.4079 44.736 14.4208 42.422 14.4346L37.3006 9.36406L37.3051 10.895L35.0596 10.8975L35.0509 7.65881C35.0461 5.76162 35.0537 4.41102 35.0697 4.39857C35.0849 4.38703 35.2681 4.54599 35.4774 4.75222ZM48.871 1.42788C48.9378 1.42568 49.1459 1.43728 49.3338 1.45375C49.5216 1.46991 49.8084 1.51204 49.9711 1.54733C50.1338 1.58232 50.3697 1.64421 50.4947 1.685C50.6201 1.72579 50.9 1.84523 51.1171 1.95079C51.3341 2.05606 51.6347 2.22883 51.7851 2.33447C51.9354 2.44011 52.2163 2.68324 52.4095 2.87493C52.658 3.12174 52.8282 3.32467 52.9926 3.57157C53.1203 3.76303 53.2856 4.04933 53.3602 4.20781C53.4347 4.36598 53.5327 4.60476 53.578 4.7381C53.6231 4.87145 53.6858 5.1033 53.7172 5.25333C53.7487 5.40336 53.7884 5.68647 53.8059 5.88229C53.8274 6.12298 53.828 6.35157 53.8076 6.58715C53.7911 6.77876 53.7562 7.04164 53.7303 7.17082C53.704 7.3 53.6354 7.54897 53.5777 7.72426C53.5199 7.89925 53.3949 8.19194 53.2998 8.37424C53.205 8.55655 53.1136 8.71005 53.0969 8.71553C53.0802 8.721 52.6795 8.34037 51.3469 7.01428L51.3942 6.75654C51.4202 6.61463 51.4411 6.37601 51.441 6.22595C51.4408 6.07588 51.426 5.87126 51.4083 5.77124C51.3903 5.67122 51.3473 5.50058 51.3123 5.39239C51.2773 5.2842 51.2076 5.1136 51.1574 5.01361C51.1073 4.91362 51.0106 4.75002 50.9422 4.65005C50.8738 4.55008 50.7356 4.38834 50.635 4.29053C50.5342 4.19272 50.3562 4.04982 50.2393 3.97295C50.1224 3.89607 49.9071 3.78899 49.7611 3.73458C49.6093 3.67836 49.375 3.62041 49.2148 3.59997C48.9975 3.57171 48.8758 3.57184 48.6762 3.59995C48.5345 3.61982 48.3364 3.66399 48.0543 3.7601L47.2569 2.96457C46.8182 2.52698 46.4634 2.15539 46.4685 2.13871C46.4734 2.12203 46.5998 2.04428 46.749 1.9659C46.8982 1.88752 47.1842 1.76867 47.3844 1.70175C47.5846 1.63484 47.8577 1.55814 47.9911 1.53131C48.1246 1.50449 48.35 1.47089 48.4917 1.4571C48.6334 1.4433 48.8043 1.43038 48.871 1.42788ZM12.7922 3.60843C13.9627 4.77039 15.8333 6.62066 18.9776 9.71766L18.9784 11.1956C18.9788 12.1496 18.9684 12.679 18.9487 12.6887C18.9321 12.6969 17.5891 11.3923 13.01 6.87447L13.0043 9.08757C13.0004 10.5137 12.9876 11.3116 12.9682 11.331C12.9479 11.3514 12.5536 10.9783 10.6304 9.05986L10.6211 5.29822C10.6161 3.22914 10.6237 1.52717 10.6379 1.51564C10.6525 1.5044 11.6218 2.44618 12.7922 3.60843ZM23.6423 3.80085L23.6465 7.58281C23.6498 10.5781 23.6428 11.3687 23.6127 11.3833C23.5894 11.3948 23.1301 10.9576 21.281 9.1088L21.272 5.31684C21.2665 3.06253 21.2742 1.51609 21.2906 1.50333C21.3057 1.49149 21.8413 2.00356 23.6423 3.80085ZM3.88374 1.66312C4.30128 1.67296 4.64268 1.69715 4.82661 1.72999C4.98503 1.75831 5.23089 1.81473 5.37294 1.8555C5.51469 1.89597 5.74692 1.97878 5.889 2.03896C6.03077 2.09944 6.25635 2.21105 6.38995 2.28731C6.52355 2.36356 6.7352 2.50278 6.86063 2.59662C6.98575 2.69046 7.18256 2.85365 7.29768 2.95933C7.4131 3.06501 7.59387 3.26732 7.70023 3.40909C7.80629 3.55055 7.96132 3.80291 8.04465 3.96956C8.12798 4.13621 8.2442 4.4156 8.30265 4.59076C8.36111 4.76593 8.43605 5.03869 8.4696 5.1969C8.50285 5.35512 8.54595 5.64186 8.56528 5.83344C8.58522 6.03229 8.59161 6.31878 8.58027 6.50038C8.56954 6.67562 8.55455 6.84268 8.54761 6.8718C8.54036 6.90091 8.52066 6.92488 8.50397 6.9249C8.48728 6.92491 7.28496 5.74966 5.83202 4.31305C4.37938 2.87644 3.1992 1.68933 3.2098 1.67447C3.22041 1.6599 3.52172 1.65472 3.88374 1.66312ZM16.5697 1.641L18.9366 1.6384L18.9394 4.16981C18.9416 6.16462 18.9343 6.70517 18.9042 6.72006C18.8809 6.73191 18.4265 6.29919 16.5728 4.44526L16.5697 1.641ZM25.8608 1.62504L28.0805 1.63715C29.8278 1.64675 30.3746 1.65919 30.6496 1.69527C30.8414 1.72022 31.0872 1.76179 31.1959 1.78744C31.3042 1.81278 31.4751 1.86231 31.5753 1.89707C31.6755 1.93182 31.8461 2.00894 31.9548 2.06824C32.0632 2.12785 32.2341 2.24134 32.3344 2.32036C32.4346 2.39937 32.5849 2.53806 32.6685 2.62831C32.752 2.71826 32.8842 2.88728 32.9626 3.0033C33.0407 3.11933 33.1526 3.31656 33.211 3.44171C33.2694 3.56655 33.3531 3.7917 33.3967 3.94172C33.4402 4.09174 33.4893 4.29632 33.5055 4.39635C33.5217 4.49637 33.5353 4.74859 33.5359 4.95717C33.5364 5.16544 33.5161 5.45892 33.4904 5.60902C33.4651 5.75911 33.4153 5.97047 33.3802 6.07904C33.3451 6.18731 33.2652 6.37839 33.2025 6.50366C33.1402 6.62864 33.0284 6.81308 32.9539 6.91321C32.8796 7.01333 32.7248 7.18873 32.6099 7.30285C32.4947 7.41696 32.2983 7.57786 32.1733 7.66045C32.0481 7.74275 31.8434 7.84999 31.7184 7.89833C31.5932 7.94667 31.3714 8.01482 30.96 8.11289L30.7247 7.90306C30.595 7.78739 30.2447 7.45036 29.9461 7.15358C29.6156 6.82502 29.4108 6.59908 29.422 6.57603C29.4326 6.5551 29.4718 6.53838 29.5094 6.53864C29.5467 6.5389 29.7005 6.50357 29.8507 6.46035C30.0008 6.41684 30.2259 6.32807 30.3511 6.26336C30.4761 6.19834 30.6604 6.07172 30.7605 5.98187C30.8663 5.88687 30.9829 5.74365 31.0396 5.6393C31.1065 5.51553 31.1473 5.38482 31.1711 5.21745C31.1994 5.01915 31.1972 4.93336 31.1603 4.74756C31.1352 4.62238 31.0826 4.45267 31.043 4.36995C31.0032 4.28753 30.9093 4.15333 30.8342 4.07186C30.7589 3.9904 30.6292 3.8911 30.5457 3.85118C30.4622 3.81125 30.2913 3.76536 30.1663 3.74943C30.041 3.73319 29.5527 3.72009 28.2242 3.72003L28.2257 4.53099C28.2268 4.97694 28.2169 5.35166 28.2039 5.3635C28.1912 5.37534 27.6578 4.87116 25.8576 3.10114L25.8608 1.62504ZM37.1368 1.61872C38.1333 1.61793 39.1738 1.63043 39.449 1.6468C39.7246 1.66287 40.0797 1.69795 40.2381 1.72476C40.3968 1.75126 40.6357 1.80921 40.7693 1.85362C40.9028 1.89804 41.1011 1.98423 41.2095 2.04474C41.3182 2.10556 41.4991 2.23117 41.6118 2.32381C41.7248 2.41676 41.8888 2.57999 41.9764 2.6866C42.0642 2.79352 42.1803 2.95377 42.2344 3.04254C42.2885 3.13161 42.38 3.31341 42.4381 3.44673C42.4959 3.58006 42.5711 3.79826 42.6052 3.93161C42.6394 4.06497 42.6815 4.30048 42.6987 4.45446C42.7198 4.64574 42.72 4.84825 42.6988 5.09111C42.682 5.28727 42.6474 5.53621 42.622 5.64446C42.5966 5.75303 42.5407 5.93044 42.4977 6.03871C42.4547 6.14729 42.3681 6.32474 42.3055 6.43304C42.2428 6.54164 42.1043 6.73278 41.9976 6.8578C41.8913 6.98313 41.6954 7.16827 41.5629 7.26967C41.4301 7.37108 41.2876 7.46461 41.2458 7.47738C41.1766 7.49899 41.1031 7.43419 40.4029 6.73374C39.9809 6.3116 39.6358 5.9594 39.6358 5.95091C39.6361 5.94272 39.7135 5.89474 39.8078 5.84461C39.9024 5.79449 40.0328 5.69218 40.0976 5.61692C40.1625 5.54197 40.2455 5.4191 40.2818 5.34387C40.3378 5.22861 40.3481 5.15553 40.3477 4.87329C40.3474 4.56012 40.3416 4.52678 40.2516 4.34286C40.1901 4.21711 40.0947 4.08959 39.9857 3.98754C39.8696 3.87914 39.7652 3.81255 39.6562 3.77811C39.5233 3.73612 39.319 3.72604 37.3424 3.70638L36.319 2.68615C35.7561 2.125 35.3019 1.6559 35.3104 1.64316C35.3186 1.63072 36.1406 1.61981 37.1368 1.61872ZM44.9073 3.55013C44.9189 3.55012 45.3074 3.92834 46.613 5.23081L46.5655 5.36729C46.5392 5.4425 46.499 5.59261 46.4761 5.70087C46.4528 5.80942 46.434 6.05834 46.4339 6.25418C46.4338 6.45033 46.4535 6.70254 46.4773 6.81499C46.5014 6.92774 46.5532 7.10837 46.5921 7.21655C46.6314 7.32504 46.7245 7.5226 46.7996 7.65591C46.8956 7.82679 47.0211 7.98339 47.2244 8.18598C47.4212 8.38222 47.5855 8.51421 47.7407 8.60075C47.8661 8.67034 48.0777 8.76439 48.2112 8.80911C48.4076 8.87499 48.5269 8.89335 48.8334 8.90423C49.1205 8.91452 49.2646 8.90557 49.4251 8.8672C49.5419 8.83948 49.733 8.77652 50.0621 8.63791L50.8516 9.41769C51.2856 9.8465 51.645 10.2108 51.6499 10.2275C51.6551 10.2441 51.5735 10.3079 51.4686 10.3686C51.3637 10.4297 51.2029 10.5172 51.111 10.5628C51.0195 10.6086 50.8214 10.6934 50.6713 10.7512C50.5211 10.809 50.2618 10.8884 50.0949 10.9277C49.9281 10.967 49.655 11.0158 49.4881 11.036C49.2973 11.0592 49.0163 11.0662 48.7296 11.055C48.4561 11.0441 48.1536 11.0117 47.9709 10.9737C47.8039 10.939 47.5307 10.8653 47.3638 10.8103C47.1968 10.755 46.9169 10.6386 46.7415 10.5512C46.5663 10.4638 46.3067 10.3134 46.1645 10.2165C46.0227 10.12 45.8041 9.95195 45.6786 9.84356C45.5535 9.73516 45.3579 9.54014 45.2439 9.41021C45.13 9.27997 44.9547 9.05097 44.854 8.90102C44.7534 8.75106 44.6054 8.49202 44.5251 8.32537C44.4448 8.15872 44.3435 7.91327 44.3002 7.77992C44.2567 7.64658 44.1933 7.4217 44.1598 7.27986C44.126 7.13832 44.0826 6.8449 44.0635 6.62816C44.0374 6.3317 44.0375 6.14404 44.0639 5.87025C44.0831 5.67015 44.1241 5.39058 44.1548 5.24867C44.1853 5.10706 44.247 4.88174 44.2915 4.7483C44.3362 4.61486 44.4267 4.38981 44.493 4.24786C44.5593 4.10621 44.675 3.89114 44.7501 3.7701C44.8249 3.64935 44.8958 3.55014 44.9073 3.55013ZM28.2293 8.34326L28.2318 10.905L25.865 10.9076L25.8575 8.48744C25.8529 7.05925 25.8609 6.0585 25.8772 6.04575C25.8924 6.03391 26.4279 6.54627 28.2293 8.34326Z" fill="#002345"/>
<path d="M23.6357 19.0454C23.3232 19.0454 23.0518 18.9723 22.8214 18.8261C22.5911 18.6778 22.4138 18.4735 22.2896 18.2131C22.1654 17.9527 22.1033 17.6532 22.1033 17.3146C22.1033 16.9761 22.1644 16.6756 22.2866 16.4132C22.4108 16.1508 22.583 15.9444 22.8034 15.7942C23.0237 15.644 23.2792 15.5688 23.5696 15.5688C23.7499 15.5688 23.9252 15.6029 24.0955 15.671C24.2657 15.7371 24.419 15.8383 24.5552 15.9745C24.6914 16.1107 24.7986 16.284 24.8767 16.4943C24.9548 16.7027 24.9939 16.9511 24.9939 17.2395V17.4138H22.3707V17.0713H24.7836L24.6063 17.2035C24.6063 16.9591 24.5642 16.7407 24.4801 16.5484C24.3979 16.3561 24.2798 16.2039 24.1255 16.0917C23.9713 15.9795 23.786 15.9234 23.5696 15.9234C23.3553 15.9234 23.167 15.9805 23.0047 16.0947C22.8425 16.2069 22.7163 16.3571 22.6261 16.5454C22.538 16.7317 22.4939 16.936 22.4939 17.1584V17.3597C22.4939 17.6281 22.54 17.8625 22.6321 18.0628C22.7263 18.2612 22.8585 18.4154 23.0288 18.5256C23.201 18.6358 23.4034 18.6908 23.6357 18.6908C23.794 18.6908 23.9332 18.6658 24.0534 18.6157C24.1736 18.5656 24.2747 18.4985 24.3569 18.4144C24.439 18.3283 24.5011 18.2351 24.5432 18.135L24.9128 18.2582C24.8607 18.3984 24.7765 18.5286 24.6604 18.6488C24.5462 18.767 24.4019 18.8631 24.2277 18.9372C24.0554 19.0094 23.8581 19.0454 23.6357 19.0454Z" fill="#002345"/>
<path d="M21.1539 17.1134V17.48H19.1798V17.1134H21.1539ZM19.2759 15.614V18.9734H18.8883V15.614H19.2759ZM21.4424 15.614V18.9734H21.0518V15.614H21.4424Z" fill="#002345"/>
<path d="M17.7645 17.1134V17.48H15.7904V17.1134H17.7645ZM15.8865 15.614V18.9734H15.4989V15.614H15.8865ZM18.053 15.614V18.9734H17.6624V15.614H18.053Z" fill="#002345"/>
<path d="M13.4916 19.0454C13.1791 19.0454 12.9076 18.9723 12.6773 18.8261C12.4469 18.6778 12.2696 18.4735 12.1454 18.2131C12.0212 17.9527 11.9591 17.6532 11.9591 17.3146C11.9591 16.9761 12.0202 16.6756 12.1424 16.4132C12.2666 16.1508 12.4389 15.9444 12.6592 15.7942C12.8796 15.644 13.135 15.5688 13.4255 15.5688C13.6057 15.5688 13.781 15.6029 13.9513 15.671C14.1216 15.7371 14.2748 15.8383 14.411 15.9745C14.5472 16.1107 14.6544 16.284 14.7325 16.4943C14.8107 16.7027 14.8497 16.9511 14.8497 17.2395V17.4138H12.2265V17.0713H14.6394L14.4621 17.2035C14.4621 16.9591 14.42 16.7407 14.3359 16.5484C14.2538 16.3561 14.1356 16.2039 13.9813 16.0917C13.8271 15.9795 13.6418 15.9234 13.4255 15.9234C13.2111 15.9234 13.0228 15.9805 12.8605 16.0947C12.6983 16.2069 12.5721 16.3571 12.4819 16.5454C12.3938 16.7317 12.3497 16.936 12.3497 17.1584V17.3597C12.3497 17.6281 12.3958 17.8625 12.488 18.0628C12.5821 18.2612 12.7143 18.4154 12.8846 18.5256C13.0569 18.6358 13.2592 18.6908 13.4916 18.6908C13.6498 18.6908 13.789 18.6658 13.9092 18.6157C14.0294 18.5656 14.1306 18.4985 14.2127 18.4144C14.2948 18.3283 14.3569 18.2351 14.399 18.135L14.7686 18.2582C14.7165 18.3984 14.6324 18.5286 14.5162 18.6488C14.402 18.767 14.2578 18.8631 14.0835 18.9372C13.9112 19.0094 13.7139 19.0454 13.4916 19.0454Z" fill="#002345"/>
<path d="M8.18518 19.9289V18.6068H8.47364C8.54576 18.5247 8.60886 18.4365 8.66295 18.3424C8.71703 18.2482 8.76411 18.1401 8.80417 18.0179C8.84424 17.8957 8.87829 17.7534 8.90633 17.5912C8.93438 17.4289 8.95842 17.2396 8.97845 17.0233L9.09864 15.614H11.0878V18.6068H11.5866V19.9289H11.196V18.9734H8.57581V19.9289H8.18518ZM8.92436 18.6068H10.6972V15.9836H9.46222L9.36006 17.0233C9.32601 17.3758 9.27693 17.6833 9.21282 17.9457C9.14872 18.2082 9.05257 18.4285 8.92436 18.6068Z" fill="#002345"/>
<path d="M5.34265 18.9734V15.614H6.66477C7.02134 15.616 7.30279 15.6941 7.50912 15.8484C7.71545 16.0026 7.81861 16.211 7.81861 16.4734C7.81861 16.6737 7.76052 16.833 7.64433 16.9512C7.53015 17.0693 7.37691 17.1535 7.1846 17.2036C7.3128 17.2276 7.43199 17.2757 7.54217 17.3478C7.65435 17.4199 7.7455 17.5161 7.81561 17.6362C7.88572 17.7544 7.92078 17.8967 7.92078 18.0629C7.92078 18.2392 7.87671 18.3965 7.78856 18.5347C7.70243 18.6709 7.58023 18.7781 7.42198 18.8562C7.26373 18.9343 7.07542 18.9734 6.85707 18.9734H5.34265ZM5.71525 18.6098H6.85707C7.0614 18.6118 7.22366 18.5607 7.34385 18.4566C7.46405 18.3504 7.52414 18.2092 7.52414 18.0329C7.52414 17.8446 7.46705 17.6943 7.35287 17.5822C7.24069 17.468 7.09045 17.4109 6.90215 17.4109H5.71525V18.6098ZM5.71525 17.0683H6.68881C6.91517 17.0663 7.09546 17.0143 7.22967 16.9121C7.36389 16.8079 7.42999 16.6697 7.42799 16.4974C7.42799 16.3332 7.36088 16.206 7.22667 16.1158C7.09245 16.0237 6.90515 15.9776 6.66477 15.9776H5.71525V17.0683Z" fill="#002345"/>
<path d="M4.11654 18.9734V15.614H4.50416V18.9734H4.11654ZM4.31185 15.0401C4.23172 15.0401 4.16261 15.0131 4.10452 14.959C4.04843 14.9029 4.02039 14.8358 4.02039 14.7576C4.02039 14.6815 4.04843 14.6164 4.10452 14.5623C4.16261 14.5082 4.23172 14.4812 4.31185 14.4812C4.39198 14.4812 4.46009 14.5082 4.51618 14.5623C4.57227 14.6164 4.60031 14.6815 4.60031 14.7576C4.60031 14.8358 4.57227 14.9029 4.51618 14.959C4.46009 15.0131 4.39198 15.0401 4.31185 15.0401Z" fill="#002345"/>
<path d="M3.22416 14.4961V18.9733H2.81851V14.8657H0.408654V18.9733H0V14.4961H3.22416Z" fill="#002345"/>
</svg>
