<svg width="70" height="24" viewBox="0 0 70 24" fill="none" xmlns="http://www.w3.org/2000/svg">
<g clip-path="url(#clip0_1826_4040)">
<mask id="mask0_1826_4040" style="mask-type:luminance" maskUnits="userSpaceOnUse" x="0" y="0" width="70" height="24">
<path d="M69.2308 0H0V24H69.2308V0Z" fill="white"/>
</mask>
<g mask="url(#mask0_1826_4040)">
<path d="M21.9808 7.21176C21.9808 5.62572 23.227 4.32397 24.9236 4.32397C25.9296 4.32397 26.5452 4.5933 27.1307 5.08707L26.35 6.01475C25.9146 5.65565 25.5392 5.44617 24.8786 5.44617C23.9777 5.44617 23.2721 6.23919 23.2721 7.19679C23.2721 8.21425 23.9777 8.96238 24.9687 8.96238C25.4191 8.96238 25.8245 8.85764 26.1248 8.6332V7.84018H24.8786V6.77784H27.3259V9.20178C26.7554 9.69555 25.9596 10.0846 24.9236 10.0846C23.182 10.0995 21.9808 8.8726 21.9808 7.21176Z" fill="#002345"/>
</g>
<mask id="mask1_1826_4040" style="mask-type:luminance" maskUnits="userSpaceOnUse" x="0" y="0" width="70" height="24">
<path d="M69.2308 0H0V24H69.2308V0Z" fill="white"/>
</mask>
<g mask="url(#mask1_1826_4040)">
<path d="M28.6022 4.4137H31.1696C31.8903 4.4137 32.4308 4.60821 32.8062 4.98227C33.1215 5.29649 33.2866 5.7304 33.2866 6.26906C33.2866 7.16681 32.7912 7.73539 32.0855 8.00472L33.4518 9.99474H32.0104L30.7943 8.19923H29.8484V9.99474H28.6172V4.4137H28.6022ZM31.0945 7.12193C31.6951 7.12193 32.0404 6.80771 32.0404 6.31395C32.0404 5.79026 31.6651 5.52093 31.0645 5.52093H29.8333V7.12193H31.0945Z" fill="#002345"/>
</g>
<mask id="mask2_1826_4040" style="mask-type:luminance" maskUnits="userSpaceOnUse" x="0" y="0" width="70" height="24">
<path d="M69.2308 0H0V24H69.2308V0Z" fill="white"/>
</mask>
<g mask="url(#mask2_1826_4040)">
<path d="M37.1303 4.36914H38.2714L40.6737 9.99508H39.3824L38.872 8.73822H36.4997L35.9892 9.99508H34.728L37.1303 4.36914ZM38.4365 7.66091L37.6858 5.85044L36.9351 7.66091H38.4365Z" fill="#002345"/>
</g>
<mask id="mask3_1826_4040" style="mask-type:luminance" maskUnits="userSpaceOnUse" x="0" y="0" width="70" height="24">
<path d="M69.2308 0H0V24H69.2308V0Z" fill="white"/>
</mask>
<g mask="url(#mask3_1826_4040)">
<path d="M43.0158 4.4137H41.7847V10.0097H43.0158V4.4137Z" fill="#002345"/>
</g>
<mask id="mask4_1826_4040" style="mask-type:luminance" maskUnits="userSpaceOnUse" x="0" y="0" width="70" height="24">
<path d="M69.2308 0H0V24H69.2308V0Z" fill="white"/>
</mask>
<g mask="url(#mask4_1826_4040)">
<path d="M44.3071 4.4137H45.4332L48.0607 7.85509V4.4137H49.2919V10.0097H48.2409L45.5233 6.44861V10.0097H44.3071V4.4137Z" fill="#002345"/>
</g>
<mask id="mask5_1826_4040" style="mask-type:luminance" maskUnits="userSpaceOnUse" x="0" y="0" width="70" height="24">
<path d="M69.2308 0H0V24H69.2308V0Z" fill="white"/>
</mask>
<g mask="url(#mask5_1826_4040)">
<path d="M50.3578 7.21176C50.3578 5.62572 51.5589 4.32397 53.2856 4.32397C54.3366 4.32397 54.9371 4.72796 55.4626 5.23669L54.7269 6.08956C54.2915 5.70053 53.9312 5.46113 53.2856 5.46113C52.3397 5.46113 51.664 6.23919 51.664 7.21176C51.664 8.16936 52.3247 8.96238 53.2856 8.96238C53.9312 8.96238 54.3216 8.70801 54.757 8.30402L55.5377 9.14193C54.9672 9.7554 54.3216 10.0846 53.2405 10.0846C51.5739 10.0995 50.3578 8.82772 50.3578 7.21176Z" fill="#002345"/>
</g>
<mask id="mask6_1826_4040" style="mask-type:luminance" maskUnits="userSpaceOnUse" x="0" y="0" width="70" height="24">
<path d="M69.2308 0H0V24H69.2308V0Z" fill="white"/>
</mask>
<g mask="url(#mask6_1826_4040)">
<path d="M56.4987 7.21176C56.4987 5.62572 57.7599 4.32397 59.4865 4.32397C61.2131 4.32397 62.4593 5.61076 62.4593 7.21176C62.4593 8.79779 61.1981 10.0995 59.4715 10.0995C57.7298 10.0995 56.4987 8.81275 56.4987 7.21176ZM61.1681 7.21176C61.1681 6.25415 60.4624 5.46113 59.4715 5.46113C58.4805 5.46113 57.7899 6.23919 57.7899 7.21176C57.7899 8.16936 58.4956 8.96238 59.4865 8.96238C60.4774 8.96238 61.1681 8.18432 61.1681 7.21176Z" fill="#002345"/>
</g>
<mask id="mask7_1826_4040" style="mask-type:luminance" maskUnits="userSpaceOnUse" x="0" y="0" width="70" height="24">
<path d="M69.2308 0H0V24H69.2308V0Z" fill="white"/>
</mask>
<g mask="url(#mask7_1826_4040)">
<path d="M63.6155 4.4137H64.9517L66.4231 6.77779L67.8945 4.4137H69.2308V10.0097H67.9996V6.35883L66.4231 8.73789H66.3931L64.8316 6.3738V10.0097H63.6155V4.4137Z" fill="#002345"/>
</g>
<mask id="mask8_1826_4040" style="mask-type:luminance" maskUnits="userSpaceOnUse" x="0" y="0" width="70" height="24">
<path d="M69.2308 0H0V24H69.2308V0Z" fill="white"/>
</mask>
<g mask="url(#mask8_1826_4040)">
<path d="M21.8457 18.7629L22.5814 17.8951C23.0919 18.314 23.6174 18.5684 24.263 18.5684C24.7735 18.5684 25.0738 18.3739 25.0738 18.0298C25.0738 17.7155 24.8786 17.5659 23.9477 17.3265C22.8216 17.0422 22.0859 16.728 22.0859 15.6058C22.0859 14.5884 22.8967 13.915 24.0528 13.915C24.8636 13.915 25.5692 14.1694 26.1398 14.6183L25.4942 15.546C24.9987 15.2018 24.5032 14.9923 24.0378 14.9923C23.5723 14.9923 23.3171 15.2018 23.3171 15.5011C23.3171 15.8751 23.5573 15.9948 24.5333 16.2342C25.6743 16.5335 26.3049 16.9375 26.3049 17.925C26.3049 19.0322 25.4491 19.6607 24.248 19.6607C23.3772 19.6607 22.5063 19.3614 21.8457 18.7629Z" fill="#002345"/>
</g>
<mask id="mask9_1826_4040" style="mask-type:luminance" maskUnits="userSpaceOnUse" x="0" y="0" width="70" height="24">
<path d="M69.2308 0H0V24H69.2308V0Z" fill="white"/>
</mask>
<g mask="url(#mask9_1826_4040)">
<path d="M27.5361 13.9899H28.7673V16.2043H31.0495V13.9899H32.2806V19.5859H31.0495V17.3415H28.7673V19.5859H27.5361V13.9899Z" fill="#002345"/>
</g>
<mask id="mask10_1826_4040" style="mask-type:luminance" maskUnits="userSpaceOnUse" x="0" y="0" width="70" height="24">
<path d="M69.2308 0H0V24H69.2308V0Z" fill="white"/>
</mask>
<g mask="url(#mask10_1826_4040)">
<path d="M35.0133 13.9899H33.7821V19.5859H35.0133V13.9899Z" fill="#002345"/>
</g>
<mask id="mask11_1826_4040" style="mask-type:luminance" maskUnits="userSpaceOnUse" x="0" y="0" width="70" height="24">
<path d="M69.2308 0H0V24H69.2308V0Z" fill="white"/>
</mask>
<g mask="url(#mask11_1826_4040)">
<path d="M36.5146 13.9899H38.8118C40.1481 13.9899 40.9589 14.7829 40.9589 15.935C40.9589 17.2218 39.9529 17.8951 38.6917 17.8951H37.7608V19.5709H36.5297V13.9899H36.5146ZM38.7217 16.8178C39.3373 16.8178 39.6977 16.4437 39.6977 15.95C39.6977 15.3964 39.3073 15.0971 38.6917 15.0971H37.7458V16.8028H38.7217V16.8178Z" fill="#002345"/>
</g>
<mask id="mask12_1826_4040" style="mask-type:luminance" maskUnits="userSpaceOnUse" x="0" y="0" width="70" height="24">
<path d="M69.2308 0H0V24H69.2308V0Z" fill="white"/>
</mask>
<g mask="url(#mask12_1826_4040)">
<path d="M42.0549 13.9899H44.3521C45.6884 13.9899 46.4992 14.7829 46.4992 15.935C46.4992 17.2218 45.4932 17.8951 44.232 17.8951H43.3011V19.5709H42.0699V13.9899H42.0549ZM44.277 16.8178C44.8926 16.8178 45.253 16.4437 45.253 15.95C45.253 15.3964 44.8626 15.0971 44.247 15.0971H43.2861V16.8028H44.277V16.8178Z" fill="#002345"/>
</g>
<mask id="mask13_1826_4040" style="mask-type:luminance" maskUnits="userSpaceOnUse" x="0" y="0" width="70" height="24">
<path d="M69.2308 0H0V24H69.2308V0Z" fill="white"/>
</mask>
<g mask="url(#mask13_1826_4040)">
<path d="M48.8264 13.9899H47.5952V19.5859H48.8264V13.9899Z" fill="#002345"/>
</g>
<mask id="mask14_1826_4040" style="mask-type:luminance" maskUnits="userSpaceOnUse" x="0" y="0" width="70" height="24">
<path d="M69.2308 0H0V24H69.2308V0Z" fill="white"/>
</mask>
<g mask="url(#mask14_1826_4040)">
<path d="M50.3278 13.9899H51.4688L54.0963 17.4313V13.9899H55.3125V19.5859H54.2615L51.5589 16.0248V19.5859H50.3278V13.9899Z" fill="#002345"/>
</g>
<mask id="mask15_1826_4040" style="mask-type:luminance" maskUnits="userSpaceOnUse" x="0" y="0" width="70" height="24">
<path d="M69.2308 0H0V24H69.2308V0Z" fill="white"/>
</mask>
<g mask="url(#mask15_1826_4040)">
<path d="M56.4236 16.7879C56.4236 15.2019 57.6698 13.9001 59.3664 13.9001C60.3723 13.9001 60.9879 14.1695 61.5735 14.6632L60.7927 15.5909C60.3573 15.2318 59.982 15.0223 59.3213 15.0223C58.4205 15.0223 57.7148 15.8154 57.7148 16.773C57.7148 17.7904 58.4205 18.5386 59.4114 18.5386C59.8619 18.5386 60.2672 18.4338 60.5675 18.2094V17.4164H59.3213V16.354H61.7536V18.778C61.1831 19.2717 60.3873 19.6607 59.3514 19.6607C57.6247 19.6757 56.4236 18.4637 56.4236 16.7879Z" fill="#002345"/>
</g>
<mask id="mask16_1826_4040" style="mask-type:luminance" maskUnits="userSpaceOnUse" x="0" y="0" width="70" height="24">
<path d="M69.2308 0H0V24H69.2308V0Z" fill="white"/>
</mask>
<g mask="url(#mask16_1826_4040)">
<path d="M17.5967 0H0V24H17.5967V0Z" fill="#002345"/>
</g>
<mask id="mask17_1826_4040" style="mask-type:luminance" maskUnits="userSpaceOnUse" x="0" y="0" width="70" height="24">
<path d="M69.2308 0H0V24H69.2308V0Z" fill="white"/>
</mask>
<g mask="url(#mask17_1826_4040)">
<path d="M6.05074 8.21437C6.05074 9.44131 6.93658 10.4887 8.13773 10.6982L8.27285 10.7281L9.45898 9.50116L10.51 10.5186L8.88844 12.2094H8.57314C6.36604 12.2094 4.57935 10.4139 4.57935 8.21437C4.57935 6.01487 6.38106 4.21936 8.58815 4.21936C10.7052 4.21936 12.4468 5.86525 12.5819 7.94505H11.0955C10.9604 6.68819 9.87938 5.68569 8.57314 5.68569C7.17681 5.68569 6.05074 6.82285 6.05074 8.21437Z" fill="white"/>
</g>
<mask id="mask18_1826_4040" style="mask-type:luminance" maskUnits="userSpaceOnUse" x="0" y="0" width="70" height="24">
<path d="M69.2308 0H0V24H69.2308V0Z" fill="white"/>
</mask>
<g mask="url(#mask18_1826_4040)">
<path d="M6.05074 8.21437C6.05074 9.44131 6.93658 10.4887 8.13773 10.6982L8.27285 10.7281L9.45898 9.50116L10.51 10.5186L8.88844 12.2094H8.57314C6.36604 12.2094 4.57935 10.4139 4.57935 8.21437C4.57935 6.01487 6.38106 4.21936 8.58815 4.21936C10.7052 4.21936 12.4468 5.86525 12.5819 7.94505H11.0955C10.9604 6.68819 9.87938 5.68569 8.57314 5.68569C7.17681 5.68569 6.05074 6.82285 6.05074 8.21437Z" fill="white"/>
</g>
<mask id="mask19_1826_4040" style="mask-type:luminance" maskUnits="userSpaceOnUse" x="0" y="0" width="70" height="24">
<path d="M69.2308 0H0V24H69.2308V0Z" fill="white"/>
</mask>
<g mask="url(#mask19_1826_4040)">
<path d="M13.3777 15.2619C13.3777 17.7607 11.3508 19.7806 8.84339 19.7806C6.33601 19.7806 4.30908 17.7607 4.30908 15.2619C4.30908 14.9777 4.33911 14.6934 4.38415 14.4091L5.82552 14.7682C5.79549 14.9178 5.78048 15.0824 5.78048 15.247C5.78048 16.9228 7.14678 18.2994 8.84339 18.2994C10.525 18.2994 11.9063 16.9378 11.9063 15.247C11.9063 14.4989 11.636 13.8106 11.1856 13.2869L12.2366 12.2395C12.9423 13.0475 13.3777 14.0949 13.3777 15.2619Z" fill="white"/>
</g>
</g>
<defs>
<clipPath id="clip0_1826_4040">
<rect width="69.2308" height="24" fill="white"/>
</clipPath>
</defs>
</svg>
