<svg width="96" height="96" viewBox="0 0 96 96" fill="none" xmlns="http://www.w3.org/2000/svg">
<circle cx="48" cy="48" r="48" fill="#F4F3F8"/>
<path fill-rule="evenodd" clip-rule="evenodd" d="M26.8986 38.0653C26.9409 38.1491 26.9956 38.4601 27.0628 39.2962L26.5701 39.7972C26.2989 40.0734 25.7788 40.523 25.4139 40.7967C25.0489 41.0704 24.3024 41.607 23.755 41.9894C23.2076 42.3709 22.7224 42.7201 22.6767 42.7641C22.6214 42.8183 22.6214 42.8307 22.6767 42.8014C22.7224 42.7765 23.1885 42.497 23.7135 42.1793C24.2377 41.8617 25.0406 41.3673 25.4968 41.0812C25.953 40.7942 26.4847 40.4342 26.6788 40.2808C26.8728 40.1265 27.0495 40.0386 27.0727 40.0842C27.0951 40.1298 27.0918 40.27 27.0653 40.3952C27.0387 40.5205 26.9848 40.7353 26.9458 40.8721C26.8919 41.0629 26.6746 41.2587 26.0202 41.7082C25.5499 42.0317 24.6334 42.6198 23.9831 43.0146C23.3328 43.4102 22.8103 43.7536 22.8219 43.7785C22.8335 43.8034 23.6074 43.426 24.543 42.9399C25.4777 42.4539 26.279 42.0234 26.3221 41.9828C26.3652 41.9421 26.4498 41.9089 26.5087 41.9089C26.5684 41.9089 26.6166 41.9463 26.6166 41.9919C26.6166 42.0375 26.5046 42.2424 26.3677 42.4481C26.1554 42.7666 25.9812 42.8902 25.1858 43.2866C24.6724 43.5429 23.7019 44.0472 23.0292 44.4064C22.3566 44.7663 21.8058 45.079 21.8058 45.1023C21.8058 45.1255 22.0389 45.0268 22.3242 44.8833C22.6095 44.7406 23.5145 44.3301 24.3356 43.9726C25.1567 43.6151 25.8576 43.3497 25.8933 43.3828C25.929 43.416 25.8137 43.63 25.6362 43.8581C25.3989 44.1642 25.1435 44.3624 24.6591 44.617C24.2991 44.8062 23.6306 45.118 23.1744 45.3113C22.7182 45.5037 22.0646 45.8031 21.7229 45.9765C21.3803 46.149 20.8686 46.4526 20.5849 46.65C20.3021 46.8482 19.9164 47.1966 19.7289 47.4247C19.5423 47.6528 19.3258 47.9804 19.2495 48.1521C19.1732 48.3238 19.0637 48.464 19.0065 48.4631C18.9492 48.4623 18.819 48.1911 18.7162 47.8601C18.5752 47.4056 18.5296 47.0564 18.5296 46.4294C18.5296 45.6721 18.5511 45.5576 18.7784 45.1097C18.9152 44.8402 19.2512 44.3972 19.5249 44.1252C19.7986 43.854 20.6944 43.1307 21.5155 42.5194C22.3367 41.9081 23.3992 41.1002 23.8769 40.7253C24.3555 40.3496 25.0224 39.8005 25.3608 39.5036C25.6984 39.2066 26.1653 38.7281 26.3976 38.4386C26.7683 37.9782 26.8305 37.9318 26.8986 38.0653ZM77.5439 38.7571H79.5346V41.1624H81.5252V42.9043H79.5346L79.5561 45.0401C79.5736 46.8092 79.6001 47.2182 79.7104 47.4247C79.7834 47.5615 79.9136 47.7075 79.9999 47.7482C80.0862 47.7896 80.4552 47.8452 81.4837 47.9224L81.5252 49.7056L80.4677 49.6766C79.6499 49.655 79.3065 49.6094 78.954 49.4759C78.6521 49.3623 78.3858 49.1806 78.166 48.9392C77.9448 48.6965 77.7861 48.4109 77.6899 48.0824C77.568 47.6661 77.5456 47.2289 77.5439 42.9043H76.2168V41.1624H77.5439V38.7571ZM18.8265 44.2314C18.8688 44.2314 18.9028 44.2496 18.9028 44.2728C18.9028 44.2961 18.7717 44.5665 18.6117 44.8742C18.4516 45.1819 18.2757 45.6762 18.221 45.9732C18.1455 46.3887 18.1447 46.645 18.2202 47.0929C18.2741 47.4122 18.4441 47.9348 18.5984 48.2541C18.7527 48.5735 19.1077 49.1425 19.388 49.519C19.6684 49.8956 20.2631 50.5674 20.7085 51.012C21.1547 51.4566 21.8539 52.1002 22.2637 52.4428C22.6734 52.7845 23.4282 53.3817 24.8747 54.4749V56.2374C24.8747 57.2071 24.8557 58 24.8333 58C24.81 58 22.364 55.938 19.3971 53.4174C16.4302 50.8967 14.0017 48.8107 14 48.7825C13.9983 48.7534 15.0667 47.7175 16.3738 46.4808C17.681 45.2433 18.785 44.2314 18.8265 44.2314ZM32.5055 38.1765H34.828C36.1401 38.1765 37.4117 38.2171 37.7517 38.2702C38.0827 38.3216 38.5579 38.4353 38.8093 38.5224C39.0598 38.6094 39.4479 38.801 39.671 38.947C39.8942 39.0938 40.2102 39.3999 40.3736 39.628C40.537 39.8561 40.7402 40.2293 40.8248 40.4574C40.9094 40.6855 41.0139 41.1707 41.0579 41.5357C41.1115 41.9781 41.1096 42.4066 41.0521 42.8213C40.9965 43.2186 40.8638 43.6532 40.6838 44.024C40.4955 44.413 40.2541 44.7415 39.9531 45.0193C39.7059 45.2474 39.3011 45.5344 39.0531 45.6563C38.8051 45.7791 38.3589 45.9367 38.0628 46.008C37.6821 46.0984 37.0915 46.1366 34.5791 46.1391V49.7056H32.5055V38.1765ZM34.5791 44.3143C36.2181 44.3151 36.9181 44.2737 37.1919 44.2231C37.4656 44.1733 37.8197 44.0655 37.9798 43.985C38.1391 43.9037 38.3912 43.7022 38.5397 43.5371C38.6882 43.3712 38.8466 43.0959 38.8914 42.925C38.937 42.7541 38.9743 42.3809 38.9743 42.0956C38.9751 41.7679 38.9154 41.432 38.8118 41.1832C38.7014 40.9161 38.5364 40.7087 38.2983 40.5404C38.0926 40.3936 37.7418 40.2492 37.4457 40.1895C37.1695 40.1331 36.4114 40.0867 35.7611 40.0858L34.5791 40.0842V44.3143ZM59.7111 38.1765H61.7017V44.5631L62.9044 44.5606L65.1024 41.1624H66.2636C67.1685 41.1624 67.4115 41.1857 67.3659 41.2661C67.3336 41.3234 66.7181 42.2374 64.6877 45.2267L66.135 47.404C66.9313 48.6017 67.5658 49.6094 67.5451 49.6434C67.5243 49.6774 67.0134 49.7073 65.3097 49.7114L62.9873 46.3025L61.7017 46.305V49.7056H59.7111V38.1765ZM46.1083 41.0297C46.6864 41.0521 47.0622 41.1185 47.5183 41.2794C47.8601 41.3997 48.327 41.6419 48.5551 41.8185C48.7832 41.9952 49.11 42.3394 49.2826 42.5841C49.4542 42.8288 49.6915 43.29 49.8109 43.6093C49.9851 44.0771 50.0349 44.384 50.0664 45.1852C50.0962 45.9259 50.073 46.324 49.9735 46.7404C49.9005 47.0481 49.723 47.5333 49.5787 47.8187C49.4343 48.104 49.1432 48.5054 48.93 48.7103C48.7177 48.9152 48.3411 49.193 48.0931 49.3266C47.8451 49.4593 47.4561 49.6177 47.228 49.6774C46.9999 49.738 46.4027 49.7878 45.9009 49.7894C45.2208 49.7911 44.8509 49.7504 44.4494 49.6277C44.1525 49.5373 43.7328 49.3498 43.5163 49.2113C43.2998 49.0728 42.954 48.7816 42.7474 48.5652C42.5417 48.3487 42.2663 47.9472 42.1361 47.6735C42.0059 47.3998 41.8599 47.0075 41.8126 46.8026C41.7645 46.5977 41.7007 46.1498 41.6708 45.8073C41.6401 45.449 41.6567 44.9389 41.7115 44.6046C41.7637 44.2853 41.8715 43.8374 41.9503 43.6093C42.03 43.3812 42.2498 42.9706 42.4405 42.6969C42.6305 42.4232 42.983 42.045 43.2235 41.8575C43.4649 41.6692 43.8108 41.4511 43.9932 41.3731C44.1757 41.2952 44.549 41.179 44.8227 41.1152C45.1337 41.0422 45.6156 41.0098 46.1083 41.0297ZM44.1782 43.6831C44.0488 43.8706 43.8887 44.2106 43.8224 44.4387C43.756 44.6668 43.7021 45.1338 43.7029 45.4755C43.7029 45.8181 43.7394 46.2286 43.7817 46.3879C43.8249 46.548 43.9833 46.8632 44.1342 47.0896C44.3126 47.3567 44.5382 47.5674 44.7812 47.6918C44.9969 47.8021 45.3825 47.9041 45.6936 47.9323C45.9996 47.9613 46.3853 47.9431 46.5852 47.89C46.781 47.8394 47.0895 47.6594 47.2795 47.4869C47.4677 47.316 47.7191 46.9892 47.8377 46.7611C48.0284 46.3929 48.0533 46.2494 48.055 45.4755C48.0575 44.6934 48.0342 44.5557 47.8294 44.1277C47.7041 43.8656 47.4984 43.5521 47.3732 43.4318C47.2479 43.3115 46.9958 43.1448 46.8133 43.061C46.5943 42.9598 46.2841 42.9068 45.9009 42.9051C45.4389 42.9026 45.2274 42.9474 44.8666 43.1216C44.5642 43.2681 44.3347 43.4553 44.1782 43.6831ZM54.9418 41.0024C55.2155 40.999 55.6634 41.0364 55.9371 41.0861C56.2108 41.1359 56.6587 41.2819 56.9324 41.4104C57.231 41.5515 57.5777 41.8053 57.7992 42.0466C58.0024 42.2673 58.2521 42.6347 58.3549 42.8628C58.4578 43.0909 58.5805 43.4359 58.7157 43.9825L56.6836 43.9858L56.5385 43.6939C56.4588 43.533 56.2722 43.3123 56.1237 43.202C55.9753 43.0925 55.6858 42.9582 55.4809 42.9043C55.2752 42.8495 54.9211 42.828 54.693 42.8545C54.4474 42.8835 54.1356 42.9972 53.9299 43.1324C53.7374 43.2576 53.4845 43.4915 53.3659 43.6508C53.2481 43.8108 53.0897 44.1459 53.0134 44.3972C52.9321 44.6685 52.8782 45.123 52.8815 45.517C52.8848 45.9773 52.9395 46.3207 53.059 46.6367C53.1726 46.9378 53.3601 47.2124 53.6097 47.4454C53.8179 47.6395 54.1281 47.8353 54.299 47.88C54.4698 47.9257 54.7776 47.9638 54.9833 47.9647C55.1881 47.9655 55.4867 47.9232 55.6468 47.8709C55.8061 47.8178 56.0491 47.6934 56.1859 47.5931C56.3228 47.4935 56.5003 47.2746 56.7251 46.8026L58.7572 46.8441L58.7273 47.0929C58.7116 47.2298 58.6212 47.5466 58.5274 47.7979C58.4105 48.1106 58.2106 48.4001 57.8929 48.7161C57.6383 48.9699 57.2244 49.2752 56.9739 49.3938C56.7226 49.5132 56.3493 49.6492 56.1445 49.6973C55.9388 49.7455 55.3789 49.7853 54.9003 49.7853C54.4209 49.7861 53.8428 49.738 53.6147 49.6774C53.3866 49.6177 52.9984 49.4593 52.7529 49.3266C52.5066 49.193 52.1383 48.8969 51.9343 48.6688C51.7302 48.4407 51.4797 48.0858 51.3769 47.8809C51.2749 47.676 51.1206 47.3028 51.0343 47.0514C50.9107 46.6923 50.8776 46.3572 50.8776 45.4755C50.8776 44.5449 50.9082 44.2645 51.0584 43.8166C51.1579 43.5197 51.3321 43.11 51.4465 42.9043C51.5602 42.6994 51.8513 42.3411 52.0943 42.1088C52.3374 41.8766 52.7413 41.5821 52.9926 41.4552C53.2431 41.3283 53.6728 41.1757 53.9465 41.1168C54.2202 41.0579 54.6681 41.0065 54.9418 41.0024ZM71.8208 41.0024C72.0713 40.9982 72.4819 41.0339 72.7332 41.0812C72.9837 41.1284 73.3943 41.2636 73.6456 41.3806C73.8961 41.4984 74.3066 41.7912 74.558 42.0317C74.8084 42.2722 75.1336 42.6886 75.2787 42.9565C75.4247 43.2244 75.6039 43.7047 75.6777 44.024C75.7615 44.3881 75.8021 44.8675 75.7606 46.0146L72.7539 46.0354C71.1 46.047 69.7472 46.0843 69.7464 46.1183C69.7456 46.1523 69.802 46.3763 69.8708 46.616C69.9463 46.8789 70.1188 47.1875 70.3071 47.3965C70.478 47.5856 70.7674 47.8087 70.9499 47.8917C71.1755 47.9945 71.4808 48.0434 71.9038 48.0443C72.3964 48.0451 72.6162 48.002 72.9613 47.8386C73.2251 47.7133 73.454 47.5333 73.687 47.1327L74.6409 47.1311C75.1651 47.1302 75.6213 47.1584 75.6545 47.1941C75.6868 47.2298 75.6478 47.4272 75.5674 47.632C75.4869 47.8369 75.302 48.1828 75.1552 48.3993C75.0092 48.6158 74.694 48.9235 74.4543 49.0827C74.2146 49.242 73.8131 49.4527 73.5626 49.5522C73.2093 49.6907 72.8725 49.7396 72.0696 49.7687C71.2352 49.7985 70.9275 49.777 70.4937 49.655C70.1968 49.5721 69.7489 49.3697 69.4984 49.2063C69.2471 49.0421 68.8995 48.7418 68.7262 48.5395C68.552 48.3371 68.304 47.9472 68.1746 47.6735C68.0452 47.3998 67.8968 46.971 67.8445 46.7197C67.7922 46.4684 67.7499 45.9085 67.7491 45.4755C67.7491 45.0425 67.7914 44.4827 67.8437 44.2314C67.8959 43.98 68.066 43.5048 68.2211 43.1738C68.3994 42.7939 68.664 42.4116 68.9385 42.1345C69.1782 41.894 69.5789 41.5954 69.8302 41.471C70.0807 41.3466 70.5286 41.1915 70.8255 41.1276C71.1216 41.0629 71.5695 41.0065 71.8208 41.0024ZM70.3784 43.2866C70.2465 43.4185 70.0699 43.6756 69.9861 43.8581C69.9023 44.0406 69.8327 44.2737 69.8318 44.3765L69.8302 44.5631L73.8529 44.5656C73.7617 44.0174 73.6315 43.7088 73.5037 43.5263C73.3578 43.3182 73.1015 43.1091 72.8153 42.9648C72.4537 42.7832 72.2488 42.7367 71.8208 42.7392C71.4799 42.7409 71.1598 42.7981 70.9499 42.8943C70.7674 42.9781 70.5103 43.1548 70.3784 43.2866ZM34.7036 51.9725C35.1498 51.9899 35.3588 52.043 35.606 52.1981C35.7826 52.3101 35.9958 52.5133 36.0804 52.6501C36.1642 52.787 36.2339 52.9645 36.2355 53.0441C36.2372 53.1553 36.17 53.1893 35.9477 53.1893C35.7287 53.1893 35.6018 53.1271 35.4293 52.9346C35.3007 52.7903 35.0751 52.6535 34.9109 52.6186C34.7508 52.5854 34.4713 52.5854 34.2888 52.6178C34.0724 52.6576 33.8774 52.7671 33.729 52.9338C33.6037 53.074 33.4635 53.3294 33.4188 53.5003C33.3731 53.6712 33.3358 53.9233 33.3358 54.0602C33.3358 54.197 33.3781 54.4583 33.4287 54.6408C33.4801 54.8233 33.6386 55.0895 33.7812 55.2322C33.9571 55.4097 34.1586 55.5125 34.4133 55.5548C34.7019 55.6029 34.862 55.5814 35.1183 55.4603C35.3007 55.3748 35.4874 55.2206 35.533 55.1177C35.6002 54.9659 35.6823 54.9303 35.9684 54.9311C36.1625 54.9311 36.321 54.9684 36.321 55.014C36.321 55.0596 36.2704 55.1998 36.2073 55.3251C36.1451 55.4503 35.9776 55.656 35.8341 55.7813C35.6914 55.9065 35.4343 56.0467 35.2634 56.0915C35.0926 56.1371 34.7467 56.1736 34.4962 56.1728C34.2366 56.1719 33.8965 56.1072 33.7082 56.0218C33.5258 55.9397 33.2819 55.763 33.1666 55.6295C33.0505 55.4959 32.8887 55.2189 32.8058 55.014C32.6897 54.7237 32.664 54.484 32.6905 53.9358C32.7162 53.4281 32.7759 53.132 32.9062 52.8782C33.0049 52.6841 33.2073 52.4328 33.3557 52.32C33.5042 52.2064 33.7373 52.077 33.8741 52.0314C34.011 51.9866 34.3842 51.96 34.7036 51.9725ZM37.9384 53.0242C38.29 53.0242 38.5148 53.0723 38.7056 53.1893C38.8541 53.2805 39.039 53.4763 39.1162 53.6247C39.2248 53.8321 39.263 54.1589 39.3069 56.1752L39.0374 56.1719C38.8856 56.1703 38.7313 56.1114 38.6848 56.0384C38.6094 55.9198 38.577 55.9198 38.3323 56.0417C38.1839 56.1147 37.9135 56.1752 37.731 56.1752C37.5485 56.1752 37.2682 56.1188 37.1089 56.0508C36.9447 55.9803 36.7647 55.8186 36.6942 55.6776C36.6254 55.5407 36.5698 55.3358 36.5698 55.2214C36.5698 55.1078 36.6353 54.9029 36.7149 54.7669C36.7946 54.6308 36.953 54.4766 37.0674 54.4226C37.1811 54.3696 37.5825 54.3032 37.9591 54.2758C38.5936 54.2294 38.6392 54.2145 38.592 54.0602C38.5637 53.9689 38.48 53.8279 38.4053 53.7467C38.324 53.6579 38.154 53.599 37.9798 53.5998C37.8197 53.6007 37.6149 53.6562 37.5236 53.7243C37.4324 53.7923 37.2176 53.8487 37.0467 53.8503C36.8758 53.852 36.7357 53.8155 36.7357 53.7699C36.7357 53.7243 36.773 53.6123 36.8186 53.521C36.8642 53.4298 37.0227 53.2805 37.1711 53.1893C37.3619 53.0723 37.5867 53.0242 37.9384 53.0242ZM37.3055 55.0605C37.2043 55.2371 37.2101 55.2786 37.3577 55.4296C37.4697 55.544 37.6273 55.5988 37.8413 55.5971C38.0827 55.5955 38.2162 55.5349 38.4012 55.3458C38.5339 55.2089 38.6434 55.0223 38.6434 54.9311C38.6434 54.7851 38.5919 54.7669 38.2079 54.7768C37.9682 54.7826 37.6928 54.8042 37.5958 54.8241C37.4988 54.8448 37.3677 54.9502 37.3055 55.0605ZM39.7216 53.0234H40.0534C40.3296 53.0234 40.3852 53.0508 40.3852 53.1893C40.3852 53.3552 40.3852 53.3552 40.6548 53.1893C40.8032 53.0989 41.0645 53.0242 41.2354 53.0234C41.5306 53.0234 41.5464 53.0367 41.5481 53.2929C41.5497 53.5393 41.5223 53.5675 41.237 53.6206C41.0653 53.6529 40.8397 53.7649 40.7369 53.8694C40.634 53.9747 40.5138 54.2095 40.469 54.392C40.425 54.5744 40.3885 55.0505 40.3852 56.1752H39.7216V53.0234ZM43.0187 53.0234C43.2584 53.0234 43.5661 53.0798 43.7029 53.1478C43.9244 53.2581 43.9518 53.2581 43.9518 53.1478C43.9518 53.0582 44.043 53.0234 44.6062 53.0234L44.5896 54.8274C44.5747 56.5078 44.5614 56.6513 44.3972 56.9217C44.2993 57.0818 44.0853 57.2776 43.9202 57.3572C43.7461 57.4418 43.4284 57.5023 43.1638 57.5023C42.9125 57.5023 42.5766 57.4459 42.4173 57.3779C42.2572 57.3099 42.0524 57.1324 41.9611 56.9839C41.8707 56.8355 41.7961 56.6679 41.7952 56.6107C41.7952 56.5452 41.9163 56.507 42.127 56.507C42.3203 56.507 42.4845 56.5543 42.521 56.619C42.555 56.6812 42.667 56.7741 42.7698 56.8263C42.8727 56.8786 43.0684 56.9217 43.2053 56.9217C43.3471 56.9217 43.5429 56.8413 43.6598 56.7351C43.7867 56.6198 43.8904 56.4083 43.9932 55.8169L43.7029 55.9961C43.5094 56.115 43.2744 56.1752 42.9979 56.1769C42.701 56.1794 42.5027 56.1263 42.3004 55.9911C42.1453 55.8874 41.9396 55.6967 41.8442 55.5681C41.7115 55.3889 41.6642 55.1841 41.6443 54.6972C41.6194 54.1166 41.6376 54.0278 41.8508 53.6961C41.9794 53.4953 42.1967 53.2614 42.3335 53.1768C42.4944 53.0781 42.7383 53.0226 43.0187 53.0234ZM42.4298 54.0229C42.3543 54.1572 42.2929 54.426 42.2929 54.62C42.2937 54.8266 42.3617 55.0845 42.4588 55.2421C42.5558 55.4005 42.7192 55.5333 42.8528 55.5631C42.978 55.5913 43.1887 55.5822 43.3206 55.5424C43.4524 55.5026 43.6308 55.3765 43.7179 55.2629C43.805 55.1484 43.8979 54.9062 43.9244 54.7237C43.9567 54.5048 43.9285 54.2932 43.8415 54.1017C43.7685 53.9416 43.6142 53.7649 43.4989 53.7077C43.3828 53.6504 43.1854 53.6048 43.0601 53.6065C42.9349 53.6081 42.7723 53.6471 42.6993 53.6936C42.6263 53.74 42.5044 53.8885 42.4298 54.0229ZM46.5786 53.0433C47.024 53.059 47.233 53.108 47.408 53.2357C47.5374 53.3294 47.7298 53.5725 47.8352 53.7749C47.9944 54.0784 48.0226 54.2377 47.9953 54.6823C47.9745 55.0132 47.9007 55.3259 47.802 55.4918C47.7149 55.6411 47.5308 55.8443 47.3939 55.943C47.2571 56.0425 46.9767 56.1404 46.7718 56.1603C46.5661 56.1802 46.2584 56.1736 46.0876 56.1446C45.9059 56.1139 45.6538 55.9803 45.4812 55.8227C45.3195 55.6743 45.1453 55.4229 45.0956 55.2629C45.0458 55.1028 45.0043 54.7859 45.0035 54.5578C45.0018 54.3049 45.0715 53.9897 45.1818 53.7491C45.3087 53.4713 45.4539 53.3062 45.6728 53.1884C45.9167 53.0574 46.1124 53.0267 46.5786 53.0433ZM45.7002 54.5097C45.6961 54.742 45.7492 55.0431 45.818 55.1799C45.8951 55.3334 46.0453 55.4619 46.212 55.515C46.3604 55.5623 46.5744 55.5805 46.6889 55.5565C46.8025 55.5316 46.9892 55.4146 47.1036 55.2977C47.2778 55.1177 47.311 55.0049 47.311 54.586C47.311 54.129 47.2886 54.0676 47.0414 53.8462C46.8498 53.6737 46.6864 53.604 46.4749 53.604C46.2568 53.604 46.1166 53.6679 45.9424 53.8462C45.7483 54.0452 45.7052 54.1639 45.7002 54.5097Z" fill="#002345"/>
</svg>
