<svg width="72" height="16" viewBox="0 0 72 16" fill="none" xmlns="http://www.w3.org/2000/svg">
<g clip-path="url(#clip0_1826_4130)">
<path d="M12.7977 0H3.31814C1.48558 0 0 1.48558 0 3.31814V12.6819C0 14.5144 1.48558 16 3.31814 16H12.7977C14.6302 16 16.1158 14.5144 16.1158 12.6819V3.31814C16.1158 1.48558 14.6302 0 12.7977 0Z" fill="#002345"/>
<path d="M8.12001 13.8181C7.42815 13.8181 6.82415 13.7373 6.30801 13.5757C5.79187 13.4141 5.35808 13.1932 5.00665 12.9131C4.65522 12.6222 4.37518 12.2882 4.16653 11.9111C4.01211 11.6081 3.89455 11.2886 3.81385 10.9528C3.7782 10.8044 3.89436 10.6666 4.04696 10.6666H5.10585C5.22114 10.6666 5.31964 10.7472 5.35366 10.8573C5.4091 11.0367 5.48561 11.2101 5.58321 11.3777C5.71498 11.5932 5.8907 11.7818 6.11032 11.9434C6.34095 12.105 6.621 12.2343 6.95046 12.3313C7.27992 12.4175 7.66975 12.4605 8.12001 12.4605C8.58128 12.4605 8.98759 12.4175 9.33903 12.3313C9.69046 12.2343 9.98147 12.105 10.2121 11.9434C10.4537 11.7818 10.6349 11.5932 10.7557 11.3777C10.8765 11.1622 10.9369 10.9252 10.9369 10.6666C10.9369 10.3541 10.882 10.0902 10.7722 9.87469C10.6733 9.65921 10.4976 9.47065 10.245 9.30905C10.0034 9.1474 9.67945 9.00194 9.27314 8.87267C8.8778 8.7434 8.3891 8.61408 7.80703 8.48481C7.17008 8.34472 6.6155 8.19389 6.14326 8.03225C5.67107 7.85987 5.28119 7.64975 4.97371 7.40194C4.67718 7.1434 4.45206 6.83629 4.29831 6.48076C4.15554 6.12519 4.08416 5.68881 4.08416 5.17168C4.08416 4.75145 4.17751 4.36358 4.3642 4.00803C4.55089 3.6417 4.81446 3.32385 5.15488 3.05449C5.50632 2.78513 5.92914 2.57503 6.42331 2.42419C6.92848 2.26257 7.49404 2.18176 8.12001 2.18176C8.73503 2.18176 9.27314 2.26257 9.73437 2.42419C10.1956 2.57503 10.5855 2.78513 10.904 3.05449C11.2334 3.32385 11.4915 3.6417 11.6782 4.00803C11.8214 4.28085 11.9323 4.5727 12.011 4.88359C12.0486 5.03234 11.9322 5.17168 11.7787 5.17168H10.7184C10.605 5.17168 10.5075 5.09361 10.4726 4.98571C10.422 4.82919 10.3571 4.68108 10.278 4.54136C10.1682 4.33664 10.0144 4.16425 9.81677 4.02419C9.63004 3.87334 9.39394 3.75483 9.10839 3.66863C8.83385 3.58244 8.50439 3.53934 8.12001 3.53934C7.72467 3.53934 7.37324 3.58244 7.06575 3.66863C6.75827 3.75483 6.4947 3.87334 6.27507 4.02419C6.06641 4.16425 5.90717 4.33664 5.79733 4.54136C5.68754 4.73531 5.63262 4.94538 5.63262 5.17168C5.63262 5.46255 5.68754 5.71578 5.79733 5.93126C5.90717 6.13596 6.07738 6.31375 6.30801 6.46458C6.53865 6.61545 6.82966 6.75013 7.1811 6.86862C7.5435 6.98716 7.97178 7.10029 8.46594 7.20801C9.17978 7.35888 9.78928 7.53126 10.2945 7.72519C10.8106 7.91912 11.2279 8.15079 11.5464 8.42015C11.8759 8.67874 12.112 8.99121 12.2547 9.35752C12.4085 9.72387 12.4854 10.1602 12.4854 10.6666C12.4854 11.1083 12.3865 11.5232 12.1889 11.9111C11.9912 12.2882 11.7057 12.6222 11.3322 12.9131C10.9589 13.1932 10.5031 13.4141 9.965 13.5757C9.42688 13.7373 8.81187 13.8181 8.12001 13.8181Z" fill="white"/>
<path d="M11.1936 6.40496C11.2423 6.47376 11.3441 6.47427 11.3935 6.40599L12.0065 5.55832C12.0653 5.47705 12.0072 5.3634 11.9069 5.3634H10.6942C10.5944 5.3634 10.5362 5.47587 10.5938 5.55729L11.1936 6.40496Z" fill="white"/>
<path d="M4.41895 9.41299C4.46761 9.34424 4.56948 9.34367 4.61885 9.41196L5.23187 10.2597C5.2906 10.3409 5.23258 10.4545 5.1323 10.4545H3.9195C3.81979 10.4545 3.76159 10.3421 3.81917 10.2607L4.41895 9.41299Z" fill="white"/>
<path d="M19.8547 11.515V5.44255H21.0434V6.49662C21.1126 6.32862 21.2011 6.17201 21.3088 6.02688C21.4242 5.88175 21.555 5.75954 21.7012 5.66025C21.8551 5.55333 22.0243 5.46928 22.2089 5.4082C22.3936 5.34707 22.5898 5.31653 22.7975 5.31653C23.0591 5.31653 23.2861 5.34707 23.4784 5.4082C23.6784 5.46166 23.8477 5.53803 23.9862 5.63733C24.1323 5.73662 24.2516 5.85502 24.3439 5.99253C24.4439 6.12999 24.5209 6.2866 24.5747 6.46227C24.7593 6.11093 25.0094 5.8321 25.3249 5.62589C25.6403 5.41963 26.0173 5.31653 26.4558 5.31653C27.0944 5.31653 27.5906 5.50368 27.9445 5.87794C28.2984 6.2522 28.4753 6.83272 28.4753 7.61945V11.515H27.2059V7.91738C27.2059 7.37502 27.1097 6.98933 26.9174 6.76015C26.7328 6.53102 26.4481 6.41643 26.0634 6.41643C25.8942 6.41643 25.7326 6.45083 25.5787 6.51954C25.4249 6.58829 25.2902 6.68759 25.1748 6.81747C25.0594 6.9473 24.9671 7.10768 24.8978 7.29865C24.8286 7.48199 24.794 7.6882 24.794 7.91738V11.515H23.5246V7.91738C23.5246 7.37502 23.4284 6.98933 23.2361 6.76015C23.0514 6.53102 22.7706 6.41643 22.3936 6.41643C22.2243 6.41643 22.0628 6.45083 21.9089 6.51954C21.7551 6.58829 21.6204 6.68759 21.505 6.81747C21.3896 6.9473 21.2973 7.10768 21.2281 7.29865C21.1588 7.48199 21.1242 7.6882 21.1242 7.91738V11.515H19.8547Z" fill="#002345"/>
<path d="M31.8317 11.641C31.5009 11.641 31.2047 11.5952 30.9431 11.5035C30.6816 11.4042 30.4623 11.2706 30.2853 11.1025C30.1084 10.9268 29.9737 10.7244 29.8814 10.4953C29.7891 10.2661 29.7429 10.014 29.7429 9.73907C29.7429 9.44119 29.7891 9.18147 29.8814 8.95996C29.9737 8.73846 30.1084 8.55516 30.2853 8.41003C30.4623 8.2649 30.6854 8.15794 30.9547 8.08923C31.224 8.01286 31.5317 7.97465 31.8779 7.97465H33.782V7.61945C33.782 7.38269 33.7551 7.18792 33.7013 7.03512C33.6474 6.87474 33.5666 6.74872 33.4589 6.65705C33.3512 6.55775 33.2166 6.489 33.055 6.45083C32.9011 6.405 32.7203 6.38208 32.5126 6.38208C32.3203 6.38208 32.151 6.40119 32.0048 6.43935C31.8664 6.47756 31.751 6.52721 31.6586 6.58829C31.5663 6.64942 31.497 6.7258 31.4509 6.81747C31.4048 6.90147 31.374 6.99695 31.3586 7.10387H30.0891C30.1045 6.85182 30.1699 6.61883 30.2853 6.405C30.4084 6.18349 30.5738 5.99253 30.7816 5.8321C30.997 5.67173 31.2547 5.5457 31.5548 5.45403C31.8548 5.36236 32.1933 5.31653 32.5703 5.31653C32.9473 5.31653 33.2858 5.35855 33.5858 5.44255C33.8936 5.5266 34.1552 5.66025 34.3706 5.84359C34.586 6.01926 34.7514 6.2522 34.8668 6.54246C34.9899 6.82509 35.0515 7.17262 35.0515 7.58509V9.96825C35.0515 10.289 35.0553 10.5716 35.063 10.8161C35.0707 11.0529 35.0899 11.2858 35.1207 11.515H33.9667C33.9436 11.3546 33.9282 11.2056 33.9205 11.0682C33.9128 10.9306 33.909 10.7702 33.909 10.5869C33.8244 10.7397 33.7167 10.881 33.5858 11.0108C33.4551 11.133 33.3012 11.2438 33.1242 11.3431C32.955 11.4348 32.7588 11.5074 32.5357 11.5608C32.3203 11.6143 32.0856 11.641 31.8317 11.641ZM32.1664 10.6213C32.3895 10.6213 32.5972 10.5907 32.7896 10.5297C32.9896 10.4609 33.1627 10.3692 33.3089 10.2546C33.4551 10.1324 33.5704 9.9873 33.6551 9.81926C33.7397 9.64359 33.782 9.445 33.782 9.22349V8.86834H32.1087C31.7702 8.86834 31.5086 8.94086 31.324 9.08599C31.1393 9.23112 31.047 9.44119 31.047 9.71615C31.047 9.97587 31.1355 10.1936 31.3124 10.3692C31.4894 10.5373 31.774 10.6213 32.1664 10.6213Z" fill="#002345"/>
<path d="M36.613 11.515V5.44255H37.7901V6.48519C37.8517 6.32476 37.9325 6.17582 38.0325 6.03836C38.1402 5.90086 38.2633 5.77865 38.4018 5.67173C38.548 5.56476 38.7095 5.48076 38.8864 5.41963C39.0711 5.35093 39.2673 5.31653 39.475 5.31653C39.6212 5.31653 39.7404 5.32415 39.8328 5.33945C39.9251 5.35474 40.0059 5.3738 40.0751 5.39672V6.53102C39.9982 6.49281 39.902 6.46608 39.7866 6.45083C39.6789 6.42792 39.5366 6.41643 39.3596 6.41643C39.1365 6.41643 38.9326 6.45465 38.748 6.53102C38.571 6.6074 38.4172 6.71432 38.2864 6.85182C38.1633 6.98933 38.0633 7.15352 37.9863 7.34448C37.9171 7.53545 37.8824 7.74166 37.8824 7.96316V11.515H36.613Z" fill="#002345"/>
<path d="M43.7009 11.5723C43.3547 11.5723 43.0585 11.538 42.8123 11.4692C42.5661 11.3928 42.3622 11.2782 42.2007 11.1255C42.0391 10.9727 41.9199 10.778 41.8429 10.5412C41.7737 10.2967 41.7391 10.0103 41.7391 9.68187V6.51961H40.8735V5.44262H41.7391V4.06775H43.0085V5.44262H44.5664V6.51961H43.0085V9.51001C43.0085 9.67806 43.0239 9.827 43.0547 9.95683C43.0854 10.079 43.1393 10.1783 43.2162 10.2547C43.2932 10.3311 43.3932 10.3884 43.5163 10.4266C43.6394 10.4572 43.7971 10.4724 43.9894 10.4724C44.1048 10.4724 44.2202 10.4724 44.3357 10.4724C44.451 10.4648 44.5664 10.4533 44.6819 10.4381V11.515C44.5357 11.5303 44.3856 11.5418 44.2318 11.5494C44.0856 11.5647 43.9086 11.5723 43.7009 11.5723Z" fill="#002345"/>
<path d="M50.8514 11.5149V4.68632H48.1511V3.49475H54.9601V4.68632H52.2594V11.5149H50.8514Z" fill="#002345"/>
<path d="M55.1521 11.515V5.44255H56.329V6.48519C56.3907 6.32476 56.4716 6.17582 56.5714 6.03836C56.6792 5.90086 56.8025 5.77865 56.9408 5.67173C57.0867 5.56476 57.2486 5.48076 57.4255 5.41963C57.61 5.35093 57.8062 5.31653 58.0142 5.31653C58.1601 5.31653 58.2796 5.32415 58.3719 5.33945C58.4641 5.35474 58.545 5.3738 58.6142 5.39672V6.53102C58.537 6.49281 58.441 6.46608 58.3257 6.45083C58.218 6.42792 58.0754 6.41643 57.8985 6.41643C57.6754 6.41643 57.4716 6.45465 57.2872 6.53102C57.1102 6.6074 56.9563 6.71432 56.8255 6.85182C56.7022 6.98933 56.6025 7.15352 56.5253 7.34448C56.4561 7.53545 56.4213 7.74166 56.4213 7.96316V11.515H55.1521Z" fill="#002345"/>
<path d="M62.1905 11.641C61.775 11.641 61.383 11.5799 61.0136 11.4577C60.6517 11.3355 60.3326 11.1445 60.0555 10.8848C59.7863 10.6251 59.5708 10.3005 59.4093 9.91093C59.2479 9.52138 59.167 9.06307 59.167 8.53606V8.30693C59.167 7.80279 59.2442 7.3674 59.398 7.00076C59.5519 6.6265 59.7595 6.31333 60.0211 6.06128C60.2903 5.80919 60.5981 5.62208 60.9444 5.49987C61.2983 5.37766 61.6752 5.31653 62.0752 5.31653C63.0061 5.31653 63.7218 5.56476 64.2216 6.06128C64.7218 6.55775 64.9717 7.2681 64.9717 8.19234V8.83394H60.4479C60.4559 9.14712 60.5096 9.41446 60.6098 9.63596C60.7096 9.84985 60.8404 10.0255 61.0018 10.163C61.1712 10.3005 61.3557 10.4036 61.5557 10.4723C61.7637 10.5335 61.975 10.564 62.1905 10.564C62.6136 10.564 62.9406 10.4953 63.1717 10.3578C63.4023 10.2203 63.5637 10.0331 63.6564 9.79639H64.8564C64.7948 10.1019 64.687 10.3692 64.5331 10.5984C64.3792 10.8275 64.1872 11.0223 63.9562 11.1827C63.7256 11.3355 63.4602 11.45 63.1599 11.5264C62.8602 11.6028 62.5369 11.641 62.1905 11.641ZM60.4597 7.89446H63.7599C63.7524 7.61182 63.7063 7.37502 63.6216 7.1841C63.5369 6.99314 63.4216 6.84039 63.2752 6.7258C63.1293 6.61121 62.9562 6.52721 62.7562 6.47375C62.5562 6.42025 62.3482 6.39352 62.1331 6.39352C61.9176 6.39352 61.7096 6.42406 61.5096 6.48519C61.3096 6.53865 61.1326 6.6265 60.9788 6.74872C60.8249 6.87093 60.6983 7.02749 60.598 7.21846C60.5058 7.40175 60.4597 7.62712 60.4597 7.89446Z" fill="#002345"/>
<path d="M65.9905 11.5149V3.49475H67.2597V8.08917L69.7985 5.44249H71.2987L68.8869 7.9631L71.5298 11.5149H69.9834L67.9985 8.84536L67.2597 9.57863V11.5149H65.9905Z" fill="#002345"/>
</g>
<defs>
<clipPath id="clip0_1826_4130">
<rect width="71.5294" height="16" fill="white"/>
</clipPath>
</defs>
</svg>
