<svg width="70" height="16" viewBox="0 0 70 16" fill="none" xmlns="http://www.w3.org/2000/svg">
<path d="M12.9501 15.7573H9.16506L5.01369 8.89907C4.4795 8.02324 3.94532 6.95188 3.40351 5.69283C3.6477 6.69382 3.7698 7.5462 3.7698 8.24221V15.7573H0V0.242188H4.39556L7.92117 5.92743C8.62321 7.05351 9.15739 8.04668 9.51608 8.90692C9.27949 7.5775 9.15739 6.2246 9.15739 4.83262V0.242188H12.9425V15.7573H12.9501Z" fill="#002345"/>
<path d="M25.6486 15.7573L24.7939 12.6997H20.7341L19.826 15.7573H16.0486L20.7265 0.242188H25.641L30.3952 15.7652H25.6486V15.7573ZM21.5278 9.31357H23.9774L22.7487 4.80915L21.5278 9.31357Z" fill="#002345"/>
<path d="M45.688 0.242188L40.9872 15.7652H36.2482L31.3337 0.242188H36.233L38.6292 8.7036C38.7894 9.20408 38.9344 9.69677 39.0641 10.1816L41.8648 0.242188H45.688Z" fill="#002345"/>
<path d="M53.4411 0.242188V15.7652H48.7937V0.242188H53.4411Z" fill="#002345"/>
<path d="M56.219 11.2688L60.5382 10.4712C60.8969 11.7224 61.8356 12.348 63.3314 12.348C64.4988 12.348 65.0862 12.0274 65.0862 11.394C65.0862 11.0577 64.9489 10.7996 64.6817 10.6119C64.4151 10.4243 63.9263 10.26 63.2322 10.1193C60.5764 9.59531 58.867 8.91495 58.1192 8.07042C57.3637 7.22583 56.9898 6.24048 56.9898 5.09874C56.9898 3.63637 57.5316 2.41643 58.6152 1.44673C59.6989 0.484849 61.2556 0 63.2852 0C66.3684 0 68.406 1.26687 69.3979 3.80841L65.5519 5.00489C65.1549 3.96481 64.3383 3.44869 63.1254 3.44869C62.1103 3.44869 61.6067 3.76931 61.6067 4.41838C61.6067 4.70773 61.7211 4.92669 61.9501 5.09092C62.179 5.24732 62.6216 5.40372 63.2852 5.54449C65.1018 5.93549 66.384 6.28741 67.1469 6.58457C67.9097 6.88952 68.5433 7.40565 69.0546 8.13296C69.5659 8.86806 69.8181 9.72824 69.8181 10.7214C69.8181 12.2932 69.1994 13.568 67.9559 14.5376C66.7118 15.5152 65.0787 16 63.0642 16C59.3631 16 57.089 14.4204 56.219 11.2688Z" fill="#002345"/>
</svg>
