<svg width="71" height="20" viewBox="0 0 71 20" fill="none" xmlns="http://www.w3.org/2000/svg">
<path d="M27.1453 15.3728C26.3653 15.3728 25.6605 15.2238 25.0311 14.9249C24.4016 14.626 23.8568 14.2216 23.3965 13.7089C22.9363 13.1963 22.5821 12.6197 22.332 11.9775C22.0819 11.3362 21.9573 10.6764 21.9573 9.99989C21.9573 9.32341 22.0893 8.61918 22.3543 7.97787C22.6193 7.33656 22.9837 6.76373 23.4486 6.26123C23.9135 5.75873 24.4658 5.36081 25.1054 5.06745C25.7451 4.77409 26.4396 4.62695 27.1899 4.62695C27.9403 4.62695 28.6618 4.7815 29.2968 5.08966C29.9318 5.39782 30.4739 5.81148 30.9239 6.32878C31.3739 6.84609 31.7207 7.42355 31.9661 8.06023C32.2106 8.69691 32.3334 9.35395 32.3334 10.0304C32.3334 10.7069 32.206 11.3963 31.9512 12.0376C31.6965 12.679 31.3367 13.2518 30.8718 13.7543C30.4069 14.2568 29.8574 14.6519 29.2224 14.9407C28.5874 15.2294 27.8956 15.3738 27.1453 15.3738V15.3728ZM24.0567 9.99989C24.0567 10.458 24.1264 10.9003 24.2668 11.3279C24.4072 11.7554 24.6089 12.1367 24.8739 12.4698C25.1389 12.803 25.4634 13.0667 25.8483 13.261C26.2332 13.4554 26.6702 13.5516 27.1602 13.5516C27.6502 13.5516 28.1151 13.4498 28.4944 13.2453C28.8737 13.0417 29.1964 12.7706 29.4613 12.4319C29.7263 12.0941 29.9234 11.711 30.0536 11.2825C30.1838 10.855 30.2489 10.4265 30.2489 9.99896C30.2489 9.54181 30.1791 9.10132 30.0387 8.6784C29.8983 8.25549 29.6938 7.87792 29.4242 7.54385C29.1545 7.2107 28.8291 6.94696 28.4498 6.75262C28.0695 6.55829 27.6353 6.46204 27.1453 6.46204C26.6553 6.46204 26.2184 6.56384 25.8334 6.76835C25.4485 6.97194 25.124 7.24124 24.8591 7.57439C24.5941 7.90754 24.3942 8.28603 24.2594 8.70894C24.1245 9.13185 24.0567 9.56217 24.0567 9.99989Z" fill="#002345"/>
<path d="M33.9377 15.2981V4.70215H36.1971V13.4926H41.4353V15.2981H33.9377Z" fill="#002345"/>
<path d="M50.0841 13.4926V15.2981H42.6917V4.70215H49.9493V6.50763H44.7613V9.05991H49.2297V10.7312H44.7613V13.4917H50.0841V13.4926Z" fill="#002345"/>
<path d="M58.4811 7.4262C58.4096 7.35494 58.2794 7.26147 58.0906 7.14487C57.9019 7.02827 57.6723 6.90889 57.4026 6.78674C57.1321 6.66458 56.8392 6.56371 56.5231 6.48228C56.207 6.40084 55.8853 6.36013 55.5589 6.36013C54.988 6.36013 54.5566 6.46377 54.2666 6.67106C53.9755 6.87835 53.8305 7.17819 53.8305 7.57241C53.8305 7.86577 53.9225 8.09804 54.1057 8.26925C54.2889 8.44137 54.565 8.58759 54.9323 8.70882C55.2995 8.83005 55.7588 8.96145 56.3092 9.10304C57.0233 9.27517 57.6425 9.48431 58.1678 9.73232C58.6931 9.97941 59.0957 10.3033 59.3765 10.7022C59.6573 11.101 59.7977 11.634 59.7977 12.3003C59.7977 12.8658 59.6908 13.3507 59.476 13.7551C59.2621 14.1595 58.9683 14.4899 58.5964 14.7471C58.2236 15.0044 57.7959 15.1913 57.3115 15.3079C56.8271 15.4236 56.3148 15.4819 55.7737 15.4819C55.2326 15.4819 54.6924 15.4264 54.1522 15.3144C53.6111 15.2024 53.0941 15.0433 52.5995 14.835C52.1049 14.6268 51.6437 14.376 51.2151 14.0808L52.1486 12.2689C52.2406 12.3605 52.4033 12.4799 52.6385 12.627C52.8728 12.7741 53.1583 12.9213 53.4949 13.0684C53.8314 13.2156 54.1987 13.3405 54.5966 13.4414C54.9946 13.5432 55.3971 13.5941 55.8053 13.5941C56.3864 13.5941 56.8197 13.5015 57.106 13.3155C57.3915 13.1295 57.5347 12.8565 57.5347 12.4947C57.5347 12.1717 57.4203 11.9163 57.1906 11.7294C56.961 11.5424 56.6374 11.3805 56.219 11.2435C55.8007 11.1075 55.306 10.9631 54.7351 10.8114C54.0415 10.6198 53.4679 10.4023 53.0142 10.1599C52.5604 9.91741 52.2183 9.61665 51.9896 9.25759C51.7599 8.89853 51.6456 8.446 51.6456 7.90001C51.6456 7.16153 51.8241 6.54243 52.1811 6.04271C52.5381 5.54206 53.017 5.16357 53.6194 4.90538C54.221 4.64719 54.8895 4.51855 55.624 4.51855C56.1335 4.51855 56.6161 4.57408 57.0698 4.68605C57.5235 4.79803 57.9493 4.94517 58.3473 5.12748C58.7452 5.31071 59.1022 5.50782 59.4183 5.72159L58.4849 7.42712L58.4811 7.4262Z" fill="#002345"/>
<path d="M65.813 15.3728C65.033 15.3728 64.3282 15.2238 63.6988 14.9249C63.0693 14.626 62.5245 14.2216 62.0643 13.7089C61.604 13.1963 61.2498 12.6197 60.9997 11.9775C60.7496 11.3362 60.625 10.6764 60.625 9.99989C60.625 9.32341 60.757 8.61918 61.022 7.97787C61.287 7.33656 61.6515 6.76373 62.1163 6.26123C62.5812 5.75873 63.1335 5.36081 63.7732 5.06745C64.4128 4.77409 65.1074 4.62695 65.8577 4.62695C66.608 4.62695 67.3295 4.7815 67.9645 5.08966C68.5995 5.39782 69.1416 5.81148 69.5916 6.32878C70.0416 6.84609 70.3884 7.42355 70.6338 8.06023C70.8784 8.69691 71.0011 9.35395 71.0011 10.0304C71.0011 10.7069 70.8737 11.3963 70.619 12.0376C70.3642 12.679 70.0044 13.2518 69.5395 13.7543C69.0746 14.2568 68.5251 14.6519 67.8901 14.9407C67.2551 15.2294 66.5634 15.3738 65.813 15.3738V15.3728ZM62.7244 9.99989C62.7244 10.458 62.7941 10.9003 62.9345 11.3279C63.0749 11.7554 63.2767 12.1367 63.5416 12.4698C63.8066 12.803 64.1311 13.0667 64.516 13.261C64.901 13.4554 65.3379 13.5516 65.8279 13.5516C66.3179 13.5516 66.7828 13.4498 67.1621 13.2453C67.5415 13.0417 67.8641 12.7706 68.1291 12.4319C68.394 12.0941 68.5912 11.711 68.7213 11.2825C68.8515 10.855 68.9166 10.4265 68.9166 9.99896C68.9166 9.54181 68.8468 9.10132 68.7064 8.6784C68.5661 8.25549 68.3615 7.87792 68.0919 7.54385C67.8223 7.2107 67.4968 6.94696 67.1175 6.75262C66.7372 6.55829 66.303 6.46204 65.813 6.46204C65.3231 6.46204 64.8861 6.56384 64.5012 6.76835C64.1162 6.97194 63.7917 7.24124 63.5268 7.57439C63.2618 7.90754 63.0619 8.28603 62.9271 8.70894C62.7923 9.13185 62.7244 9.56217 62.7244 9.99989Z" fill="#002345"/>
<path d="M9.91029 2.20988C13.6544 2.20988 16.7933 4.8399 17.5566 8.34258H19.8178C19.0228 3.61466 14.8817 0 9.90936 0C4.93701 0 0.794943 3.61466 0 8.34258H2.26117C3.0245 4.8399 6.16429 2.20988 9.90936 2.20988H9.91029Z" fill="#002345"/>
<path d="M9.90936 17.7899C6.16522 17.7899 3.02543 15.1599 2.26117 11.6572H0C0.794943 16.3852 4.93608 19.9998 9.90936 19.9998C14.8826 19.9998 19.0228 16.3852 19.8178 11.6572H17.5566C16.7933 15.1599 13.6544 17.7899 9.91028 17.7899H9.90936Z" fill="#002345"/>
<path d="M8.06376 4.94006H5.86768V15.0604H8.06376V4.94006Z" fill="#002345"/>
<path d="M14.5658 15.06H12.0396L9.23828 11.0632L10.6245 9.44092L14.5658 15.06Z" fill="#002345"/>
<path d="M14.4753 4.94006L10.6224 9.44219L9.23517 11.0635L8.06274 12.4331V9.25526L9.39788 7.69501L11.7548 4.94006H14.4753Z" fill="#002345"/>
</svg>
