<svg width="315" height="49" viewBox="0 0 315 49" fill="none" xmlns="http://www.w3.org/2000/svg">
<g filter="url(#filter0_f_2338_9194)">
<path d="M293.396 46.2251C292.622 46.2406 291.919 46.1862 291.287 46.062C290.67 45.9533 290.196 45.8213 289.864 45.6661L291.121 41.5434L291.476 41.6366C292.788 41.9627 293.894 41.9394 294.794 41.5667C295.711 41.2096 296.477 40.2081 297.094 38.5621L297.734 36.8386L288.063 10.4492H293.586L300.27 30.6663H300.554L307.262 10.4492H312.785L301.881 39.9363C301.376 41.3028 300.736 42.4518 299.962 43.3835C299.187 44.3307 298.255 45.0372 297.165 45.503C296.09 45.9844 294.834 46.2251 293.396 46.2251Z" fill="url(#paint0_linear_2338_9194)"/>
</g>
<g filter="url(#filter1_f_2338_9194)">
<path d="M278.485 37.0248C275.941 37.0248 273.745 36.4503 271.896 35.3012C270.047 34.1522 268.625 32.5683 267.63 30.5497C266.634 28.5311 266.136 26.2175 266.136 23.6089C266.136 20.9536 266.642 18.6167 267.653 16.5981C268.681 14.564 270.111 12.9801 271.944 11.8466C273.792 10.6976 275.957 10.123 278.438 10.123C280.461 10.123 282.254 10.4879 283.818 11.2178C285.399 11.932 286.671 12.9491 287.635 14.2689C288.614 15.5888 289.191 17.126 289.365 18.8807H284.34C284.166 18.0577 283.826 17.3046 283.321 16.6214C282.831 15.9382 282.183 15.3947 281.377 14.991C280.571 14.5873 279.615 14.3854 278.509 14.3854C277.071 14.3854 275.815 14.7581 274.74 15.5034C273.682 16.2332 272.852 17.2813 272.252 18.6478C271.651 20.0142 271.351 21.6291 271.351 23.4924C271.351 25.3713 271.643 27.0094 272.228 28.4069C272.813 29.8044 273.642 30.8836 274.717 31.6444C275.807 32.3898 277.071 32.7624 278.509 32.7624C279.994 32.7624 281.259 32.3587 282.302 31.5513C283.36 30.7438 284.04 29.6414 284.34 28.2439H289.365C289.191 29.9364 288.638 31.4426 287.706 32.7624C286.773 34.0823 285.525 35.1226 283.961 35.8835C282.396 36.6444 280.571 37.0248 278.485 37.0248Z" fill="url(#paint1_linear_2338_9194)"/>
</g>
<g filter="url(#filter2_f_2338_9194)">
<path d="M247.41 21.0468V36.4891H242.29V10.4491H247.268V14.7348H247.623C248.224 13.3218 249.164 12.2038 250.444 11.3808C251.724 10.5423 253.367 10.123 255.374 10.123C257.175 10.123 258.747 10.4957 260.091 11.241C261.449 11.9708 262.5 13.0655 263.243 14.5252C264.001 15.9848 264.381 17.7937 264.381 19.9521V36.4891H259.261V20.5577C259.261 18.6788 258.755 17.2037 257.744 16.1323C256.733 15.0453 255.358 14.5019 253.62 14.5019C252.435 14.5019 251.368 14.7658 250.42 15.2938C249.488 15.8062 248.753 16.5438 248.216 17.5065C247.678 18.4692 247.41 19.6493 247.41 21.0468Z" fill="url(#paint2_linear_2338_9194)"/>
</g>
<g filter="url(#filter3_f_2338_9194)">
<path d="M229.275 37.0248C226.684 37.0248 224.44 36.4736 222.544 35.3711C220.648 34.2686 219.186 32.7159 218.159 30.7128C217.148 28.6942 216.642 26.3417 216.642 23.6554C216.642 20.9847 217.14 18.6322 218.135 16.5981C219.147 14.564 220.561 12.9801 222.378 11.8466C224.211 10.6976 226.36 10.123 228.825 10.123C230.326 10.123 231.78 10.3637 233.186 10.8451C234.593 11.3264 235.857 12.0873 236.979 13.1277C238.101 14.168 238.986 15.5189 239.633 17.1804C240.297 18.8419 240.629 20.8449 240.629 23.1896V25.0064H219.557V21.2098H237.974L235.58 22.4676C235.58 20.8682 235.327 19.4552 234.822 18.2285C234.316 17.0018 233.558 16.0469 232.546 15.3636C231.551 14.6649 230.31 14.3155 228.825 14.3155C227.34 14.3155 226.068 14.6649 225.009 15.3636C223.966 16.0624 223.168 16.9863 222.615 18.1353C222.062 19.2844 221.786 20.5421 221.786 21.9086V24.4939C221.786 26.2796 222.102 27.7936 222.734 29.0358C223.366 30.278 224.243 31.2252 225.365 31.8774C226.502 32.5295 227.822 32.8556 229.323 32.8556C230.303 32.8556 231.187 32.7159 231.978 32.4364C232.783 32.1569 233.479 31.7376 234.063 31.1786C234.648 30.6196 235.09 29.9286 235.391 29.1057L240.273 30.014C239.878 31.4115 239.183 32.6382 238.188 33.6941C237.192 34.75 235.936 35.573 234.419 36.163C232.918 36.7375 231.203 37.0248 229.275 37.0248Z" fill="url(#paint3_linear_2338_9194)"/>
</g>
<g filter="url(#filter4_f_2338_9194)">
<path d="M202.94 46.784C199.78 46.784 197.291 46.2017 195.474 45.0371C193.657 43.8725 192.401 42.4905 191.705 40.8912L196.114 39.0977C196.43 39.5946 196.849 40.1226 197.37 40.6816C197.907 41.2406 198.626 41.7142 199.527 42.1024C200.428 42.4905 201.589 42.6846 203.011 42.6846C204.955 42.6846 206.567 42.2188 207.847 41.2871C209.127 40.371 209.766 38.8959 209.766 36.8618V31.7609H209.411C209.127 32.3044 208.692 32.9177 208.107 33.6009C207.523 34.2686 206.725 34.8509 205.713 35.3478C204.702 35.8447 203.383 36.0931 201.755 36.0931C199.669 36.0931 197.789 35.6118 196.114 34.6491C194.455 33.6708 193.127 32.2423 192.132 30.3634C191.152 28.469 190.662 26.1399 190.662 23.3759C190.662 20.612 191.144 18.244 192.108 16.272C193.088 14.2845 194.415 12.7628 196.09 11.7069C197.765 10.651 199.669 10.123 201.802 10.123C203.446 10.123 204.773 10.3948 205.784 10.9383C206.812 11.4662 207.61 12.0873 208.178 12.8016C208.747 13.5158 209.19 14.1447 209.506 14.6882H209.885V10.4491H214.886V37.0714C214.886 39.3074 214.357 41.1396 213.298 42.5682C212.255 43.9967 210.833 45.0526 209.032 45.7358C207.23 46.4346 205.2 46.784 202.94 46.784ZM202.893 31.8774C205.121 31.8774 206.827 31.1243 208.012 29.6181C209.213 28.0964 209.814 25.9924 209.814 23.3061C209.814 21.5514 209.553 20.0142 209.032 18.6943C208.51 17.359 207.736 16.3186 206.709 15.5733C205.682 14.8124 204.41 14.432 202.893 14.432C201.344 14.432 200.048 14.8279 199.006 15.6199C197.978 16.3962 197.204 17.4599 196.683 18.8108C196.161 20.1462 195.901 21.6446 195.901 23.3061C195.901 24.9986 196.161 26.497 196.683 27.8013C197.204 29.0901 197.986 30.0917 199.029 30.8059C200.088 31.5202 201.376 31.8774 202.893 31.8774Z" fill="url(#paint4_linear_2338_9194)"/>
</g>
<g filter="url(#filter5_f_2338_9194)">
<path d="M165.749 36.4886H160.084L172.789 1.78418H178.952L191.632 36.4886H185.991L175.989 8.09619H175.704L165.749 36.4886ZM166.697 22.9096H185.019V27.2884H166.697V22.9096Z" fill="url(#paint5_linear_2338_9194)"/>
</g>
<g filter="url(#filter6_f_2338_9194)">
<path d="M140.479 37.0248C137.887 37.0248 135.643 36.4736 133.747 35.3711C131.851 34.2686 130.389 32.7159 129.362 30.7128C128.351 28.6942 127.845 26.3417 127.845 23.6554C127.845 20.9847 128.343 18.6322 129.338 16.5981C130.35 14.564 131.764 12.9801 133.581 11.8466C135.414 10.6976 137.563 10.123 140.028 10.123C141.529 10.123 142.983 10.3637 144.389 10.8451C145.796 11.3264 147.06 12.0873 148.182 13.1277C149.304 14.168 150.189 15.5189 150.837 17.1804C151.5 18.8419 151.832 20.8449 151.832 23.1896V25.0064H130.761V21.2098H149.177L146.783 22.4676C146.783 20.8682 146.531 19.4552 146.025 18.2285C145.519 17.0018 144.761 16.0469 143.75 15.3636C142.754 14.6649 141.514 14.3155 140.028 14.3155C138.543 14.3155 137.271 14.6649 136.212 15.3636C135.169 16.0624 134.371 16.9863 133.818 18.1353C133.265 19.2844 132.989 20.5421 132.989 21.9086V24.4939C132.989 26.2796 133.305 27.7936 133.937 29.0358C134.569 30.278 135.446 31.2252 136.568 31.8774C137.705 32.5295 139.025 32.8556 140.526 32.8556C141.506 32.8556 142.391 32.7159 143.181 32.4364C143.987 32.1569 144.682 31.7376 145.266 31.1786C145.851 30.6196 146.294 29.9286 146.594 29.1057L151.477 30.014C151.081 31.4115 150.386 32.6382 149.391 33.6941C148.395 34.75 147.139 35.573 145.622 36.163C144.121 36.7375 142.406 37.0248 140.479 37.0248Z" fill="url(#paint6_linear_2338_9194)"/>
</g>
<g filter="url(#filter7_f_2338_9194)">
<path d="M126.896 16.831L122.226 17.6229C121.926 16.7534 121.365 15.9537 120.543 15.2239C119.737 14.4941 118.529 14.1292 116.917 14.1292C115.463 14.1292 114.246 14.4553 113.267 15.1074C112.303 15.7441 111.821 16.5593 111.821 17.5531C111.821 18.4226 112.145 19.1291 112.793 19.6726C113.456 20.2161 114.507 20.6508 115.945 20.9769L120.188 21.9086C122.605 22.452 124.415 23.3061 125.616 24.4706C126.817 25.6352 127.417 27.1259 127.417 28.9426C127.417 30.5109 126.959 31.9084 126.042 33.1351C125.126 34.3463 123.854 35.3012 122.226 36C120.599 36.6832 118.718 37.0248 116.585 37.0248C113.614 37.0248 111.197 36.3959 109.332 35.1382C107.468 33.8804 106.322 32.1103 105.895 29.8277L110.849 29.0824C111.165 30.3556 111.805 31.3184 112.769 31.9705C113.749 32.6227 115.013 32.9488 116.561 32.9488C118.236 32.9488 119.579 32.5994 120.591 31.9007C121.618 31.2019 122.131 30.3556 122.131 29.3619C122.131 27.7159 120.883 26.6057 118.386 26.0312L113.907 25.0529C111.426 24.4939 109.593 23.6166 108.408 22.421C107.238 21.2098 106.654 19.6881 106.654 17.8558C106.654 16.3186 107.088 14.9677 107.957 13.8031C108.842 12.6385 110.051 11.7379 111.584 11.1013C113.132 10.4491 114.894 10.123 116.869 10.123C119.745 10.123 121.997 10.7364 123.625 11.9631C125.268 13.1898 126.358 14.8124 126.896 16.831Z" fill="url(#paint7_linear_2338_9194)"/>
</g>
<g filter="url(#filter8_f_2338_9194)">
<path d="M87.1207 21.0468V36.4891H82.001V10.4491H86.9785V14.7348H87.334C87.9345 13.3218 88.8747 12.2038 90.1546 11.3808C91.4345 10.5423 93.0779 10.123 95.0847 10.123C96.8861 10.123 98.4583 10.4957 99.8015 11.241C101.16 11.9708 102.211 13.0655 102.954 14.5252C103.712 15.9848 104.092 17.7937 104.092 19.9521V36.4891H98.9719V20.5577C98.9719 18.6788 98.4662 17.2037 97.4549 16.1323C96.4436 15.0453 95.0689 14.5019 93.3307 14.5019C92.1456 14.5019 91.079 14.7658 90.1309 15.2938C89.1986 15.8062 88.4638 16.5438 87.9266 17.5065C87.3893 18.4692 87.1207 19.6493 87.1207 21.0468Z" fill="url(#paint8_linear_2338_9194)"/>
</g>
<g filter="url(#filter9_f_2338_9194)">
<path d="M68.9867 37.0248C66.3952 37.0248 64.1514 36.4736 62.2552 35.3711C60.359 34.2686 58.8973 32.7159 57.8702 30.7128C56.8589 28.6942 56.3533 26.3417 56.3533 23.6554C56.3533 20.9847 56.851 18.6322 57.8465 16.5981C58.8578 14.564 60.2721 12.9801 62.0892 11.8466C63.9222 10.6976 66.0713 10.123 68.5363 10.123C70.0375 10.123 71.4912 10.3637 72.8975 10.8451C74.3039 11.3264 75.568 12.0873 76.6899 13.1277C77.8118 14.168 78.6967 15.5189 79.3446 17.1804C80.0083 18.8419 80.3401 20.8449 80.3401 23.1896V25.0064H59.2687V21.2098H77.6854L75.2915 22.4676C75.2915 20.8682 75.0387 19.4552 74.533 18.2285C74.0274 17.0018 73.2689 16.0469 72.2576 15.3636C71.2621 14.6649 70.0217 14.3155 68.5363 14.3155C67.051 14.3155 65.7789 14.6649 64.7202 15.3636C63.6773 16.0624 62.8793 16.9863 62.3263 18.1353C61.7732 19.2844 61.4967 20.5421 61.4967 21.9086V24.4939C61.4967 26.2796 61.8127 27.7936 62.4448 29.0358C63.0768 30.278 63.9538 31.2252 65.0757 31.8774C66.2135 32.5295 67.5329 32.8556 69.034 32.8556C70.0137 32.8556 70.8986 32.7159 71.6887 32.4364C72.4946 32.1569 73.1899 31.7376 73.7745 31.1786C74.3592 30.6196 74.8016 29.9286 75.1019 29.1057L79.9846 30.014C79.5895 31.4115 78.8942 32.6382 77.8987 33.6941C76.9032 34.75 75.647 35.573 74.1301 36.163C72.6289 36.7375 70.9144 37.0248 68.9867 37.0248Z" fill="url(#paint9_linear_2338_9194)"/>
</g>
<g filter="url(#filter10_f_2338_9194)">
<path d="M55.4034 16.831L50.734 17.6229C50.4338 16.7534 49.8728 15.9537 49.0512 15.2239C48.2453 14.4941 47.0365 14.1292 45.4247 14.1292C43.9709 14.1292 42.7542 14.4553 41.7745 15.1074C40.8106 15.7441 40.3287 16.5593 40.3287 17.5531C40.3287 18.4226 40.6526 19.1291 41.3005 19.6726C41.9641 20.2161 43.0149 20.6508 44.4529 20.9769L48.6956 21.9086C51.1133 22.452 52.9225 23.3061 54.1235 24.4706C55.3244 25.6352 55.9248 27.1259 55.9248 28.9426C55.9248 30.5109 55.4666 31.9084 54.5501 33.1351C53.6336 34.3463 52.3616 35.3012 50.734 36C49.1065 36.6832 47.2261 37.0248 45.0929 37.0248C42.1222 37.0248 39.7045 36.3959 37.8399 35.1382C35.9753 33.8804 34.8297 32.1103 34.4031 29.8277L39.3569 29.0824C39.6729 30.3556 40.3129 31.3184 41.2768 31.9705C42.2565 32.6227 43.5206 32.9488 45.0692 32.9488C46.7441 32.9488 48.0873 32.5994 49.0986 31.9007C50.1257 31.2019 50.6392 30.3556 50.6392 29.3619C50.6392 27.7159 49.3909 26.6057 46.8942 26.0312L42.4145 25.0529C39.9336 24.4939 38.1007 23.6166 36.9155 22.421C35.7462 21.2098 35.1616 19.6881 35.1616 17.8558C35.1616 16.3186 35.5961 14.9677 36.4652 13.8031C37.3501 12.6385 38.5589 11.7379 40.0917 11.1013C41.6402 10.4491 43.4021 10.123 45.3773 10.123C48.2532 10.123 50.5049 10.7364 52.1325 11.9631C53.7758 13.1898 54.8661 14.8124 55.4034 16.831Z" fill="url(#paint10_linear_2338_9194)"/>
</g>
<g filter="url(#filter11_f_2338_9194)">
<path d="M15.6288 21.0468V36.4891H10.509V10.4491H15.4865V14.7348H15.8421C16.4425 13.3218 17.3827 12.2038 18.6627 11.3808C19.9426 10.5423 21.586 10.123 23.5928 10.123C25.3941 10.123 26.9664 10.4957 28.3095 11.241C29.6685 11.9708 30.7193 13.0655 31.462 14.5252C32.2204 15.9848 32.5997 17.7937 32.5997 19.9521V36.4891H27.4799V20.5577C27.4799 18.6788 26.9743 17.2037 25.963 16.1323C24.9517 15.0453 23.577 14.5019 21.8388 14.5019C20.6537 14.5019 19.587 14.7658 18.639 15.2938C17.7067 15.8062 16.9719 16.5438 16.4346 17.5065C15.8974 18.4692 15.6288 19.6493 15.6288 21.0468Z" fill="url(#paint11_linear_2338_9194)"/>
</g>
<g filter="url(#filter12_f_2338_9194)">
<path d="M7.11771 1.78418V36.4886H1.78467V1.78418H7.11771Z" fill="url(#paint12_linear_2338_9194)"/>
</g>
<defs>
<filter id="filter0_f_2338_9194" x="286.278" y="8.66457" width="28.2909" height="39.3476" filterUnits="userSpaceOnUse" color-interpolation-filters="sRGB">
<feFlood flood-opacity="0" result="BackgroundImageFix"/>
<feBlend mode="normal" in="SourceGraphic" in2="BackgroundImageFix" result="shape"/>
<feGaussianBlur stdDeviation="0.892325" result="effect1_foregroundBlur_2338_9194"/>
</filter>
<filter id="filter1_f_2338_9194" x="264.352" y="8.3384" width="26.7976" height="30.4707" filterUnits="userSpaceOnUse" color-interpolation-filters="sRGB">
<feFlood flood-opacity="0" result="BackgroundImageFix"/>
<feBlend mode="normal" in="SourceGraphic" in2="BackgroundImageFix" result="shape"/>
<feGaussianBlur stdDeviation="0.892325" result="effect1_foregroundBlur_2338_9194"/>
</filter>
<filter id="filter2_f_2338_9194" x="240.505" y="8.3384" width="25.6599" height="29.9355" filterUnits="userSpaceOnUse" color-interpolation-filters="sRGB">
<feFlood flood-opacity="0" result="BackgroundImageFix"/>
<feBlend mode="normal" in="SourceGraphic" in2="BackgroundImageFix" result="shape"/>
<feGaussianBlur stdDeviation="0.892325" result="effect1_foregroundBlur_2338_9194"/>
</filter>
<filter id="filter3_f_2338_9194" x="214.857" y="8.3384" width="27.5561" height="30.4707" filterUnits="userSpaceOnUse" color-interpolation-filters="sRGB">
<feFlood flood-opacity="0" result="BackgroundImageFix"/>
<feBlend mode="normal" in="SourceGraphic" in2="BackgroundImageFix" result="shape"/>
<feGaussianBlur stdDeviation="0.892325" result="effect1_foregroundBlur_2338_9194"/>
</filter>
<filter id="filter4_f_2338_9194" x="188.878" y="8.3384" width="27.7932" height="40.2304" filterUnits="userSpaceOnUse" color-interpolation-filters="sRGB">
<feFlood flood-opacity="0" result="BackgroundImageFix"/>
<feBlend mode="normal" in="SourceGraphic" in2="BackgroundImageFix" result="shape"/>
<feGaussianBlur stdDeviation="0.892325" result="effect1_foregroundBlur_2338_9194"/>
</filter>
<filter id="filter5_f_2338_9194" x="158.3" y="-0.000471234" width="35.1172" height="38.2734" filterUnits="userSpaceOnUse" color-interpolation-filters="sRGB">
<feFlood flood-opacity="0" result="BackgroundImageFix"/>
<feBlend mode="normal" in="SourceGraphic" in2="BackgroundImageFix" result="shape"/>
<feGaussianBlur stdDeviation="0.892325" result="effect1_foregroundBlur_2338_9194"/>
</filter>
<filter id="filter6_f_2338_9194" x="126.061" y="8.3384" width="27.5561" height="30.4707" filterUnits="userSpaceOnUse" color-interpolation-filters="sRGB">
<feFlood flood-opacity="0" result="BackgroundImageFix"/>
<feBlend mode="normal" in="SourceGraphic" in2="BackgroundImageFix" result="shape"/>
<feGaussianBlur stdDeviation="0.892325" result="effect1_foregroundBlur_2338_9194"/>
</filter>
<filter id="filter7_f_2338_9194" x="104.111" y="8.3384" width="25.091" height="30.4707" filterUnits="userSpaceOnUse" color-interpolation-filters="sRGB">
<feFlood flood-opacity="0" result="BackgroundImageFix"/>
<feBlend mode="normal" in="SourceGraphic" in2="BackgroundImageFix" result="shape"/>
<feGaussianBlur stdDeviation="0.892325" result="effect1_foregroundBlur_2338_9194"/>
</filter>
<filter id="filter8_f_2338_9194" x="80.2163" y="8.3384" width="25.6599" height="29.9355" filterUnits="userSpaceOnUse" color-interpolation-filters="sRGB">
<feFlood flood-opacity="0" result="BackgroundImageFix"/>
<feBlend mode="normal" in="SourceGraphic" in2="BackgroundImageFix" result="shape"/>
<feGaussianBlur stdDeviation="0.892325" result="effect1_foregroundBlur_2338_9194"/>
</filter>
<filter id="filter9_f_2338_9194" x="54.5686" y="8.3384" width="27.5561" height="30.4707" filterUnits="userSpaceOnUse" color-interpolation-filters="sRGB">
<feFlood flood-opacity="0" result="BackgroundImageFix"/>
<feBlend mode="normal" in="SourceGraphic" in2="BackgroundImageFix" result="shape"/>
<feGaussianBlur stdDeviation="0.892325" result="effect1_foregroundBlur_2338_9194"/>
</filter>
<filter id="filter10_f_2338_9194" x="32.6184" y="8.3384" width="25.091" height="30.4707" filterUnits="userSpaceOnUse" color-interpolation-filters="sRGB">
<feFlood flood-opacity="0" result="BackgroundImageFix"/>
<feBlend mode="normal" in="SourceGraphic" in2="BackgroundImageFix" result="shape"/>
<feGaussianBlur stdDeviation="0.892325" result="effect1_foregroundBlur_2338_9194"/>
</filter>
<filter id="filter11_f_2338_9194" x="8.72438" y="8.3384" width="25.6599" height="29.9355" filterUnits="userSpaceOnUse" color-interpolation-filters="sRGB">
<feFlood flood-opacity="0" result="BackgroundImageFix"/>
<feBlend mode="normal" in="SourceGraphic" in2="BackgroundImageFix" result="shape"/>
<feGaussianBlur stdDeviation="0.892325" result="effect1_foregroundBlur_2338_9194"/>
</filter>
<filter id="filter12_f_2338_9194" x="1.70469e-05" y="-0.000471234" width="8.90231" height="38.2734" filterUnits="userSpaceOnUse" color-interpolation-filters="sRGB">
<feFlood flood-opacity="0" result="BackgroundImageFix"/>
<feBlend mode="normal" in="SourceGraphic" in2="BackgroundImageFix" result="shape"/>
<feGaussianBlur stdDeviation="0.892325" result="effect1_foregroundBlur_2338_9194"/>
</filter>
<linearGradient id="paint0_linear_2338_9194" x1="154.519" y1="5.24944" x2="154.519" y2="40.7027" gradientUnits="userSpaceOnUse">
<stop stop-color="white"/>
<stop offset="1" stop-color="#F9FAFF"/>
</linearGradient>
<linearGradient id="paint1_linear_2338_9194" x1="154.519" y1="5.24937" x2="154.519" y2="40.7026" gradientUnits="userSpaceOnUse">
<stop stop-color="white"/>
<stop offset="1" stop-color="#F9FAFF"/>
</linearGradient>
<linearGradient id="paint2_linear_2338_9194" x1="154.519" y1="5.24937" x2="154.519" y2="40.7026" gradientUnits="userSpaceOnUse">
<stop stop-color="white"/>
<stop offset="1" stop-color="#F9FAFF"/>
</linearGradient>
<linearGradient id="paint3_linear_2338_9194" x1="154.519" y1="5.24937" x2="154.519" y2="40.7026" gradientUnits="userSpaceOnUse">
<stop stop-color="white"/>
<stop offset="1" stop-color="#F9FAFF"/>
</linearGradient>
<linearGradient id="paint4_linear_2338_9194" x1="154.519" y1="5.24937" x2="154.519" y2="40.7026" gradientUnits="userSpaceOnUse">
<stop stop-color="white"/>
<stop offset="1" stop-color="#F9FAFF"/>
</linearGradient>
<linearGradient id="paint5_linear_2338_9194" x1="154.519" y1="5.24888" x2="154.519" y2="40.7021" gradientUnits="userSpaceOnUse">
<stop stop-color="white"/>
<stop offset="1" stop-color="#F9FAFF"/>
</linearGradient>
<linearGradient id="paint6_linear_2338_9194" x1="154.519" y1="5.24937" x2="154.519" y2="40.7026" gradientUnits="userSpaceOnUse">
<stop stop-color="white"/>
<stop offset="1" stop-color="#F9FAFF"/>
</linearGradient>
<linearGradient id="paint7_linear_2338_9194" x1="154.519" y1="5.24937" x2="154.519" y2="40.7026" gradientUnits="userSpaceOnUse">
<stop stop-color="white"/>
<stop offset="1" stop-color="#F9FAFF"/>
</linearGradient>
<linearGradient id="paint8_linear_2338_9194" x1="154.519" y1="5.24937" x2="154.519" y2="40.7026" gradientUnits="userSpaceOnUse">
<stop stop-color="white"/>
<stop offset="1" stop-color="#F9FAFF"/>
</linearGradient>
<linearGradient id="paint9_linear_2338_9194" x1="154.519" y1="5.24937" x2="154.519" y2="40.7026" gradientUnits="userSpaceOnUse">
<stop stop-color="white"/>
<stop offset="1" stop-color="#F9FAFF"/>
</linearGradient>
<linearGradient id="paint10_linear_2338_9194" x1="154.519" y1="5.24937" x2="154.519" y2="40.7026" gradientUnits="userSpaceOnUse">
<stop stop-color="white"/>
<stop offset="1" stop-color="#F9FAFF"/>
</linearGradient>
<linearGradient id="paint11_linear_2338_9194" x1="154.519" y1="5.24937" x2="154.519" y2="40.7026" gradientUnits="userSpaceOnUse">
<stop stop-color="white"/>
<stop offset="1" stop-color="#F9FAFF"/>
</linearGradient>
<linearGradient id="paint12_linear_2338_9194" x1="154.519" y1="5.24888" x2="154.519" y2="40.7021" gradientUnits="userSpaceOnUse">
<stop stop-color="white"/>
<stop offset="1" stop-color="#F9FAFF"/>
</linearGradient>
</defs>
</svg>
