<svg width="121" height="39" viewBox="0 0 121 39" fill="none" xmlns="http://www.w3.org/2000/svg">
<path d="M108.119 11.6294L108.11 5.82122L108.102 0.0130005L108.622 0.512557C108.909 0.787727 110.23 2.0762 111.56 3.3765C112.889 4.67679 114.001 5.74736 114.033 5.7556C114.063 5.76384 115.399 4.48131 117 2.90587C118.601 1.33042 119.931 0.052034 119.955 0.0650131C119.98 0.0779921 120.003 2.68206 120.012 11.6164L116.817 11.6199L116.815 9.49168C116.814 8.32117 116.79 7.3635 116.762 7.36353C116.734 7.36357 116.116 7.9631 114.064 10.0268L111.309 7.28085L111.314 11.6259L108.119 11.6294Z" fill="#002345"/>
<path fill-rule="evenodd" clip-rule="evenodd" d="M0.0473082 2.88057C0.0715684 2.88054 1.11114 3.8968 4.62326 7.39798L4.634 17.1818L6.30556 17.1575C7.51915 17.1396 8.08243 17.1088 8.36164 17.0435C8.57283 16.9942 8.9863 16.8643 9.27967 16.7546C9.57244 16.6449 10.0461 16.4085 10.3317 16.2297C10.6173 16.0508 11.0182 15.7442 11.2221 15.5489C11.4266 15.3535 11.6849 15.0825 11.9981 14.7003L13.5572 16.2161C14.9729 17.592 15.1127 17.7455 15.0744 17.8797C15.0514 17.9608 14.737 18.3223 14.3758 18.6821C13.9361 19.1213 13.5045 19.48 13.0688 19.769C12.711 20.007 12.2054 20.302 11.9452 20.4252C11.685 20.5484 11.2189 20.7299 10.9102 20.8289C10.6014 20.9274 10.1222 21.0503 9.84538 21.1008C9.56852 21.152 9.06327 21.2211 8.7213 21.2552C8.36157 21.2911 6.40126 21.3186 0.0231823 21.325L0.013056 12.1028C0.00748652 7.03061 0.0230479 2.88059 0.0473082 2.88057L0.0473082 2.88057ZM69.1807 9.26672C69.5882 9.66885 74.0137 14.0469 79.0144 18.9948C84.0151 23.9433 88.1071 28.0197 88.1071 28.0539C88.1072 28.0953 87.235 28.1205 82.7226 28.1474L72.7361 18.2598L72.7447 21.2452L68.366 21.25L68.349 14.9346C68.3396 11.235 68.3545 8.60138 68.3858 8.5771C68.4154 8.55461 68.7725 8.86458 69.1807 9.26672ZM95.2983 2.78425C95.4285 2.77997 95.8344 2.80258 96.2007 2.83469C96.567 2.86622 97.1263 2.94837 97.4435 3.01718C97.7608 3.08541 98.2206 3.2061 98.4645 3.28564C98.709 3.36517 99.2548 3.59809 99.6781 3.80394C100.101 4.0092 100.688 4.34611 100.981 4.55211C101.274 4.75811 101.822 5.23221 102.198 5.60601C102.683 6.08728 103.015 6.483 103.335 6.96445C103.584 7.33779 103.907 7.89609 104.052 8.20511C104.197 8.51354 104.389 8.97917 104.477 9.23919C104.565 9.49921 104.687 9.95132 104.748 10.2439C104.81 10.5364 104.887 11.0885 104.921 11.4704C104.963 11.9397 104.964 12.3854 104.925 12.8448C104.893 13.2185 104.824 13.7311 104.774 13.983C104.723 14.2349 104.589 14.7204 104.476 15.0622C104.364 15.4034 104.12 15.9742 103.934 16.3297C103.75 16.6852 103.571 16.9845 103.539 16.9952C103.506 17.0058 102.725 16.2636 100.126 13.6777L100.219 13.1751C100.269 12.8984 100.31 12.4331 100.31 12.1405C100.309 11.8479 100.281 11.4489 100.246 11.2538C100.211 11.0588 100.127 10.726 100.059 10.5151C99.9906 10.3041 99.8547 9.9714 99.7568 9.77643C99.659 9.58145 99.4705 9.26242 99.3371 9.06748C99.2038 8.87255 98.9342 8.55716 98.7381 8.36643C98.5415 8.17569 98.1944 7.89704 97.9665 7.74714C97.7385 7.59723 97.3187 7.38842 97.034 7.28232C96.738 7.17269 96.2811 7.05969 95.9686 7.01983C95.5449 6.96472 95.3076 6.96499 94.9183 7.0198C94.6421 7.05853 94.2558 7.14467 93.7057 7.33209L92.1507 5.7808C91.2953 4.9275 90.6034 4.20289 90.6135 4.17037C90.6229 4.13784 90.8695 3.98623 91.1604 3.83339C91.4514 3.68055 92.0091 3.44879 92.3995 3.31831C92.7899 3.18782 93.3223 3.03826 93.5826 2.98595C93.8429 2.93364 94.2824 2.86813 94.5587 2.84123C94.835 2.81432 95.1681 2.78913 95.2983 2.78425ZM24.9447 7.03633C27.227 9.30214 30.8748 12.9102 37.0062 18.9493L37.0076 21.8313C37.0085 23.6917 36.9883 24.7239 36.9499 24.7428C36.9173 24.7588 34.2986 22.2149 25.3694 13.4051L25.3582 17.7207C25.3506 20.5015 25.3257 22.0575 25.2878 22.0954C25.2482 22.135 24.4794 21.4076 20.7291 17.6666L20.711 10.3314C20.7013 6.29671 20.716 2.97788 20.7438 2.95538C20.7721 2.93348 22.6623 4.76994 24.9447 7.03633ZM46.1024 7.41155L46.1105 14.7864C46.1169 20.6271 46.1032 22.1689 46.0447 22.1973C45.9991 22.2198 45.1035 21.3672 41.4978 17.762L41.4802 10.3677C41.4695 5.97182 41.4845 2.95626 41.5164 2.93139C41.546 2.9083 42.5903 3.90682 46.1024 7.41155ZM7.57312 3.24297C8.38734 3.26217 9.05307 3.30932 9.41172 3.37337C9.72065 3.4286 10.2001 3.53862 10.4771 3.61812C10.7535 3.69704 11.2063 3.85852 11.4834 3.97586C11.7598 4.09379 12.1997 4.31145 12.4602 4.46014C12.7208 4.60882 13.1335 4.88031 13.3781 5.0633C13.622 5.2463 14.0058 5.56451 14.2303 5.77058C14.4554 5.97666 14.8079 6.37117 15.0153 6.64761C15.2221 6.92346 15.5244 7.41557 15.6869 7.74053C15.8494 8.0655 16.076 8.6103 16.19 8.95187C16.304 9.29344 16.4501 9.82533 16.5156 10.1339C16.5804 10.4424 16.6644 11.0015 16.7021 11.3751C16.741 11.7629 16.7535 12.3215 16.7314 12.6756C16.7104 13.0174 16.6812 13.3431 16.6677 13.3999C16.6535 13.4567 16.6151 13.5034 16.5826 13.5034C16.55 13.5035 14.2055 11.2117 11.3723 8.41033C8.53962 5.60894 6.23827 3.29409 6.25895 3.2651C6.27963 3.2367 6.86719 3.2266 7.57312 3.24297ZM32.3108 3.19984L36.9262 3.19477L36.9316 8.13102C36.9359 12.0209 36.9217 13.075 36.8631 13.104C36.8176 13.1271 35.9315 12.2833 32.3168 8.66814L32.3108 3.19984ZM50.4285 3.16872L54.7569 3.19234C58.164 3.21106 59.2303 3.23531 59.7665 3.30566C60.1405 3.35432 60.6199 3.43537 60.8318 3.48539C61.043 3.53482 61.3763 3.6314 61.5716 3.69917C61.767 3.76694 62.0997 3.91732 62.3116 4.03296C62.523 4.14919 62.8564 4.37051 63.0518 4.52459C63.2473 4.67867 63.5405 4.9491 63.7034 5.12509C63.8663 5.30049 64.124 5.63008 64.277 5.85633C64.4293 6.08258 64.6474 6.46719 64.7613 6.71122C64.8752 6.95465 65.0384 7.39371 65.1233 7.68625C65.2083 7.97878 65.304 8.37772 65.3356 8.57277C65.3671 8.76782 65.3937 9.25964 65.3947 9.66636C65.3958 10.0725 65.3562 10.6448 65.3062 10.9375C65.2568 11.2302 65.1596 11.6423 65.0912 11.854C65.0228 12.0651 64.867 12.4377 64.7448 12.682C64.6232 12.9257 64.4052 13.2854 64.2599 13.4806C64.1151 13.6759 63.8131 14.0179 63.5891 14.2404C63.3645 14.463 62.9814 14.7767 62.7378 14.9378C62.4936 15.0982 62.0944 15.3074 61.8508 15.4016C61.6065 15.4959 61.1741 15.6288 60.3719 15.82L59.9129 15.4109C59.66 15.1853 58.977 14.5281 58.3947 13.9494C57.7502 13.3087 57.3509 12.8681 57.3728 12.8231C57.3935 12.7823 57.4697 12.7497 57.5431 12.7502C57.6159 12.7508 57.9158 12.6818 58.2086 12.5976C58.5014 12.5127 58.9403 12.3396 59.1845 12.2134C59.4282 12.0867 59.7877 11.8397 59.9827 11.6645C60.1891 11.4793 60.4166 11.2 60.527 10.9965C60.6575 10.7552 60.7371 10.5003 60.7835 10.1739C60.8387 9.78724 60.8343 9.61994 60.7624 9.25763C60.7136 9.01353 60.6108 8.68259 60.5337 8.52129C60.456 8.36058 60.2729 8.09889 60.1266 7.94003C59.9797 7.78116 59.7268 7.58754 59.564 7.50968C59.4012 7.43183 59.068 7.34233 58.8241 7.31127C58.5797 7.27962 57.6276 7.25406 55.0371 7.25395L55.04 8.83532C55.0422 9.70493 55.0228 10.4356 54.9974 10.4587C54.9726 10.4818 53.9325 9.49864 50.4222 6.04712L50.4285 3.16872ZM72.4166 3.15639C74.3597 3.15485 76.3887 3.17923 76.9255 3.21115C77.4628 3.24248 78.1552 3.31089 78.4641 3.36317C78.7736 3.41485 79.2394 3.52784 79.4999 3.61446C79.7603 3.70107 80.1469 3.86913 80.3583 3.98713C80.5702 4.10573 80.9232 4.35067 81.1429 4.53133C81.3632 4.71258 81.6831 5.03086 81.8537 5.23877C82.0249 5.44726 82.2513 5.75974 82.3568 5.93284C82.4624 6.10653 82.6409 6.46103 82.7542 6.72102C82.8669 6.98101 83.0135 7.40649 83.08 7.66653C83.1466 7.92657 83.2288 8.38582 83.2622 8.6861C83.3035 9.05908 83.3039 9.45398 83.2624 9.92755C83.2297 10.3101 83.1622 10.7955 83.1127 11.0066C83.0632 11.2183 82.9542 11.5642 82.8704 11.7754C82.7866 11.9871 82.6177 12.3331 82.4955 12.5443C82.3732 12.7561 82.1032 13.1288 81.8952 13.3726C81.6878 13.617 81.3059 13.978 81.0476 14.1758C80.7886 14.3735 80.5107 14.5559 80.4291 14.5808C80.2942 14.6229 80.1509 14.4966 78.7855 13.1307C77.9627 12.3075 77.2897 11.6207 77.2897 11.6042C77.2903 11.5882 77.4411 11.4946 77.625 11.3969C77.8095 11.2991 78.0637 11.0996 78.1902 10.9529C78.3166 10.8067 78.4785 10.5671 78.5494 10.4204C78.6586 10.1957 78.6785 10.0532 78.6779 9.5028C78.6773 8.89213 78.6659 8.82711 78.4904 8.46847C78.3706 8.22326 78.1845 7.97458 77.9719 7.77559C77.7456 7.56421 77.5419 7.43437 77.3294 7.36721C77.0702 7.28532 76.6719 7.26566 72.8175 7.22733L70.8218 5.23788C69.7242 4.14365 68.8385 3.2289 68.8551 3.20405C68.871 3.1798 70.474 3.15853 72.4166 3.15639ZM87.5692 6.92264C87.5916 6.92262 88.3492 7.66015 90.8952 10.2L90.8026 10.4661C90.7513 10.6128 90.6729 10.9055 90.6282 11.1166C90.5829 11.3283 90.5461 11.8137 90.5459 12.1955C90.5458 12.578 90.5842 13.0698 90.6306 13.2891C90.6776 13.509 90.7785 13.8612 90.8545 14.0722C90.9311 14.2837 91.1126 14.669 91.259 14.9289C91.4463 15.2621 91.691 15.5675 92.0873 15.9626C92.4712 16.3452 92.7916 16.6026 93.0941 16.7713C93.3387 16.907 93.7513 17.0904 94.0117 17.1777C94.3947 17.3061 94.6273 17.3419 95.225 17.3631C95.7847 17.3832 96.0658 17.3658 96.3787 17.2909C96.6065 17.2369 96.9791 17.1141 97.6208 16.8438L99.1604 18.3644C100.007 19.2006 100.708 19.911 100.717 19.9435C100.727 19.976 100.568 20.1003 100.364 20.2187C100.159 20.3378 99.8456 20.5084 99.6664 20.5973C99.4878 20.6867 99.1016 20.8521 98.8088 20.9647C98.516 21.0774 98.0103 21.2322 97.6849 21.3088C97.3596 21.3855 96.8271 21.4806 96.5017 21.52C96.1296 21.5653 95.5817 21.579 95.0225 21.5571C94.4893 21.5358 93.8993 21.4726 93.543 21.3985C93.2175 21.3309 92.6848 21.1872 92.3592 21.08C92.0337 20.9722 91.4879 20.7452 91.1457 20.5747C90.8041 20.4042 90.2978 20.111 90.0207 19.9221C89.7442 19.7338 89.3178 19.4062 89.0732 19.1948C88.8291 18.9835 88.4477 18.6032 88.2255 18.3498C88.0033 18.0958 87.6614 17.6493 87.4652 17.3569C87.269 17.0645 86.9803 16.5593 86.8238 16.2344C86.6672 15.9094 86.4696 15.4308 86.3853 15.1707C86.3004 14.9107 86.1769 14.4722 86.1115 14.1956C86.0455 13.9196 85.9608 13.3475 85.9237 12.9248C85.8727 12.3467 85.8729 11.9808 85.9244 11.4469C85.9619 11.0567 86.0417 10.5115 86.1018 10.2348C86.1612 9.95865 86.2815 9.51928 86.3682 9.25908C86.4555 8.99887 86.6319 8.56002 86.7612 8.28322C86.8905 8.007 87.116 7.58761 87.2625 7.35158C87.4084 7.11613 87.5467 6.92267 87.5692 6.92264ZM55.047 16.2693L55.0519 21.2646L50.4365 21.2697L50.4219 16.5504C50.4129 13.7654 50.4285 11.814 50.4604 11.7891C50.49 11.766 51.5343 12.7651 55.047 16.2693Z" fill="#002345"/>
<path d="M46.0898 37.1388C45.4805 37.1388 44.9512 36.9962 44.502 36.7111C44.0527 36.422 43.707 36.0236 43.4648 35.5157C43.2227 35.0079 43.1016 34.424 43.1016 33.7638C43.1016 33.1036 43.2207 32.5177 43.459 32.006C43.7012 31.4943 44.0371 31.0919 44.4668 30.799C44.8965 30.506 45.3945 30.3595 45.9609 30.3595C46.3125 30.3595 46.6543 30.4259 46.9863 30.5587C47.3184 30.6876 47.6172 30.8849 47.8828 31.1505C48.1484 31.4161 48.3574 31.754 48.5098 32.1642C48.6621 32.5704 48.7383 33.0548 48.7383 33.6173V33.9572H43.623V33.2892H48.3281L47.9824 33.547C47.9824 33.0704 47.9004 32.6447 47.7363 32.2697C47.5762 31.8947 47.3457 31.5978 47.0449 31.379C46.7441 31.1603 46.3828 31.0509 45.9609 31.0509C45.543 31.0509 45.1758 31.1622 44.8594 31.3849C44.543 31.6036 44.2969 31.8966 44.1211 32.2638C43.9492 32.6271 43.8633 33.0255 43.8633 33.4591V33.8517C43.8633 34.3751 43.9531 34.8322 44.1328 35.2228C44.3164 35.6095 44.5742 35.9103 44.9062 36.1251C45.2422 36.34 45.6367 36.4474 46.0898 36.4474C46.3984 36.4474 46.6699 36.3986 46.9043 36.3009C47.1387 36.2032 47.3359 36.0724 47.4961 35.9083C47.6562 35.7404 47.7773 35.5587 47.8594 35.3634L48.5801 35.6036C48.4785 35.8771 48.3145 36.131 48.0879 36.3654C47.8652 36.5958 47.584 36.7833 47.2441 36.9279C46.9082 37.0685 46.5234 37.1388 46.0898 37.1388Z" fill="#002345"/>
<path d="M41.25 33.3712V34.0861H37.4004V33.3712H41.25ZM37.5879 30.4474V36.9982H36.832V30.4474H37.5879ZM41.8125 30.4474V36.9982H41.0508V30.4474H41.8125Z" fill="#002345"/>
<path d="M34.6406 33.3712V34.0861H30.791V33.3712H34.6406ZM30.9785 30.4474V36.9982H30.2227V30.4474H30.9785ZM35.2031 30.4474V36.9982H34.4414V30.4474H35.2031Z" fill="#002345"/>
<path d="M26.3086 37.1388C25.6992 37.1388 25.1699 36.9962 24.7207 36.7111C24.2715 36.422 23.9258 36.0236 23.6836 35.5157C23.4414 35.0079 23.3203 34.424 23.3203 33.7638C23.3203 33.1036 23.4395 32.5177 23.6777 32.006C23.9199 31.4943 24.2559 31.0919 24.6855 30.799C25.1152 30.506 25.6133 30.3595 26.1797 30.3595C26.5312 30.3595 26.873 30.4259 27.2051 30.5587C27.5371 30.6876 27.8359 30.8849 28.1016 31.1505C28.3672 31.4161 28.5762 31.754 28.7285 32.1642C28.8809 32.5704 28.957 33.0548 28.957 33.6173V33.9572H23.8418V33.2892H28.5469L28.2012 33.547C28.2012 33.0704 28.1191 32.6447 27.9551 32.2697C27.7949 31.8947 27.5645 31.5978 27.2637 31.379C26.9629 31.1603 26.6016 31.0509 26.1797 31.0509C25.7617 31.0509 25.3945 31.1622 25.0781 31.3849C24.7617 31.6036 24.5156 31.8966 24.3398 32.2638C24.168 32.6271 24.082 33.0255 24.082 33.4591V33.8517C24.082 34.3751 24.1719 34.8322 24.3516 35.2228C24.5352 35.6095 24.793 35.9103 25.125 36.1251C25.4609 36.34 25.8555 36.4474 26.3086 36.4474C26.6172 36.4474 26.8887 36.3986 27.123 36.3009C27.3574 36.2032 27.5547 36.0724 27.7148 35.9083C27.875 35.7404 27.9961 35.5587 28.0781 35.3634L28.7988 35.6036C28.6973 35.8771 28.5332 36.131 28.3066 36.3654C28.084 36.5958 27.8027 36.7833 27.4629 36.9279C27.127 37.0685 26.7422 37.1388 26.3086 37.1388Z" fill="#002345"/>
<path d="M15.9609 38.8615V36.2833H16.5234C16.6641 36.1232 16.7871 35.9513 16.8926 35.7677C16.998 35.5841 17.0898 35.3732 17.168 35.1349C17.2461 34.8966 17.3125 34.6193 17.3672 34.3029C17.4219 33.9865 17.4688 33.6173 17.5078 33.1954L17.7422 30.4474H21.6211V36.2833H22.5938V38.8615H21.832V36.9982H16.7227V38.8615H15.9609ZM17.4023 36.2833H20.8594V31.1681H18.4512L18.252 33.1954C18.1855 33.8829 18.0898 34.4825 17.9648 34.9943C17.8398 35.506 17.6523 35.9357 17.4023 36.2833Z" fill="#002345"/>
<path d="M10.418 36.9982V30.4474H12.9961C13.6914 30.4513 14.2402 30.6036 14.6426 30.9044C15.0449 31.2052 15.2461 31.6115 15.2461 32.1232C15.2461 32.5138 15.1328 32.8243 14.9062 33.0548C14.6836 33.2853 14.3848 33.4493 14.0098 33.547C14.2598 33.5939 14.4922 33.6876 14.707 33.8282C14.9258 33.9689 15.1035 34.1564 15.2402 34.3907C15.377 34.6212 15.4453 34.8986 15.4453 35.2228C15.4453 35.5665 15.3594 35.8732 15.1875 36.1427C15.0195 36.4083 14.7812 36.6173 14.4727 36.7697C14.1641 36.922 13.7969 36.9982 13.3711 36.9982H10.418ZM11.1445 36.2892H13.3711C13.7695 36.2931 14.0859 36.1935 14.3203 35.9904C14.5547 35.7833 14.6719 35.5079 14.6719 35.1642C14.6719 34.797 14.5605 34.504 14.3379 34.2853C14.1191 34.0626 13.8262 33.9513 13.459 33.9513H11.1445V36.2892ZM11.1445 33.2833H13.043C13.4844 33.2794 13.8359 33.1779 14.0977 32.9786C14.3594 32.7755 14.4883 32.506 14.4844 32.17C14.4844 31.8497 14.3535 31.6017 14.0918 31.4259C13.8301 31.2462 13.4648 31.1564 12.9961 31.1564H11.1445V33.2833Z" fill="#002345"/>
<path d="M8.02734 36.9982V30.4474H8.7832V36.9982H8.02734ZM8.4082 29.3282C8.25195 29.3282 8.11719 29.2755 8.00391 29.17C7.89453 29.0607 7.83984 28.9298 7.83984 28.7775C7.83984 28.629 7.89453 28.5021 8.00391 28.3966C8.11719 28.2911 8.25195 28.2384 8.4082 28.2384C8.56445 28.2384 8.69727 28.2911 8.80664 28.3966C8.91602 28.5021 8.9707 28.629 8.9707 28.7775C8.9707 28.9298 8.91602 29.0607 8.80664 29.17C8.69727 29.2755 8.56445 29.3282 8.4082 29.3282Z" fill="#002345"/>
<path d="M6.28711 28.2677V36.9982H5.49609V28.9884H0.796875V36.9982H0V28.2677H6.28711Z" fill="#002345"/>
</svg>
