<svg width="95" height="28" viewBox="0 0 95 28" fill="none" xmlns="http://www.w3.org/2000/svg">
<path fill-rule="evenodd" clip-rule="evenodd" d="M18.0415 0.0913533C18.1008 0.20857 18.1779 0.64394 18.2733 1.81434L17.5843 2.51646C17.205 2.90356 16.4776 3.53374 15.9671 3.9175C15.4566 4.30126 14.4123 5.05371 13.6465 5.58987C12.8807 6.12487 12.2019 6.61448 12.1381 6.6761C12.0608 6.75205 12.0608 6.76947 12.1382 6.72835C12.202 6.69344 12.8542 6.3014 13.5888 5.85585C14.3221 5.4103 15.4454 4.71699 16.0837 4.31567C16.7219 3.91319 17.4657 3.4084 17.7372 3.19328C18.0086 2.977 18.2558 2.85364 18.2884 2.91747C18.3199 2.9813 18.3154 3.17755 18.2785 3.35294C18.2415 3.52832 18.1663 3.82916 18.112 4.02081C18.0368 4.28798 17.7329 4.56236 16.8174 5.19274C16.1594 5.64633 14.8772 6.47104 13.9674 7.02477C13.0577 7.57967 12.3266 8.06121 12.3429 8.09603C12.3592 8.13085 13.442 7.60131 14.7511 6.9194C16.0591 6.2375 17.1801 5.6336 17.2405 5.57663C17.3008 5.51967 17.4192 5.47309 17.5016 5.473C17.5852 5.47291 17.6526 5.52509 17.6527 5.58895C17.6528 5.65282 17.4963 5.93981 17.305 6.228C17.0083 6.67423 16.7646 6.84752 15.6516 7.4038C14.9332 7.76341 13.5754 8.47091 12.6342 8.97475C11.693 9.47975 10.9224 9.91837 10.9225 9.95089C10.9225 9.9834 11.2486 9.84486 11.6479 9.64353C12.0471 9.44336 13.3134 8.86717 14.4624 8.36543C15.6115 7.86368 16.5923 7.49102 16.6423 7.53741C16.6922 7.58381 16.5312 7.88358 16.283 8.20318C15.9514 8.63203 15.594 8.90996 14.9163 9.26719C14.4126 9.5325 13.4772 9.97014 12.8388 10.2414C12.2004 10.5115 11.2858 10.9317 10.8077 11.1749C10.3284 11.417 9.61237 11.8428 9.21554 12.1196C8.81987 12.3975 8.28045 12.8858 8.01836 13.2055C7.75744 13.5251 7.45487 13.9841 7.3483 14.2246C7.24174 14.4651 7.08867 14.6615 7.00855 14.6604C6.92842 14.6593 6.7457 14.2798 6.6012 13.8167C6.40309 13.1805 6.33869 12.6917 6.33773 11.8139C6.33656 10.7537 6.36658 10.5934 6.68406 9.96599C6.87525 9.58839 7.34485 8.96778 7.72764 8.58649C8.11042 8.20635 9.36341 7.1924 10.5121 6.33532C11.6607 5.47825 13.147 4.3456 13.8153 3.82C14.4847 3.29323 15.4175 2.52349 15.8908 2.10726C16.363 1.69102 17.016 1.02029 17.3407 0.614668C17.859 -0.0303736 17.946 -0.0954969 18.0415 0.0913533ZM88.946 0.981948L91.7329 0.978888L91.7366 4.3464L94.5235 4.34334L94.5262 6.78188L91.7393 6.78494L91.7728 9.77502C91.7999 12.2519 91.8377 12.8243 91.9924 13.1133C92.0948 13.3047 92.2773 13.5089 92.3982 13.5657C92.519 13.6236 93.0358 13.7008 94.4758 13.8073L94.5366 16.3038L93.0561 16.2648C91.9111 16.2358 91.4303 16.1725 90.9365 15.9861C90.5137 15.8275 90.1407 15.5736 89.8326 15.236C89.5225 14.8965 89.2999 14.4969 89.1647 14.0372C88.9934 13.4545 88.9614 12.8425 88.9524 6.788L87.0944 6.79004L87.0918 4.3515L88.9497 4.34946L88.946 0.981948ZM6.75006 8.7362C6.80928 8.73613 6.85692 8.76162 6.85696 8.79414C6.85699 8.82665 6.67394 9.20541 6.4503 9.63646C6.22665 10.0675 5.98124 10.7599 5.90505 11.1757C5.80002 11.7575 5.79926 12.1164 5.90561 12.7433C5.98158 13.1903 6.22044 13.9216 6.43691 14.3684C6.65339 14.8152 7.15126 15.6113 7.54433 16.138C7.93739 16.6648 8.77102 17.6045 9.39527 18.2262C10.0207 18.8479 11.0006 19.7479 11.5747 20.2269C12.1489 20.7047 13.2065 21.5396 15.2333 23.0678L15.2361 25.5354C15.2375 26.8929 15.2121 28.003 15.1807 28.003C15.1482 28.0031 11.7206 25.1201 7.56309 21.5957C3.40557 18.0714 0.00234221 15.1547 -2.35579e-05 15.1152C-0.0023906 15.0745 1.49166 13.6225 3.31982 11.8892C5.14798 10.1546 6.692 8.73626 6.75006 8.7362ZM25.8914 0.238336L29.1428 0.234766C30.9798 0.232749 32.76 0.287693 33.2362 0.361488C33.6996 0.432974 34.3652 0.591329 34.7171 0.71287C35.068 0.834412 35.6117 1.10205 35.9243 1.30608C36.2369 1.51128 36.6798 1.93928 36.9089 2.25836C37.138 2.57744 37.4231 3.09967 37.5419 3.41887C37.6607 3.73808 37.8077 4.41722 37.8698 4.92809C37.9456 5.54732 37.9435 6.14728 37.8637 6.72797C37.7865 7.28428 37.6014 7.89296 37.3499 8.41229C37.0869 8.95719 36.7495 9.4174 36.3284 9.80687C35.9828 10.1266 35.4165 10.529 35.0695 10.7001C34.7225 10.8723 34.098 11.0936 33.6836 11.1939C33.1507 11.3211 32.324 11.3754 28.8067 11.3828L28.8122 16.376L25.9091 16.3792L25.8914 0.238336ZM28.8039 8.8281C31.0984 8.82674 32.0784 8.76761 32.4616 8.69635C32.8447 8.62626 33.3403 8.47476 33.5643 8.36187C33.7872 8.24783 34.1399 7.96527 34.3475 7.73396C34.5551 7.50149 34.7764 7.11572 34.8389 6.87645C34.9025 6.63717 34.9542 6.11456 34.9537 5.71511C34.9544 5.25643 34.8703 4.78623 34.7247 4.43803C34.5699 4.06429 34.3385 3.77424 34.0049 3.53888C33.7167 3.33366 33.2253 3.13215 32.8107 3.049C32.4239 2.97046 31.3625 2.9066 30.4521 2.90644L28.7974 2.90593L28.8039 8.8281ZM63.9791 0.196515L66.766 0.193454L66.7758 9.13477L68.4596 9.12944L71.5316 4.36858L73.1573 4.3668C74.4241 4.36541 74.7644 4.39755 74.7007 4.51025C74.6555 4.59043 73.7953 5.87103 70.9572 10.0591L72.9869 13.1051C74.1035 14.7807 74.9933 16.1906 74.9644 16.2382C74.9354 16.2858 74.2201 16.3284 71.835 16.3369L68.5784 11.5679L66.7785 11.5733L66.7837 16.3343L63.9968 16.3373L63.9791 0.196515ZM44.9396 4.21199C45.749 4.24245 46.2752 4.33477 46.9141 4.55934C47.3927 4.72719 48.0468 5.06555 48.3664 5.31254C48.686 5.55952 49.1441 6.04092 49.386 6.38321C49.6267 6.72551 49.9596 7.37077 50.1273 7.81766C50.3718 8.47231 50.442 8.90188 50.4873 10.0236C50.5303 11.0605 50.4984 11.6179 50.3597 12.201C50.258 12.6319 50.0102 13.3115 49.8086 13.7112C49.607 14.1108 49.2 14.6733 48.9019 14.9605C48.6049 15.2476 48.0782 15.6372 47.7312 15.8245C47.3842 16.0107 46.8398 16.2331 46.5206 16.317C46.2013 16.4022 45.3653 16.4727 44.6628 16.4758C43.7106 16.4792 43.1927 16.4229 42.6304 16.2516C42.2146 16.1255 41.6267 15.8637 41.3234 15.6701C41.0202 15.4766 40.5355 15.0695 40.246 14.7667C39.9577 14.464 39.5716 13.9024 39.3888 13.5194C39.2061 13.1364 39.0011 12.5874 38.9346 12.3006C38.867 12.0139 38.7769 11.3869 38.7345 10.9074C38.691 10.4058 38.7134 9.69161 38.7896 9.22356C38.8622 8.77641 39.0125 8.14919 39.1225 7.82974C39.2336 7.51029 39.5407 6.93515 39.8073 6.55166C40.0728 6.16817 40.5658 5.63811 40.9022 5.37531C41.2399 5.11134 41.7237 4.80541 41.9791 4.69598C42.2344 4.58655 42.7568 4.4234 43.1399 4.33357C43.5752 4.2309 44.2499 4.18488 44.9396 4.21199ZM42.2416 7.92966C42.0607 8.1923 41.8371 8.66864 41.7446 8.98807C41.6521 9.30751 41.5773 9.96135 41.579 10.4398C41.5795 10.9193 41.6312 11.4941 41.6907 11.717C41.7513 11.941 41.9736 12.382 42.1853 12.6988C42.4354 13.0725 42.7515 13.3671 43.092 13.5409C43.394 13.695 43.9342 13.8372 44.3697 13.8762C44.7982 13.9164 45.3381 13.8902 45.6179 13.8156C45.8919 13.7445 46.3236 13.492 46.5892 13.2502C46.8525 13.0107 47.2039 12.5528 47.3696 12.2333C47.6361 11.7174 47.6707 11.5165 47.6718 10.4331C47.6741 9.33805 47.6414 9.14533 47.3539 8.54646C47.1782 8.17971 46.8897 7.74109 46.7142 7.57291C46.5387 7.40472 46.1854 7.17171 45.9298 7.05471C45.6231 6.91338 45.1887 6.83953 44.6522 6.8378C44.0054 6.83503 43.7094 6.89806 43.2045 7.14247C42.7813 7.34808 42.4603 7.61048 42.2416 7.92966ZM57.3065 4.16009C57.6897 4.15502 58.3168 4.20659 58.7001 4.27584C59.0833 4.34509 59.7106 4.54878 60.094 4.72834C60.5123 4.92529 60.9981 5.28009 61.3085 5.61766C61.5933 5.92623 61.9434 6.44026 62.0877 6.75943C62.2321 7.07861 62.4045 7.56148 62.5946 8.32651L59.7496 8.33428L59.546 7.92576C59.4342 7.70061 59.1726 7.39201 58.9646 7.2378C58.7566 7.08475 58.3511 6.89708 58.0642 6.82191C57.7761 6.74559 57.2803 6.71594 56.961 6.75345C56.6173 6.79447 56.1809 6.95404 55.8931 7.14363C55.6239 7.31927 55.2701 7.64712 55.1043 7.87025C54.9396 8.09455 54.7183 8.56392 54.6119 8.91588C54.4985 9.29572 54.4237 9.93215 54.429 10.4837C54.4343 11.1282 54.5115 11.6088 54.6792 12.0511C54.8388 12.4724 55.1016 12.8565 55.4515 13.1824C55.7433 13.4538 56.1778 13.7274 56.4171 13.7898C56.6564 13.8534 57.0873 13.9064 57.3753 13.9072C57.6621 13.9081 58.08 13.8484 58.3041 13.775C58.5269 13.7004 58.867 13.5259 59.0584 13.3851C59.2499 13.2456 59.4981 12.9388 59.812 12.2777L62.657 12.3326L62.6156 12.681C62.5938 12.8727 62.4677 13.3164 62.3368 13.6684C62.1736 14.1063 61.8942 14.5119 61.4499 14.9548C61.0938 15.3105 60.5149 15.7385 60.1644 15.9049C59.8127 16.0725 59.2904 16.2635 59.0036 16.3312C58.7157 16.3989 57.932 16.4555 57.2619 16.4562C56.5908 16.4581 55.7813 16.3916 55.4619 16.3072C55.1425 16.224 54.5988 16.0028 54.2549 15.8174C53.9098 15.6308 53.3937 15.2168 53.1077 14.8978C52.8217 14.5788 52.4705 14.0821 52.3262 13.7955C52.183 13.5088 51.9665 12.9865 51.8453 12.6348C51.6718 12.1322 51.6248 11.6631 51.6234 10.4287C51.622 9.12586 51.6645 8.73333 51.874 8.10604C52.0129 7.69018 52.2561 7.11627 52.4161 6.82811C52.5748 6.54112 52.9819 6.03903 53.3218 5.71352C53.6616 5.38801 54.2267 4.97516 54.5783 4.7971C54.9288 4.61905 55.5301 4.40473 55.9132 4.32186C56.2963 4.239 56.9233 4.16631 57.3065 4.16009ZM80.9371 4.13414C81.2878 4.12795 81.8626 4.17725 82.2146 4.24305C82.5653 4.30886 83.1403 4.4975 83.4924 4.66085C83.8432 4.82535 84.4185 5.23463 84.7707 5.57099C85.1217 5.90736 85.5776 6.48979 85.7812 6.86464C85.986 7.23948 86.2375 7.91155 86.3414 8.3585C86.4592 8.86814 86.5169 9.53926 86.4606 11.1453L82.2512 11.1789C79.9358 11.1977 78.0419 11.2521 78.0408 11.2997C78.0397 11.3473 78.119 11.6607 78.2157 11.9962C78.3218 12.3642 78.5638 12.7959 78.8277 13.0882C79.0672 13.3527 79.4728 13.6646 79.7284 13.7805C80.0444 13.9241 80.4718 13.9922 81.0641 13.9927C81.7538 13.9931 82.0615 13.9324 82.5443 13.7031C82.9134 13.5273 83.2336 13.275 83.5593 12.7138L84.8946 12.71C85.6285 12.708 86.2672 12.7468 86.3137 12.7967C86.3591 12.8466 86.3048 13.123 86.1925 13.4099C86.0802 13.6969 85.8217 14.1814 85.6166 14.4847C85.4125 14.788 84.9717 15.2193 84.6364 15.4426C84.301 15.6659 83.7393 15.9615 83.3888 16.1012C82.8943 16.2957 82.423 16.3647 81.2989 16.4066C80.1308 16.4497 79.7 16.42 79.0925 16.2499C78.6766 16.1343 78.0493 15.8516 77.6983 15.6232C77.3462 15.3937 76.8592 14.9739 76.6162 14.6908C76.3721 14.4077 76.0243 13.8624 75.8427 13.4794C75.6611 13.0964 75.4526 12.4962 75.3791 12.1445C75.3055 11.7927 75.2454 11.009 75.2436 10.4028C75.2429 9.79665 75.3013 9.01277 75.3741 8.66084C75.4468 8.30892 75.6842 7.64328 75.9008 7.17972C76.1499 6.64761 76.5197 6.11189 76.9036 5.72362C77.2389 5.3865 77.7993 4.96785 78.1509 4.79328C78.5014 4.61872 79.1282 4.40088 79.5439 4.31101C79.9583 4.21998 80.5853 4.14033 80.9371 4.13414ZM78.9213 7.33433C78.7369 7.51916 78.4899 7.87941 78.3729 8.13501C78.2559 8.3906 78.1587 8.71701 78.1577 8.861L78.1557 9.12227L83.7876 9.11957C83.659 8.35215 83.4762 7.92038 83.2971 7.66511C83.0924 7.37388 82.7333 7.08164 82.3324 6.88003C81.8259 6.62629 81.539 6.56157 80.9398 6.56571C80.4625 6.56856 80.0144 6.64918 79.7207 6.7842C79.4654 6.90176 79.1057 7.14949 78.9213 7.33433ZM28.9898 19.5494C29.6146 19.5731 29.9073 19.6471 30.2536 19.8638C30.5011 20.0203 30.7998 20.3045 30.9185 20.496C31.036 20.6874 31.1338 20.9358 31.1362 21.0473C31.1387 21.2029 31.0447 21.2506 30.7335 21.2509C30.427 21.2513 30.2492 21.1644 30.0074 20.8952C29.8272 20.6934 29.5111 20.5021 29.2811 20.4536C29.057 20.4074 28.6656 20.4078 28.4102 20.4534C28.1072 20.5095 27.8345 20.6631 27.6269 20.8967C27.4518 21.0931 27.2559 21.451 27.1935 21.6903C27.1299 21.9296 27.078 22.2826 27.0782 22.4742C27.0784 22.6658 27.138 23.0315 27.2092 23.2869C27.2814 23.5423 27.5036 23.9148 27.7036 24.1143C27.95 24.3626 28.2324 24.5062 28.5889 24.5651C28.9931 24.632 29.2172 24.6015 29.5758 24.4316C29.8311 24.3117 30.0922 24.0955 30.1559 23.9514C30.2497 23.7388 30.3646 23.6887 30.7652 23.6894C31.037 23.6892 31.2588 23.7412 31.2589 23.805C31.2589 23.8689 31.1883 24.0652 31.1003 24.2407C31.0134 24.4161 30.7791 24.7043 30.5784 24.8799C30.3789 25.0555 30.0191 25.2521 29.78 25.3151C29.5408 25.3792 29.0567 25.4308 28.706 25.43C28.3425 25.4293 27.8663 25.3392 27.6026 25.2199C27.347 25.1052 27.0053 24.8583 26.8437 24.6715C26.681 24.4847 26.4541 24.0971 26.3377 23.8104C26.1746 23.4042 26.1383 23.0686 26.1746 22.301C26.2098 21.5903 26.293 21.1757 26.4749 20.8202C26.6128 20.5483 26.8957 20.1961 27.1034 20.038C27.3111 19.8787 27.6372 19.6972 27.8287 19.6331C28.0202 19.5702 28.5428 19.5324 28.9898 19.5494ZM33.5202 21.0168C34.0125 21.0163 34.3273 21.0833 34.5945 21.2467C34.8025 21.3742 35.0618 21.648 35.17 21.8557C35.3225 22.1458 35.3764 22.6033 35.441 25.4261L35.0636 25.4219C34.8511 25.4198 34.635 25.3376 34.5699 25.2355C34.464 25.0696 34.4188 25.0696 34.0764 25.2407C33.8686 25.3431 33.4902 25.4283 33.2347 25.4286C32.9792 25.4288 32.5867 25.3503 32.3636 25.2553C32.1336 25.1569 31.8814 24.9307 31.7824 24.7334C31.6858 24.5419 31.6077 24.2552 31.6076 24.0949C31.6074 23.9359 31.6988 23.6489 31.8101 23.4584C31.9213 23.2678 32.1429 23.0516 32.3031 22.9759C32.4621 22.9014 33.024 22.8079 33.5511 22.769C34.4394 22.703 34.5032 22.6821 34.4368 22.4661C34.3972 22.3385 34.2797 22.1412 34.175 22.0275C34.0611 21.9034 33.823 21.8212 33.5791 21.8226C33.355 21.824 33.0683 21.9021 32.9406 21.9975C32.813 22.0929 32.5123 22.1722 32.2731 22.1747C32.0339 22.1773 31.8376 22.1264 31.8376 22.0626C31.8375 21.9987 31.8896 21.8419 31.9533 21.7141C32.017 21.5863 32.2386 21.377 32.4463 21.2491C32.7132 21.085 33.0278 21.0173 33.5202 21.0168ZM32.6373 23.8685C32.4959 24.116 32.5041 24.1741 32.711 24.3852C32.868 24.5453 33.0887 24.6217 33.3883 24.619C33.7262 24.6163 33.913 24.5314 34.1717 24.2663C34.3573 24.0745 34.5103 23.8131 34.5101 23.6853C34.5099 23.481 34.4379 23.4555 33.9003 23.47C33.5647 23.4785 33.1792 23.5091 33.0434 23.5372C32.9075 23.5663 32.7242 23.714 32.6373 23.8685ZM36.0168 21.0129L36.4813 21.0124C36.8679 21.012 36.9458 21.0502 36.946 21.2441C36.9462 21.4764 36.9462 21.4764 37.3234 21.2437C37.5311 21.1169 37.8968 21.012 38.136 21.0106C38.5494 21.0101 38.5715 21.0287 38.5742 21.3875C38.5769 21.7324 38.5386 21.7719 38.1392 21.8466C37.8989 21.8922 37.5832 22.0493 37.4394 22.1958C37.2956 22.3434 37.1275 22.6722 37.0651 22.9277C37.0039 23.1833 36.9535 23.8499 36.9506 25.4245L36.0216 25.4255L36.0168 21.0129ZM40.6326 21.0078C40.9682 21.0075 41.3991 21.0859 41.5908 21.181C41.901 21.3351 41.9393 21.335 41.9391 21.1806C41.939 21.0552 42.0667 21.0063 42.8551 21.0054L42.8347 23.531C42.8164 25.8837 42.798 26.0846 42.5685 26.4634C42.4317 26.6877 42.1324 26.962 41.9015 27.0738C41.6578 27.1925 41.2131 27.2777 40.8427 27.2781C40.4908 27.2785 40.0205 27.2001 39.7974 27.1051C39.5732 27.0101 39.2861 26.7619 39.1581 26.5542C39.0313 26.3465 38.9266 26.1121 38.9253 26.0319C38.9252 25.9402 39.0947 25.8866 39.3896 25.8863C39.6602 25.886 39.8902 25.9519 39.9414 26.0424C39.9891 26.1295 40.146 26.2594 40.2901 26.3324C40.4341 26.4054 40.7082 26.4654 40.8998 26.4652C41.0984 26.465 41.3723 26.3521 41.5359 26.2033C41.7134 26.0417 41.8582 25.7454 42.0013 24.9173L41.5951 25.1686C41.3244 25.3353 40.9955 25.42 40.6084 25.4228C40.1927 25.4267 39.9151 25.3527 39.6315 25.1637C39.4142 25.0188 39.126 24.7521 38.9922 24.5722C38.8061 24.3216 38.7396 24.0349 38.711 23.3533C38.6753 22.5405 38.7007 22.4162 38.9986 21.9514C39.1783 21.6702 39.4822 21.3424 39.6737 21.2237C39.8988 21.0853 40.2401 21.0071 40.6326 21.0078ZM39.8097 22.408C39.7042 22.5962 39.6187 22.9726 39.619 23.2443C39.6205 23.5334 39.7161 23.8944 39.8522 24.1149C39.9883 24.3366 40.2172 24.5221 40.4042 24.5637C40.5796 24.603 40.8746 24.5899 41.0591 24.534C41.2437 24.478 41.4932 24.3012 41.6149 24.142C41.7367 23.9816 41.8664 23.6424 41.9032 23.3869C41.9482 23.0803 41.9084 22.7842 41.7862 22.5161C41.6837 22.2921 41.4675 22.045 41.306 21.9651C41.1433 21.8851 40.8669 21.8216 40.6915 21.8241C40.5162 21.8266 40.2887 21.8814 40.1865 21.9466C40.0844 22.0117 39.914 22.2198 39.8097 22.408ZM45.6165 21.0302C46.2401 21.0516 46.5328 21.1198 46.778 21.2984C46.9593 21.4294 47.2291 21.7693 47.3769 22.0525C47.6003 22.4772 47.64 22.7001 47.6024 23.3226C47.5739 23.786 47.471 24.2238 47.3331 24.4562C47.2114 24.6654 46.9539 24.9502 46.7624 25.0886C46.571 25.2281 46.1787 25.3656 45.8919 25.3938C45.6039 25.4219 45.1731 25.4131 44.9339 25.3727C44.6795 25.3301 44.3263 25.1435 44.0845 24.9231C43.8579 24.7155 43.6136 24.3639 43.5437 24.1399C43.4738 23.9159 43.4152 23.4723 43.4137 23.153C43.411 22.7989 43.5081 22.3575 43.6621 22.0206C43.8394 21.6314 44.0423 21.4001 44.3487 21.2348C44.6899 21.051 44.9639 21.0077 45.6165 21.0302ZM44.3891 23.0846C44.3836 23.4097 44.4584 23.8312 44.555 24.0227C44.6632 24.2374 44.8736 24.4171 45.1071 24.4912C45.315 24.5572 45.6146 24.5824 45.7748 24.5485C45.9339 24.5135 46.195 24.3495 46.355 24.1856C46.5986 23.9333 46.6449 23.7754 46.6442 23.189C46.6435 22.5491 46.6121 22.4632 46.2657 22.1536C45.9972 21.9123 45.7683 21.815 45.4722 21.8154C45.1668 21.8157 44.9707 21.9053 44.7271 22.1553C44.4557 22.4342 44.3955 22.6004 44.3891 23.0846Z" fill="#002345"/>
</svg>
