<svg width="136" height="32" viewBox="0 0 136 32" fill="none" xmlns="http://www.w3.org/2000/svg">
<path d="M40.0251 1.91778L36.376 0.126194C35.947 -0.0844776 35.4356 -0.0278265 35.0609 0.269592L23.4533 9.51965C22.8177 10.026 22.8212 10.9997 23.4586 11.5024L26.5054 13.9048C26.9571 14.2624 27.5928 14.2606 28.0428 13.9013L32.4676 10.3765C33.2854 9.72501 34.4848 10.3145 34.4848 11.3661V20.6675C34.4848 21.7173 33.2889 22.3069 32.4712 21.6607L5.5998 0.418301C5.22508 0.122653 4.71553 0.0677722 4.28653 0.278443L0.700413 2.04171C0.27141 2.25238 0 2.6932 0 3.17473V28.951C0 29.4343 0.273161 29.8733 0.702164 30.084L4.35307 31.8738C4.78207 32.0845 5.29337 32.0278 5.66809 31.7304L17.1846 22.5529C17.8203 22.0466 17.8168 21.0729 17.1794 20.5701L14.1326 18.1678C13.6808 17.8102 13.0452 17.8119 12.5952 18.1713L8.26137 21.6253C7.44364 22.2768 6.24418 21.6872 6.24418 20.6357V11.4599C6.24418 10.4101 7.44014 9.82061 8.25787 10.4686L35.1135 31.7162C35.4882 32.0137 35.9977 32.0668 36.4267 31.8561L40.0269 30.0858C40.4559 29.8751 40.7273 29.4343 40.7273 28.9527V3.05081C40.7273 2.5675 40.4541 2.12845 40.0251 1.91778Z" fill="white"/>
<path d="M129.786 24.5912C128.513 24.5912 127.414 24.326 126.49 23.7957C125.566 23.2578 124.854 22.5003 124.354 21.523C123.861 20.5457 123.615 19.3942 123.615 18.0684C123.615 16.7578 123.861 15.6101 124.354 14.6253C124.846 13.6328 125.539 12.8601 126.433 12.3071C127.327 11.7541 128.38 11.4775 129.593 11.4775C130.373 11.4775 131.111 11.6025 131.808 11.8525C132.513 12.1025 133.134 12.4889 133.672 13.0116C134.218 13.5344 134.646 14.201 134.956 15.0116C135.267 15.8147 135.422 16.773 135.422 17.8866V18.8184H125.013V16.8071H133.933L132.536 17.398C132.536 16.6783 132.426 16.0533 132.206 15.523C131.986 14.9851 131.661 14.5647 131.229 14.2616C130.797 13.9586 130.259 13.8071 129.615 13.8071C128.971 13.8071 128.422 13.9586 127.968 14.2616C127.513 14.5647 127.168 14.9738 126.933 15.4889C126.699 15.9965 126.581 16.5647 126.581 17.1934V18.5912C126.581 19.3639 126.714 20.0268 126.979 20.5798C127.252 21.1253 127.63 21.5419 128.115 21.8298C128.608 22.1177 129.18 22.2616 129.831 22.2616C130.255 22.2616 130.642 22.201 130.99 22.0798C131.346 21.9586 131.649 21.7768 131.899 21.5344C132.157 21.2844 132.354 20.9775 132.49 20.6139L135.286 20.9434C135.104 21.6783 134.767 22.3222 134.274 22.8753C133.789 23.4207 133.164 23.845 132.399 24.148C131.642 24.4434 130.771 24.5912 129.786 24.5912Z" fill="white"/>
<path d="M122.507 15.0116L119.791 15.2957C119.677 14.8791 119.431 14.5116 119.052 14.1934C118.674 13.8677 118.14 13.7048 117.45 13.7048C116.829 13.7048 116.306 13.8412 115.882 14.1139C115.465 14.3866 115.257 14.7351 115.257 15.1594C115.257 15.5306 115.393 15.8374 115.666 16.0798C115.946 16.3147 116.408 16.5041 117.052 16.648L119.223 17.1025C120.412 17.3525 121.302 17.7616 121.893 18.3298C122.484 18.898 122.78 19.6328 122.78 20.5344C122.78 21.3298 122.549 22.0344 122.086 22.648C121.624 23.2616 120.984 23.7389 120.166 24.0798C119.355 24.4207 118.42 24.5912 117.359 24.5912C115.806 24.5912 114.556 24.2654 113.609 23.6139C112.67 22.9548 112.105 22.0419 111.916 20.8753L114.836 20.6025C114.965 21.1707 115.246 21.6025 115.677 21.898C116.117 22.1859 116.677 22.3298 117.359 22.3298C118.071 22.3298 118.643 22.1859 119.075 21.898C119.507 21.6025 119.723 21.2427 119.723 20.8184C119.723 20.1063 119.155 19.6215 118.018 19.3639L115.848 18.9094C114.628 18.6442 113.727 18.2162 113.143 17.6253C112.56 17.0268 112.268 16.2654 112.268 15.3412C112.268 14.5533 112.484 13.8715 112.916 13.2957C113.348 12.72 113.95 12.273 114.723 11.9548C115.496 11.6366 116.39 11.4775 117.405 11.4775C118.897 11.4775 120.068 11.7995 120.916 12.4434C121.772 13.0798 122.302 13.9359 122.507 15.0116Z" fill="white"/>
<path d="M102.342 16.9094V24.3412H99.3533V11.6366H102.285V13.8071H102.433C102.721 13.095 103.171 12.5306 103.785 12.1139C104.406 11.6897 105.194 11.4775 106.149 11.4775C107.028 11.4775 107.793 11.6631 108.444 12.0344C109.096 12.4056 109.599 12.951 109.956 13.6707C110.319 14.3828 110.501 15.2465 110.501 16.2616V24.3412H107.512V16.7275C107.512 15.8791 107.293 15.2162 106.853 14.7389C106.414 14.2541 105.808 14.0116 105.035 14.0116C104.512 14.0116 104.046 14.1253 103.637 14.3525C103.236 14.5798 102.918 14.9094 102.683 15.3412C102.456 15.7654 102.342 16.2881 102.342 16.9094Z" fill="white"/>
<path d="M92.3247 24.5912C91.052 24.5912 89.9535 24.326 89.0293 23.7957C88.1051 23.2578 87.3929 22.5003 86.8929 21.523C86.4005 20.5457 86.1543 19.3942 86.1543 18.0684C86.1543 16.7578 86.4005 15.6101 86.8929 14.6253C87.3854 13.6328 88.0785 12.8601 88.9725 12.3071C89.8664 11.7541 90.9194 11.4775 92.1316 11.4775C92.9119 11.4775 93.6505 11.6025 94.3475 11.8525C95.052 12.1025 95.6732 12.4889 96.2111 13.0116C96.7566 13.5344 97.1846 14.201 97.4952 15.0116C97.8058 15.8147 97.9611 16.773 97.9611 17.8866V18.8184H87.552V16.8071H96.4725L95.0747 17.398C95.0747 16.6783 94.9649 16.0533 94.7452 15.523C94.5255 14.9851 94.1997 14.5647 93.7679 14.2616C93.3361 13.9586 92.7982 13.8071 92.1543 13.8071C91.5104 13.8071 90.9611 13.9586 90.5066 14.2616C90.052 14.5647 89.7073 14.9738 89.4725 15.4889C89.2376 15.9965 89.1202 16.5647 89.1202 17.1934V18.5912C89.1202 19.3639 89.2528 20.0268 89.5179 20.5798C89.7907 21.1253 90.1694 21.5419 90.6543 21.8298C91.1467 22.1177 91.7187 22.2616 92.3702 22.2616C92.7944 22.2616 93.1808 22.201 93.5293 22.0798C93.8854 21.9586 94.1884 21.7768 94.4384 21.5344C94.696 21.2844 94.8929 20.9775 95.0293 20.6139L97.8247 20.9434C97.6429 21.6783 97.3058 22.3222 96.8134 22.8753C96.3285 23.4207 95.7035 23.845 94.9384 24.148C94.1808 24.4434 93.3096 24.5912 92.3247 24.5912Z" fill="white"/>
<path d="M85.046 15.0116L82.3301 15.2957C82.2164 14.8791 81.9702 14.5116 81.5914 14.1934C81.2127 13.8677 80.6786 13.7048 79.9892 13.7048C79.368 13.7048 78.8452 13.8412 78.421 14.1139C78.0043 14.3866 77.796 14.7351 77.796 15.1594C77.796 15.5306 77.9324 15.8374 78.2051 16.0798C78.4854 16.3147 78.9475 16.5041 79.5914 16.648L81.7619 17.1025C82.9513 17.3525 83.8414 17.7616 84.4324 18.3298C85.0233 18.898 85.3187 19.6328 85.3187 20.5344C85.3187 21.3298 85.0877 22.0344 84.6255 22.648C84.1634 23.2616 83.5233 23.7389 82.7051 24.0798C81.8945 24.4207 80.9589 24.5912 79.8983 24.5912C78.3452 24.5912 77.0952 24.2654 76.1483 23.6139C75.2089 22.9548 74.6445 22.0419 74.4551 20.8753L77.3755 20.6025C77.5043 21.1707 77.7846 21.6025 78.2164 21.898C78.6558 22.1859 79.2164 22.3298 79.8983 22.3298C80.6104 22.3298 81.1824 22.1859 81.6142 21.898C82.046 21.6025 82.2619 21.2427 82.2619 20.8184C82.2619 20.1063 81.6937 19.6215 80.5574 19.3639L78.3869 18.9094C77.1672 18.6442 76.2657 18.2162 75.6824 17.6253C75.099 17.0268 74.8074 16.2654 74.8074 15.3412C74.8074 14.5533 75.0233 13.8715 75.4551 13.2957C75.8869 12.72 76.4892 12.273 77.2619 11.9548C78.0346 11.6366 78.9286 11.4775 79.9437 11.4775C81.4361 11.4775 82.6066 11.7995 83.4551 12.4434C84.3111 13.0798 84.8414 13.9359 85.046 15.0116Z" fill="white"/>
<path d="M64.881 16.9094V24.3412H61.8923V11.6366H64.8242V13.8071H64.9719C65.2598 13.095 65.7105 12.5306 66.3242 12.1139C66.9454 11.6897 67.7332 11.4775 68.6878 11.4775C69.5666 11.4775 70.3317 11.6631 70.9832 12.0344C71.6348 12.4056 72.1385 12.951 72.4946 13.6707C72.8582 14.3828 73.0401 15.2465 73.0401 16.2616V24.3412H70.0514V16.7275C70.0514 15.8791 69.8317 15.2162 69.3923 14.7389C68.9529 14.2541 68.3469 14.0116 67.5742 14.0116C67.0514 14.0116 66.5855 14.1253 66.1764 14.3525C65.7749 14.5798 65.4567 14.9094 65.2219 15.3412C64.9946 15.7654 64.881 16.2881 64.881 16.9094Z" fill="white"/>
<path d="M59.7955 7.40918V24.341H56.7273V7.40918H59.7955Z" fill="white"/>
</svg>
