<svg width="136" height="32" viewBox="0 0 136 32" fill="none" xmlns="http://www.w3.org/2000/svg">
<path d="M40.0251 1.91778L36.376 0.126194C35.947 -0.0844776 35.4356 -0.0278265 35.0609 0.269592L23.4533 9.51965C22.8177 10.026 22.8212 10.9997 23.4586 11.5024L26.5054 13.9048C26.9571 14.2624 27.5928 14.2606 28.0428 13.9013L32.4676 10.3765C33.2854 9.72501 34.4848 10.3145 34.4848 11.3661V20.6675C34.4848 21.7173 33.2889 22.3069 32.4712 21.6607L5.5998 0.418301C5.22508 0.122653 4.71553 0.0677722 4.28653 0.278443L0.700413 2.04171C0.27141 2.25238 0 2.6932 0 3.17473V28.951C0 29.4343 0.273161 29.8733 0.702164 30.084L4.35307 31.8738C4.78207 32.0845 5.29337 32.0278 5.66809 31.7304L17.1846 22.5529C17.8203 22.0466 17.8168 21.0729 17.1794 20.5701L14.1326 18.1678C13.6808 17.8102 13.0452 17.8119 12.5952 18.1713L8.26137 21.6253C7.44364 22.2768 6.24418 21.6872 6.24418 20.6357V11.4599C6.24418 10.4101 7.44014 9.82061 8.25787 10.4686L35.1135 31.7162C35.4882 32.0137 35.9977 32.0668 36.4267 31.8561L40.0269 30.0858C40.4559 29.8751 40.7273 29.4343 40.7273 28.9527V3.05081C40.7273 2.5675 40.4541 2.12845 40.0251 1.91778Z" fill="#0068FF"/>
<path d="M129.785 24.5908C128.512 24.5908 127.414 24.3257 126.49 23.7954C125.566 23.2575 124.853 22.4999 124.353 21.5226C123.861 20.5454 123.615 19.3939 123.615 18.0681C123.615 16.7575 123.861 15.6098 124.353 14.6249C124.846 13.6325 125.539 12.8598 126.433 12.3067C127.327 11.7537 128.38 11.4772 129.592 11.4772C130.372 11.4772 131.111 11.6022 131.808 11.8522C132.512 12.1022 133.134 12.4885 133.672 13.0113C134.217 13.534 134.645 14.2007 134.956 15.0113C135.266 15.8143 135.422 16.7726 135.422 17.8863V18.8181H125.012V16.8067H133.933L132.535 17.3976C132.535 16.6779 132.425 16.0529 132.206 15.5226C131.986 14.9848 131.66 14.5643 131.228 14.2613C130.797 13.9582 130.259 13.8067 129.615 13.8067C128.971 13.8067 128.422 13.9582 127.967 14.2613C127.512 14.5643 127.168 14.9734 126.933 15.4885C126.698 15.9961 126.581 16.5643 126.581 17.1931V18.5908C126.581 19.3635 126.713 20.0264 126.978 20.5795C127.251 21.1249 127.63 21.5416 128.115 21.8295C128.607 22.1173 129.179 22.2613 129.831 22.2613C130.255 22.2613 130.641 22.2007 130.99 22.0795C131.346 21.9582 131.649 21.7764 131.899 21.534C132.156 21.284 132.353 20.9772 132.49 20.6135L135.285 20.9431C135.103 21.6779 134.766 22.3219 134.274 22.8749C133.789 23.4204 133.164 23.8446 132.399 24.1476C131.641 24.4431 130.77 24.5908 129.785 24.5908Z" fill="#0068FF"/>
<path d="M122.507 15.0113L119.791 15.2954C119.677 14.8787 119.431 14.5113 119.052 14.1931C118.674 13.8673 118.14 13.7045 117.45 13.7045C116.829 13.7045 116.306 13.8408 115.882 14.1135C115.465 14.3863 115.257 14.7348 115.257 15.159C115.257 15.5302 115.393 15.837 115.666 16.0795C115.946 16.3143 116.408 16.5037 117.052 16.6476L119.223 17.1022C120.412 17.3522 121.302 17.7613 121.893 18.3295C122.484 18.8976 122.78 19.6325 122.78 20.534C122.78 21.3295 122.549 22.034 122.086 22.6476C121.624 23.2613 120.984 23.7385 120.166 24.0795C119.355 24.4204 118.42 24.5908 117.359 24.5908C115.806 24.5908 114.556 24.2651 113.609 23.6135C112.67 22.9545 112.105 22.0416 111.916 20.8749L114.836 20.6022C114.965 21.1704 115.246 21.6022 115.677 21.8976C116.117 22.1855 116.677 22.3295 117.359 22.3295C118.071 22.3295 118.643 22.1855 119.075 21.8976C119.507 21.6022 119.723 21.2423 119.723 20.8181C119.723 20.106 119.155 19.6211 118.018 19.3635L115.848 18.909C114.628 18.6439 113.727 18.2158 113.143 17.6249C112.56 17.0264 112.268 16.2651 112.268 15.3408C112.268 14.5529 112.484 13.8711 112.916 13.2954C113.348 12.7196 113.95 12.2726 114.723 11.9545C115.496 11.6363 116.39 11.4772 117.405 11.4772C118.897 11.4772 120.068 11.7992 120.916 12.4431C121.772 13.0795 122.302 13.9355 122.507 15.0113Z" fill="#0068FF"/>
<path d="M102.342 16.909V24.3408H99.353V11.6363H102.285V13.8067H102.433C102.72 13.0946 103.171 12.5302 103.785 12.1135C104.406 11.6893 105.194 11.4772 106.148 11.4772C107.027 11.4772 107.792 11.6628 108.444 12.034C109.095 12.4052 109.599 12.9507 109.955 13.6704C110.319 14.3825 110.501 15.2461 110.501 16.2613V24.3408H107.512V16.7272C107.512 15.8787 107.292 15.2158 106.853 14.7385C106.414 14.2537 105.808 14.0113 105.035 14.0113C104.512 14.0113 104.046 14.1249 103.637 14.3522C103.236 14.5795 102.917 14.909 102.683 15.3408C102.455 15.7651 102.342 16.2878 102.342 16.909Z" fill="#0068FF"/>
<path d="M92.3243 24.5908C91.0515 24.5908 89.953 24.3257 89.0288 23.7954C88.1046 23.2575 87.3924 22.4999 86.8924 21.5226C86.4 20.5454 86.1538 19.3939 86.1538 18.0681C86.1538 16.7575 86.4 15.6098 86.8924 14.6249C87.3849 13.6325 88.078 12.8598 88.972 12.3067C89.8659 11.7537 90.919 11.4772 92.1311 11.4772C92.9114 11.4772 93.65 11.6022 94.347 11.8522C95.0515 12.1022 95.6727 12.4885 96.2106 13.0113C96.7561 13.534 97.1841 14.2007 97.4947 15.0113C97.8053 15.8143 97.9606 16.7726 97.9606 17.8863V18.8181H87.5515V16.8067H96.472L95.0743 17.3976C95.0743 16.6779 94.9644 16.0529 94.7447 15.5226C94.525 14.9848 94.1993 14.5643 93.7674 14.2613C93.3356 13.9582 92.7977 13.8067 92.1538 13.8067C91.5099 13.8067 90.9606 13.9582 90.5061 14.2613C90.0515 14.5643 89.7068 14.9734 89.472 15.4885C89.2371 15.9961 89.1197 16.5643 89.1197 17.1931V18.5908C89.1197 19.3635 89.2523 20.0264 89.5174 20.5795C89.7902 21.1249 90.169 21.5416 90.6538 21.8295C91.1462 22.1173 91.7182 22.2613 92.3697 22.2613C92.794 22.2613 93.1803 22.2007 93.5288 22.0795C93.8849 21.9582 94.1879 21.7764 94.4379 21.534C94.6955 21.284 94.8924 20.9772 95.0288 20.6135L97.8243 20.9431C97.6424 21.6779 97.3053 22.3219 96.8129 22.8749C96.328 23.4204 95.703 23.8446 94.9379 24.1476C94.1803 24.4431 93.3091 24.5908 92.3243 24.5908Z" fill="#0068FF"/>
<path d="M85.046 15.0113L82.3301 15.2954C82.2164 14.8787 81.9702 14.5113 81.5914 14.1931C81.2127 13.8673 80.6786 13.7045 79.9892 13.7045C79.368 13.7045 78.8452 13.8408 78.421 14.1135C78.0043 14.3863 77.796 14.7348 77.796 15.159C77.796 15.5302 77.9324 15.837 78.2051 16.0795C78.4854 16.3143 78.9475 16.5037 79.5914 16.6476L81.7619 17.1022C82.9513 17.3522 83.8414 17.7613 84.4324 18.3295C85.0233 18.8976 85.3187 19.6325 85.3187 20.534C85.3187 21.3295 85.0877 22.034 84.6255 22.6476C84.1634 23.2613 83.5233 23.7385 82.7051 24.0795C81.8945 24.4204 80.9589 24.5908 79.8983 24.5908C78.3452 24.5908 77.0952 24.2651 76.1483 23.6135C75.2089 22.9545 74.6445 22.0416 74.4551 20.8749L77.3755 20.6022C77.5043 21.1704 77.7846 21.6022 78.2164 21.8976C78.6558 22.1855 79.2164 22.3295 79.8983 22.3295C80.6104 22.3295 81.1824 22.1855 81.6142 21.8976C82.046 21.6022 82.2619 21.2423 82.2619 20.8181C82.2619 20.106 81.6937 19.6211 80.5574 19.3635L78.3869 18.909C77.1672 18.6439 76.2657 18.2158 75.6824 17.6249C75.099 17.0264 74.8074 16.2651 74.8074 15.3408C74.8074 14.5529 75.0233 13.8711 75.4551 13.2954C75.8869 12.7196 76.4892 12.2726 77.2619 11.9545C78.0346 11.6363 78.9286 11.4772 79.9437 11.4772C81.4361 11.4772 82.6066 11.7992 83.4551 12.4431C84.3111 13.0795 84.8414 13.9355 85.046 15.0113Z" fill="#0068FF"/>
<path d="M64.8807 16.909V24.3408H61.8921V11.6363H64.8239V13.8067H64.9716C65.2595 13.0946 65.7103 12.5302 66.3239 12.1135C66.9451 11.6893 67.733 11.4772 68.6875 11.4772C69.5663 11.4772 70.3315 11.6628 70.983 12.034C71.6345 12.4052 72.1383 12.9507 72.4944 13.6704C72.858 14.3825 73.0398 15.2461 73.0398 16.2613V24.3408H70.0512V16.7272C70.0512 15.8787 69.8315 15.2158 69.3921 14.7385C68.9527 14.2537 68.3466 14.0113 67.5739 14.0113C67.0512 14.0113 66.5853 14.1249 66.1762 14.3522C65.7747 14.5795 65.4565 14.909 65.2216 15.3408C64.9944 15.7651 64.8807 16.2878 64.8807 16.909Z" fill="#0068FF"/>
<path d="M59.7952 7.40909V24.3409H56.7271V7.40909H59.7952Z" fill="#0068FF"/>
</svg>
